<svg width="120" height="120" viewBox="0 0 120 120" fill="none" xmlns="http://www.w3.org/2000/svg">
    <path d="M113.154 35.2999C113.153 33.2874 112.723 31.5091 111.852 29.9829C110.997 28.482 109.717 27.2241 107.999 26.2295C93.8221 18.0549 79.6313 9.90536 65.4588 1.72244C61.6379 -0.483393 57.9334 -0.402976 54.1409 1.83452C48.4979 5.16244 20.2459 21.3487 11.8271 26.2249C8.36002 28.232 6.67294 31.3037 6.6721 35.2962C6.66669 51.7358 6.6721 68.1749 6.66669 84.6149C6.66752 86.5833 7.0796 88.327 7.91169 89.8304C8.7671 91.3766 10.0654 92.6691 11.8225 93.6862C20.2417 98.5624 48.4975 114.747 54.1392 118.076C57.9334 120.315 61.6379 120.395 65.46 118.188C79.6329 110.005 93.8246 101.856 108.004 93.6812C109.761 92.6645 111.059 91.3712 111.915 89.8262C112.745 88.3229 113.158 86.5791 113.159 84.6104C113.159 84.6104 113.159 51.7399 113.154 35.2999Z" fill="#5C8DBC" />
    <path d="M60.0759 59.7954L7.91168 89.8304C8.7671 91.3767 10.0654 92.6692 11.8225 93.6862C20.2417 98.5625 48.4975 114.747 54.1392 118.076C57.9333 120.315 61.6379 120.395 65.46 118.188C79.6329 110.005 93.8246 101.856 108.004 93.6812C109.761 92.6646 111.059 91.3712 111.915 89.8262L60.0759 59.7954Z" fill="#1A4674" />
    <path d="M44.6254 68.6921C47.6608 73.9912 53.3671 77.5654 59.9129 77.5654C66.4992 77.5654 72.2379 73.9458 75.2579 68.59L60.0758 59.7954L44.6254 68.6921Z" fill="#1A4674" />
    <path d="M113.154 35.3C113.153 33.2875 112.722 31.5092 111.852 29.9829L60.0758 59.7954L111.915 89.8262C112.745 88.3229 113.158 86.5792 113.159 84.6104C113.159 84.6104 113.159 51.74 113.154 35.3Z" fill="#1B598E" />
    <path d="M110.303 61.9421H106.252V65.9937H102.201V61.9421H98.1504V57.8917H102.201V53.8408H106.252V57.8917H110.303V61.9421ZM95.5221 61.9421H91.4717V65.9937H87.4208V61.9421H83.37V57.8917H87.4208V53.8408H91.4717V57.8917H95.5221V61.9421Z" fill="white" />
    <path d="M75.2579 68.5901C72.2379 73.9459 66.4992 77.5655 59.9129 77.5655C53.3671 77.5655 47.6608 73.9913 44.6254 68.6921C43.1006 66.0331 42.2998 63.0207 42.3029 59.9555C42.3029 50.2301 50.1875 42.3459 59.9129 42.3459C66.4167 42.3459 72.0929 45.8755 75.1433 51.1205L90.5354 42.2571C84.4175 31.6963 72.9954 24.5913 59.9129 24.5913C40.3813 24.5913 24.5483 40.4246 24.5483 59.9555C24.5483 66.363 26.2529 72.3717 29.2321 77.5546C35.3346 88.1713 46.7892 95.3201 59.9129 95.3201C73.0608 95.3201 84.5333 88.1426 90.6271 77.4946L75.2579 68.5901Z" fill="white" />
</svg>
    