<svg width="110" height="110" viewBox="0 0 110 110" fill="none" xmlns="http://www.w3.org/2000/svg">
    <g clip-path="url(#clip0_99_671)">
        <path d="M57.5306 1.26953H64.9531V11.2662C77.4619 11.2662 89.9697 11.2912 102.478 11.2282C104.59 11.3152 106.914 11.1662 108.75 12.4278C110.037 14.2772 109.888 16.6264 109.975 18.7507C109.913 40.4434 109.938 62.1241 109.951 83.8038C109.889 87.4405 110.288 91.1513 109.526 94.7381C109.026 97.3372 105.902 97.3992 103.815 97.4872C90.8694 97.5242 77.9118 97.4622 64.9531 97.4872V108.733H57.1928C38.1492 105.272 19.0676 102.074 0 98.7367V11.2792C19.1815 7.94229 38.3621 4.65639 57.5306 1.26953Z" fill="#207245" />
        <path d="M64.9531 15.0149H106.189V93.7384H64.9531V86.2409H74.9498V77.4939H64.9531V72.4956H74.9498V63.7485H64.9531V58.7502H74.9498V50.0031H64.9531V45.0048H74.9498V36.2577H64.9531V31.2594H74.9498V22.5124H64.9531V15.0149Z" fill="white" />
        <path d="M79.9481 22.5125H97.4422V31.2595H79.9481V22.5125Z" fill="#207245" />
        <path d="M37.0125 34.2204C39.8365 34.0205 42.6736 33.8456 45.5096 33.7086C42.1783 40.55 38.8171 47.3768 35.426 54.1887C38.8629 61.1864 42.3727 68.134 45.8215 75.1317C42.8134 74.9591 39.8063 74.7675 36.8006 74.5569C34.6763 69.3456 32.0892 64.3103 30.5647 58.8622C28.8662 63.9354 26.4411 68.7208 24.4927 73.6952C21.7556 73.6572 19.0186 73.5452 16.2825 73.4323C19.4934 67.1474 22.5923 60.8115 25.9032 54.5636C23.0922 48.1278 20.0052 41.8179 17.1062 35.42C19.8553 35.2571 22.6043 35.0952 25.3534 34.9452C27.2148 39.8316 29.2511 44.6539 30.7896 49.6652C32.438 44.355 34.9002 39.3567 37.0125 34.2204Z" fill="white" />
        <path d="M79.9481 36.2578H97.4422V45.0049H79.9481V36.2578ZM79.9481 50.0032H97.4422V58.7502H79.9481V50.0032ZM79.9481 63.7486H97.4422V72.4956H79.9481V63.7486ZM79.9481 77.4939H97.4422V86.241H79.9481V77.4939Z" fill="#207245" />
    </g>
    <defs>
        <clipPath id="clip0_99_671">
            <rect width="110" height="110" fill="white" />
        </clipPath>
    </defs>
</svg>
    