<svg width="110" height="110" viewBox="0 0 110 110" fill="none" xmlns="http://www.w3.org/2000/svg">
    <path d="M57.4888 1.26965H64.9617V11.2668C78.3329 11.3418 91.6922 11.1289 105.051 11.3418C107.901 11.0539 110.137 13.2663 109.875 16.1155C110.087 40.7335 109.825 65.3636 110 89.9817C109.875 92.5059 110.25 95.3052 108.787 97.5415C106.963 98.8412 104.601 98.6792 102.477 98.7782C89.9667 98.7172 77.4702 98.7422 64.9617 98.7422V108.739H57.1519C38.1333 105.265 19.0626 102.079 0.00602029 98.7422C-0.00697605 69.5884 0.00602029 40.4336 0.00602029 11.2918C19.1616 7.94277 38.3322 4.68169 57.4898 1.26965H57.4888Z" fill="#2A5699" />
    <path d="M64.9617 15.0157H106.2V94.9932H64.9617V84.996H97.4526V79.9974H64.9617V73.7492H97.4526V68.7506H64.9617V62.5024H97.4526V57.5038H64.9617V51.2555H97.4526V46.2569H64.9617V40.0087H97.4526V35.0101H64.9617V28.7619H97.4526V23.7633H64.9617V15.0157ZM25.8227 37.0965C28.1971 36.9596 30.5714 36.8596 32.9457 36.7346C34.6073 45.1702 36.3068 53.5919 38.1063 61.9895C39.5189 53.3169 41.0814 44.6694 42.592 36.0098C45.0913 35.9229 47.5906 35.7849 50.0779 35.6349C47.2537 47.7435 44.7794 59.9531 41.6923 71.9867C39.6049 73.0744 36.4807 71.9367 34.0064 72.1117C32.3439 63.84 30.4074 55.6163 28.9199 47.3066C27.4583 55.3794 25.5588 63.3771 23.8843 71.4009C21.485 71.2759 19.0736 71.1259 16.6603 70.963C14.5869 59.9661 12.1496 49.0442 10.2131 38.0223C12.3495 37.9223 14.4989 37.8343 16.6363 37.7593C17.923 45.7191 19.3856 53.6429 20.5102 61.6146C22.2747 53.4429 24.0732 45.2702 25.8227 37.0965Z" fill="white" />
</svg>
    