<svg
  width="1416"
  height="920"
  viewBox="0 0 1416 920"
  fill="none"
  xmlns="http://www.w3.org/2000/svg"
>
<path
    d="M1367.17 -0.26358H1185.31C1184.27 0.93562 1183.16 2.09832 1181.97 3.21671L1112.48 68.7244L1112.43 68.7765H1274.5V713.143H139.5V68.7765L1112.48 68.7244L1190.6 -0.26358H48.8271C21.8595 -0.26358 0 20.3418 0 45.7623V782.184H1416V45.7623C1416 20.3418 1394.14 -0.26358 1367.17 -0.26358Z"
    fill="#464655"
  />
<path
    d="M0 874.238C0 899.658 21.8595 920.264 48.8271 920.264H512.689H903.308H1367.17C1394.13 920.264 1416 899.658 1416 874.238V782.186H0V874.238ZM708 816.705C728.225 816.705 744.62 832.162 744.62 851.224C744.62 870.286 728.225 885.742 708 885.742C687.775 885.742 671.38 870.286 671.38 851.224C671.38 832.162 687.775 816.705 708 816.705Z"
    fill="#BEC8DC"
  />
<path
    d="M708.23 893.131C728.581 893.131 745.079 875.058 745.079 852.765C745.079 830.472 728.581 812.399 708.23 812.399C687.878 812.399 671.38 830.472 671.38 852.765C671.38 875.058 687.878 893.131 708.23 893.131Z"
    fill="#96A5B9"
  />
<path d="M140 71H1276V710H140V71Z" fill="white" />
</svg>
