<svg
  width="1416"
  height="138"
  viewBox="0 0 1416 138"
  fill="none"
  xmlns="http://www.w3.org/2000/svg"
>
            <path
    d="M0 92.2379C0 117.658 21.8595 138.264 48.8271 138.264H512.689H903.308H1367.17C1394.13 138.264 1416 117.658 1416 92.2379V0.186218H0V92.2379ZM708 34.7049C728.225 34.7049 744.62 50.1616 744.62 69.2237C744.62 88.2857 728.225 103.742 708 103.742C687.775 103.742 671.38 88.2857 671.38 69.2237C671.38 50.1616 687.775 34.7049 708 34.7049Z"
    fill="#BEC8DC"
  />
            <path
    d="M708.23 111.131C728.581 111.131 745.079 93.0584 745.079 70.765C745.079 48.4715 728.581 30.3992 708.23 30.3992C687.878 30.3992 671.38 48.4715 671.38 70.765C671.38 93.0584 687.878 111.131 708.23 111.131Z"
    fill="#96A5B9"
  />
          </svg>
