<svg width="55" height="26" viewBox="0 0 55 26" fill="none" xmlns="http://www.w3.org/2000/svg">
    <path d="M53.8695 0.0250854H49.5382L28.3824 19.5299C28.1682 19.7212 27.8394 19.8338 27.5 19.8338C27.1522 19.8338 26.8319 19.7212 26.6113 19.5299L5.46184 0.0250854H1.12845C0.691502 0.0250854 0.296978 0.202487 0.112443 0.486328C-0.0784558 0.770169 -0.0233074 1.108 0.239708 1.35173L26.6155 25.6664C26.8361 25.8593 27.1564 25.9749 27.5043 25.9749C27.8436 25.9749 28.1724 25.8593 28.3866 25.6664L54.7582 1.35019C55.0297 1.108 55.0721 0.768626 54.8812 0.484785C54.7009 0.202487 54.3022 0.0250854 53.8695 0.0250854Z" fill="#060137" />
</svg>
    