<svg width="688" height="688" viewBox="0 0 688 688" fill="none" xmlns="http://www.w3.org/2000/svg">
    <g clip-path="url(#clip0_43_558)">
        <rect x="22" y="117" width="656" height="392" fill="white" />
        <path d="M664.276 106.758H575.914C575.41 107.376 574.868 107.976 574.292 108.552L540.526 142.318L540.501 142.345H652.413V474.482H35.5865V142.345L540.526 142.318L578.484 106.758H23.7239C10.621 106.758 0 117.379 0 130.482V510.069H688V130.482C688 117.379 677.378 106.758 664.276 106.758Z" fill="#464655" />
        <path d="M0 557.518C0 570.621 10.621 581.242 23.7239 581.242H249.103H438.896H664.275C677.376 581.242 687.999 570.621 687.999 557.518V510.07H0V557.518ZM344 527.863C353.827 527.863 361.793 535.83 361.793 545.655C361.793 555.481 353.827 563.448 344 563.448C334.173 563.448 326.207 555.481 326.207 545.655C326.207 535.83 334.173 527.863 344 527.863Z" fill="#BEC8DC" />
        <path d="M238.724 664.276H449.276L441.863 604.966H246.137L238.724 664.276Z" fill="#AFBBD0" />
        <path d="M237.242 664.276C230.691 664.276 225.379 669.588 225.379 676.139C225.379 682.69 230.691 688.001 237.242 688.001H450.76C457.31 688.001 462.622 682.69 462.622 676.139C462.622 669.588 457.31 664.276 450.76 664.276H449.277H238.725H237.242Z" fill="#BEC8DC" />
        <path d="M246.137 604.966H441.863L438.897 581.242H249.103L246.137 604.966Z" fill="#96A5B9" />
        <path d="M344 563.448C353.827 563.448 361.793 555.482 361.793 545.655C361.793 535.829 353.827 527.863 344 527.863C334.173 527.863 326.207 535.829 326.207 545.655C326.207 555.482 334.173 563.448 344 563.448Z" fill="#96A5B9" />
        <g clip-path="url(#clip1_43_558)">
            <path d="M373.6 308.298L333.672 283.343C331.963 282.275 329.808 282.218 328.045 283.195C326.282 284.173 325.188 286.03 325.188 288.045V337.955C325.188 339.971 326.282 341.828 328.045 342.805C328.883 343.269 329.808 343.5 330.733 343.5C331.754 343.5 332.775 343.218 333.672 342.657L373.599 317.703C375.221 316.69 376.206 314.912 376.206 313C376.206 311.088 375.221 309.311 373.6 308.298Z" fill="#060137" />
            <path d="M347 252C313.365 252 286 279.365 286 313C286 346.635 313.365 374 347 374C380.635 374 408 346.635 408 313C408 279.365 380.635 252 347 252ZM347 362.909C319.48 362.909 297.091 340.52 297.091 313C297.091 285.48 319.48 263.091 347 263.091C374.52 263.091 396.909 285.48 396.909 313C396.909 340.52 374.52 362.909 347 362.909Z" fill="#060137" />
        </g>
    </g>
    <defs>
        <clipPath id="clip0_43_558">
            <rect width="688" height="688" fill="white" />
        </clipPath>
        <clipPath id="clip1_43_558">
            <rect width="122" height="122" fill="white" transform="translate(286 252)" />
        </clipPath>
    </defs>
</svg>
    