<svg xmlns="http://www.w3.org/2000/svg" width="870" height="803" fill="none" style=""><rect id="backgroundrect" width="100%" height="100%" x="0" y="0" fill="none" stroke="none"/>
 <defs>
  <clipPath id="clip0_0_1">
   <rect id="svg_1" x="-8" y="283" fill="white" height="160" width="199"/>
  </clipPath>
  <clipPath id="clip1_0_1">
   <rect id="svg_2" x="718" y="560" fill="white" height="93" width="99"/>
  </clipPath>
  <clipPath id="clip2_0_1">
   <rect id="svg_3" x="504" y="134" fill="white" height="135" width="144"/>
  </clipPath>
 </defs>
 <g style="" class="currentLayer">
  <title>Layer 1</title>
  
   <path id="svg_4" stroke-dasharray="10 10" stroke-linecap="square" stroke-width="3" stroke-opacity="0.3" stroke="black" d="m-115,511.5c46.8333,-0.167 145.7,-14.3 166.5,-69.5c20.8,-55.2 97,-125 132.5,-153c49.333,-85 199.286,-199 219,-127c19.714,72 -143.667,73.333 -236,46.5c-42.833,-13 -125.9,-49.5 -115.5,-91.5c10.4,-42 57.667,-93.8333 80,-114.5" class=""/>
   <g id="svg_5" clip-path="url(#clip0_0_1)" class="">
    <path id="svg_6" fill="#24D8F8" d="m190.806,290.344c0,1.354 0,2.708 0,4.062c-11.952,47.159 -23.936,94.346 -35.952,141.563c-2.261,2.183 -5.046,2.756 -8.357,1.718c-16.785,-9.715 -33.628,-19.35 -50.527,-28.906c-10.213,-6.191 -20.577,-12.232 -31.094,-18.125c-0.051,-0.231 0.014,-0.439 0.194,-0.625c40.767,-32.881 81.384,-65.85 121.849,-98.906c-0.259,-0.208 -0.518,-0.208 -0.777,0c-48.915,29.818 -97.888,59.558 -146.918,89.219c-14.987,-5.712 -29.886,-11.598 -44.698,-17.657c-1.131,-0.629 -2.038,-1.41 -2.72,-2.343c0,-1.25 0,-2.5 0,-3.75c0.914,-1.417 2.339,-2.407 4.275,-2.969c61.586,-21.685 123.125,-43.456 184.619,-65.313c4.136,-1.721 7.504,-1.043 10.106,2.032z" clip-rule="evenodd" fill-rule="evenodd" opacity="0.998"/>
    <path id="svg_7" fill="#00BFF0" d="m64.876,390.656c-0.281,0.131 -0.475,0.339 -0.583,0.625c-3.231,15.645 -6.535,31.27 -9.911,46.875c-2.312,-0.871 -3.672,-2.329 -4.081,-4.375c-3.693,-17.816 -7.386,-35.629 -11.077,-53.437c49.03,-29.661 98.003,-59.401 146.918,-89.219c0.259,-0.208 0.518,-0.208 0.777,0c-40.465,33.056 -81.082,66.025 -121.849,98.906c-0.18,0.186 -0.245,0.394 -0.194,0.625z" clip-rule="evenodd" fill-rule="evenodd"/>
    <path id="svg_8" fill="#009AE4" d="m64.876,390.656c10.517,5.893 20.881,11.934 31.094,18.125c-11.982,9.581 -24.031,19.113 -36.147,28.594c-1.704,0.69 -3.518,0.95 -5.441,0.781c3.376,-15.605 6.68,-31.23 9.911,-46.875c0.108,-0.286 0.302,-0.494 0.583,-0.625z" clip-rule="evenodd" fill-rule="evenodd" opacity="0.994"/>
   </g>
   
    <path id="svg_9" stroke-dasharray="10 10" stroke-linecap="square" stroke-width="3" stroke-opacity="0.3" stroke="black" d="m770.5,800c-7.17,-8.5 -71.5,-96 -22,-152.5c24.05,-27.457 58.5,-78 60.5,-80c2,-2 27,-47.5 64.5,-35.5" class=""/>
    <g id="svg_10" clip-path="url(#clip1_0_1)" class="">
     <path id="svg_11" fill="#24D8F8" d="m816.9,564.269c0,0.787 0,1.574 0,2.361c-5.94,27.411 -11.9,54.838 -17.88,82.283c-1.13,1.269 -2.51,1.602 -4.16,0.999c-8.35,-5.647 -16.73,-11.247 -25.14,-16.802c-5.08,-3.598 -10.23,-7.11 -15.47,-10.535c-0.02,-0.134 0.01,-0.255 0.1,-0.363c20.28,-19.112 40.49,-38.276 60.62,-57.489c-0.13,-0.121 -0.26,-0.121 -0.39,0c-24.33,17.332 -48.69,34.618 -73.09,51.858c-7.45,-3.32 -14.86,-6.741 -22.23,-10.263c-0.57,-0.366 -1.02,-0.82 -1.36,-1.362c0,-0.727 0,-1.453 0,-2.18c0.46,-0.823 1.17,-1.399 2.13,-1.725c30.64,-12.605 61.25,-25.259 91.85,-37.963c2.05,-1 3.73,-0.607 5.02,1.181z" clip-rule="evenodd" fill-rule="evenodd" opacity="0.998"/>
     <path id="svg_12" fill="#00BFF0" d="m754.25,622.575c-0.13,0.076 -0.23,0.197 -0.29,0.363c-1.6,9.094 -3.25,18.176 -4.93,27.247c-1.15,-0.507 -1.82,-1.354 -2.03,-2.543c-1.83,-10.356 -3.67,-20.71 -5.51,-31.061c24.4,-17.24 48.76,-34.526 73.09,-51.858c0.13,-0.121 0.26,-0.121 0.39,0c-20.13,19.213 -40.34,38.377 -60.62,57.489c-0.09,0.108 -0.12,0.229 -0.1,0.363z" clip-rule="evenodd" fill-rule="evenodd"/>
     <path id="svg_13" fill="#009AE4" d="m754.25,622.575c5.24,3.425 10.39,6.937 15.47,10.535c-5.96,5.569 -11.95,11.109 -17.98,16.62c-0.85,0.402 -1.75,0.553 -2.71,0.455c1.68,-9.071 3.33,-18.153 4.93,-27.247c0.06,-0.166 0.16,-0.287 0.29,-0.363z" clip-rule="evenodd" fill-rule="evenodd" opacity="0.994"/>
    </g>
    
    
   
  
 </g>
</svg>