<svg width="476" height="803" xmlns="http://www.w3.org/2000/svg" fill="none">
 <defs>
  <clipPath id="clip0_0_1">
   <rect id="svg_1" x="109" y="283" fill="white" height="160" width="199"/>
  </clipPath>
  <clipPath id="clip1_0_1">
   <rect id="svg_2" x="1285" y="560" fill="white" height="93" width="99"/>
  </clipPath>
  <clipPath id="clip2_0_1">
   <rect id="svg_3" x="1071" y="134" fill="white" height="135" width="144"/>
  </clipPath>
 </defs>
 <g>
  <title>Layer 1</title>
  <path id="svg_4" stroke-dasharray="10 10" stroke-linecap="square" stroke-width="3" stroke-opacity="0.3" stroke="black" d="m-155,468.5c46.8333,-0.167 145.7,-14.3 166.5,-69.5c20.8,-55.2 97,-125 132.5,-153c49.333,-85 199.286,-199 219,-127c19.714,72 -143.667,73.333 -236,46.5c-42.833,-13 -125.9,-49.5 -115.5,-91.5c10.4,-42 57.667,-93.8333 80,-114.5"/>
  <path stroke="null" id="svg_6" fill="#24D8F8" d="m121.806,263.4562c0,0.48989 0,0.97978 0,1.46967c-4.32434,17.06255 -8.66026,34.13524 -13.00776,51.21877c-0.81805,0.78983 -1.82569,0.99715 -3.02364,0.62159c-6.07296,-3.51497 -12.16691,-7.00101 -18.28113,-10.45845c-3.69516,-2.23996 -7.44494,-4.42565 -11.25009,-6.55779c-0.01845,-0.08358 0.00507,-0.15883 0.07019,-0.22613c14.74987,-11.89664 29.44547,-23.82513 44.08607,-35.78509c-0.09371,-0.07526 -0.18742,-0.07526 -0.28113,0c-17.69789,10.78842 -35.41676,21.54862 -53.15626,32.28024c-5.42243,-2.06665 -10.81303,-4.19626 -16.17214,-6.38846c-0.40921,-0.22758 -0.73737,-0.51015 -0.98412,-0.84772c0,-0.45226 0,-0.90452 0,-1.35678c0.33069,-0.51268 0.84627,-0.87087 1.54673,-1.07421c22.28237,-7.84583 44.54774,-15.72277 66.79682,-23.63083c1.49644,-0.62267 2.71502,-0.37737 3.65644,0.7352z" clip-rule="evenodd" fill-rule="evenodd" opacity="0.998"/>
  <path stroke="null" id="svg_7" fill="#00BFF0" d="m76.24339,299.74999c-0.10167,0.0474 -0.17186,0.12265 -0.21093,0.22613c-1.16901,5.6605 -2.36442,11.31377 -3.58589,16.9598c-0.8365,-0.31514 -1.32856,-0.84265 -1.47654,-1.58291c-1.33616,-6.44599 -2.67232,-12.89089 -4.00776,-19.33399c17.7395,-10.73162 35.45837,-21.49182 53.15626,-32.28024c0.09371,-0.07526 0.18742,-0.07526 0.28113,0c-14.6406,11.95996 -29.3362,23.88844 -44.08607,35.78509c-0.06513,0.0673 -0.08864,0.14255 -0.07019,0.22613z" clip-rule="evenodd" fill-rule="evenodd"/>
  <path stroke="null" id="svg_8" fill="#009AE4" d="m76.24339,299.74999c3.80515,2.13214 7.55493,4.31783 11.25009,6.55779c-4.3352,3.46649 -8.69463,6.91526 -13.07831,10.34557c-0.61652,0.24965 -1.27284,0.34372 -1.9686,0.28257c1.22147,-5.64603 2.41688,-11.2993 3.58589,-16.9598c0.03908,-0.10348 0.10927,-0.17873 0.21093,-0.22613z" clip-rule="evenodd" fill-rule="evenodd" opacity="0.994"/>
  <path id="svg_9" stroke-dasharray="10 10" stroke-linecap="square" stroke-width="3" stroke-opacity="0.3" stroke="black" d="m371.5,810c-7.17,-8.5 -71.5,-96 -22,-152.5c24.05,-27.457 58.5,-78 60.5,-80c2,-2 27,-47.5 64.5,-35.5"/>
  <g id="svg_20">
   <path stroke="null" id="svg_11" fill="#24D8F8" d="m418.9,574.269c0,0.787 0,1.574 0,2.361c-5.94,27.411 -11.9,54.838 -17.88,82.283c-1.13,1.269 -2.51,1.602 -4.16,0.999c-8.35,-5.647 -16.73,-11.247 -25.14,-16.802c-5.08,-3.598 -10.23,-7.11 -15.47,-10.535c-0.02,-0.134 0.01,-0.255 0.1,-0.363c20.28,-19.112 40.49,-38.276 60.62,-57.489c-0.13,-0.121 -0.26,-0.121 -0.39,0c-24.33,17.332 -48.69,34.618 -73.09,51.858c-7.45,-3.32 -14.86,-6.741 -22.23,-10.263c-0.57,-0.366 -1.02,-0.82 -1.36,-1.362c0,-0.727 0,-1.453 0,-2.18c0.46,-0.823 1.17,-1.399 2.13,-1.725c30.64,-12.605 61.25,-25.259 91.85,-37.963c2.05,-1 3.73,-0.607 5.02,1.181z" clip-rule="evenodd" fill-rule="evenodd" opacity="0.998"/>
   <path id="svg_12" fill="#00BFF0" d="m356.25,632.575c-0.13,0.076 -0.23,0.197 -0.29,0.363c-1.6,9.094 -3.25,18.176 -4.93,27.247c-1.15,-0.507 -1.82,-1.354 -2.03,-2.543c-1.83,-10.356 -3.67,-20.71 -5.51,-31.061c24.4,-17.24 48.76,-34.526 73.09,-51.858c0.13,-0.121 0.26,-0.121 0.39,0c-20.13,19.213 -40.34,38.377 -60.62,57.489c-0.09,0.108 -0.12,0.229 -0.1,0.363z" clip-rule="evenodd" fill-rule="evenodd"/>
   <path id="svg_13" fill="#009AE4" d="m356.25,632.575c5.24,3.425 10.39,6.937 15.47,10.535c-5.96,5.569 -11.95,11.109 -17.98,16.62c-0.85,0.402 -1.75,0.553 -2.71,0.455c1.68,-9.071 3.33,-18.153 4.93,-27.247c0.06,-0.166 0.16,-0.287 0.29,-0.363z" clip-rule="evenodd" fill-rule="evenodd" opacity="0.994"/>
  </g>
 </g>
</svg>