<svg width="145" height="154" viewBox="0 0 145 154" fill="none" xmlns="http://www.w3.org/2000/svg">
    <rect x="75" width="70" height="70" rx="15" fill="#060137"/>
    <rect x="75" y="75" width="70" height="70" rx="15" fill="#2BA84A"/>
    <rect width="70" height="70" rx="15" fill="#060137"/>
    <rect y="75" width="70" height="70" rx="15" fill="#060137"/>
    <path d="M25.92 104.01C27.1333 101.887 28.91 100.153 31.25 98.81C33.59 97.4667 36.255 96.795 39.245 96.795C42.4517 96.795 45.3333 97.5533 47.89 99.07C50.4467 100.587 52.4617 102.732 53.935 105.505C55.4083 108.235 56.145 111.42 56.145 115.06C56.145 118.657 55.4083 121.863 53.935 124.68C52.4617 127.497 50.425 129.685 47.825 131.245C45.2683 132.805 42.4083 133.585 39.245 133.585C36.1683 133.585 33.46 132.913 31.12 131.57C28.8233 130.227 27.09 128.515 25.92 126.435V133H20.005V84.9H25.92V104.01ZM50.1 115.06C50.1 112.373 49.5583 110.033 48.475 108.04C47.3917 106.047 45.9183 104.53 44.055 103.49C42.235 102.45 40.22 101.93 38.01 101.93C35.8433 101.93 33.8283 102.472 31.965 103.555C30.145 104.595 28.6717 106.133 27.545 108.17C26.4617 110.163 25.92 112.482 25.92 115.125C25.92 117.812 26.4617 120.173 27.545 122.21C28.6717 124.203 30.145 125.742 31.965 126.825C33.8283 127.865 35.8433 128.385 38.01 128.385C40.22 128.385 42.235 127.865 44.055 126.825C45.9183 125.742 47.3917 124.203 48.475 122.21C49.5583 120.173 50.1 117.79 50.1 115.06Z" fill="white"/>
    <path d="M90.795 35.06C90.795 31.42 91.5317 28.235 93.005 25.505C94.4783 22.7317 96.4933 20.5867 99.05 19.07C101.65 17.5533 104.532 16.795 107.695 16.795C110.815 16.795 113.523 17.4667 115.82 18.81C118.117 20.1533 119.828 21.8433 120.955 23.88V17.38H126.935V53H120.955V46.37C119.785 48.45 118.03 50.1833 115.69 51.57C113.393 52.9133 110.707 53.585 107.63 53.585C104.467 53.585 101.607 52.805 99.05 51.245C96.4933 49.685 94.4783 47.4967 93.005 44.68C91.5317 41.8633 90.795 38.6567 90.795 35.06ZM120.955 35.125C120.955 32.4383 120.413 30.0983 119.33 28.105C118.247 26.1117 116.773 24.595 114.91 23.555C113.09 22.4717 111.075 21.93 108.865 21.93C106.655 21.93 104.64 22.45 102.82 23.49C101 24.53 99.5483 26.0467 98.465 28.04C97.3817 30.0333 96.84 32.3733 96.84 35.06C96.84 37.79 97.3817 40.1733 98.465 42.21C99.5483 44.2033 101 45.7417 102.82 46.825C104.64 47.865 106.655 48.385 108.865 48.385C111.075 48.385 113.09 47.865 114.91 46.825C116.773 45.7417 118.247 44.2033 119.33 42.21C120.413 40.1733 120.955 37.8117 120.955 35.125Z" fill="white"/>
    <path d="M110.615 127.585C107.885 127.585 105.437 127.13 103.27 126.22C101.103 125.267 99.3917 123.967 98.135 122.32C96.8783 120.63 96.185 118.702 96.055 116.535H102.165C102.338 118.312 103.162 119.763 104.635 120.89C106.152 122.017 108.123 122.58 110.55 122.58C112.803 122.58 114.58 122.082 115.88 121.085C117.18 120.088 117.83 118.832 117.83 117.315C117.83 115.755 117.137 114.607 115.75 113.87C114.363 113.09 112.218 112.332 109.315 111.595C106.672 110.902 104.505 110.208 102.815 109.515C101.168 108.778 99.7383 107.717 98.525 106.33C97.355 104.9 96.77 103.037 96.77 100.74C96.77 98.92 97.3117 97.2517 98.395 95.735C99.4783 94.2183 101.017 93.0267 103.01 92.16C105.003 91.25 107.278 90.795 109.835 90.795C113.778 90.795 116.963 91.7917 119.39 93.785C121.817 95.7783 123.117 98.5083 123.29 101.975H117.375C117.245 100.112 116.487 98.6167 115.1 97.49C113.757 96.3633 111.937 95.8 109.64 95.8C107.517 95.8 105.827 96.255 104.57 97.165C103.313 98.075 102.685 99.2667 102.685 100.74C102.685 101.91 103.053 102.885 103.79 103.665C104.57 104.402 105.523 105.008 106.65 105.485C107.82 105.918 109.423 106.417 111.46 106.98C114.017 107.673 116.097 108.367 117.7 109.06C119.303 109.71 120.668 110.707 121.795 112.05C122.965 113.393 123.572 115.148 123.615 117.315C123.615 119.265 123.073 121.02 121.99 122.58C120.907 124.14 119.368 125.375 117.375 126.285C115.425 127.152 113.172 127.585 110.615 127.585Z" fill="white"/>
    <path d="M31.92 53.19H47.78V58H26.005V12.695H31.92V53.19Z" fill="white"/>
</svg>
