<svg width="1440" height="800" viewBox="0 0 1440 800" fill="none" xmlns="http://www.w3.org/2000/svg">
    <g clip-path="url(#clip0_47_1607)">
        <path d="M1440 0H0V800H1440V0Z" fill="white" />
        <path d="M1008.29 572.95L1096.63 521.95V419.95L1008.29 368.95L919.95 419.95V521.95M1008.29 572.95L919.95 521.95M1008.29 572.95V674.95M919.95 521.95L831.61 572.95V674.95L919.95 725.95M1008.29 674.95L919.95 725.95M1008.29 674.95L1096.63 725.95V827.95L1008.29 878.95L919.95 827.95V725.95M1449.97 521.95V419.95L1361.64 368.95L1273.3 419.95V521.95M1449.97 521.95L1361.64 572.95M1449.97 521.95L1538.31 572.95V674.95L1449.97 725.95L1361.64 674.95M1361.64 572.95L1273.3 521.95M1361.64 572.95V674.95M1273.3 521.95L1184.96 572.95V674.95L1273.3 725.95L1361.64 674.95M389.93 -90.05L478.27 -39.05V62.95L389.93 113.95L301.59 62.95V-39.05L389.93 -90.05ZM478.27 674.95L566.6 725.95V827.95L478.27 878.95L389.93 827.95V725.95L478.27 674.95ZM743.28 -90.05L831.61 -39.05V62.95L743.28 113.95L654.94 62.95V-39.05L743.28 -90.05ZM1184.96 62.95L1273.3 113.95V215.95L1184.96 266.95L1096.63 215.95V113.95L1184.96 62.95ZM1538.31 62.95L1626.65 113.95V215.95L1538.31 266.95L1449.97 215.95V113.95L1538.31 62.95Z" stroke="#2BA84A" stroke-opacity="0.17" stroke-width="2" />
        <path d="M379.73 -90.05C379.73 -87.3448 380.805 -84.7504 382.717 -82.8375C384.63 -80.9246 387.225 -79.85 389.93 -79.85C392.635 -79.85 395.23 -80.9246 397.142 -82.8375C399.055 -84.7504 400.13 -87.3448 400.13 -90.05C400.13 -92.7552 399.055 -95.3496 397.142 -97.2625C395.23 -99.1754 392.635 -100.25 389.93 -100.25C387.225 -100.25 384.63 -99.1754 382.717 -97.2625C380.805 -95.3496 379.73 -92.7552 379.73 -90.05ZM468.07 -39.05C468.07 -37.7105 468.334 -36.3842 468.846 -35.1466C469.359 -33.9091 470.11 -32.7847 471.058 -31.8375C472.005 -30.8904 473.129 -30.139 474.367 -29.6264C475.604 -29.1138 476.931 -28.85 478.27 -28.85C479.609 -28.85 480.936 -29.1138 482.173 -29.6264C483.411 -30.139 484.535 -30.8904 485.482 -31.8375C486.43 -32.7847 487.181 -33.9091 487.694 -35.1466C488.206 -36.3842 488.47 -37.7105 488.47 -39.05C488.47 -40.3895 488.206 -41.7159 487.694 -42.9534C487.181 -44.1909 486.43 -45.3153 485.482 -46.2625C484.535 -47.2096 483.411 -47.961 482.173 -48.4736C480.936 -48.9862 479.609 -49.25 478.27 -49.25C476.931 -49.25 475.604 -48.9862 474.367 -48.4736C473.129 -47.961 472.005 -47.2096 471.058 -46.2625C470.11 -45.3153 469.359 -44.1909 468.846 -42.9534C468.334 -41.7159 468.07 -40.3895 468.07 -39.05ZM468.07 62.95C468.07 64.2895 468.334 65.6158 468.846 66.8534C469.359 68.0909 470.11 69.2153 471.058 70.1625C472.005 71.1096 473.129 71.861 474.367 72.3736C475.604 72.8862 476.931 73.15 478.27 73.15C479.609 73.15 480.936 72.8862 482.173 72.3736C483.411 71.861 484.535 71.1096 485.482 70.1625C486.43 69.2153 487.181 68.0909 487.694 66.8534C488.206 65.6158 488.47 64.2895 488.47 62.95C488.47 61.6105 488.206 60.2841 487.694 59.0466C487.181 57.8091 486.43 56.6847 485.482 55.7375C484.535 54.7904 483.411 54.039 482.173 53.5264C480.936 53.0138 479.609 52.75 478.27 52.75C476.931 52.75 475.604 53.0138 474.367 53.5264C473.129 54.039 472.005 54.7904 471.058 55.7375C470.11 56.6847 469.359 57.8091 468.846 59.0466C468.334 60.2841 468.07 61.6105 468.07 62.95ZM379.73 113.95C379.73 116.655 380.805 119.25 382.717 121.162C384.63 123.075 387.225 124.15 389.93 124.15C392.635 124.15 395.23 123.075 397.142 121.162C399.055 119.25 400.13 116.655 400.13 113.95C400.13 111.245 399.055 108.65 397.142 106.738C395.23 104.825 392.635 103.75 389.93 103.75C387.225 103.75 384.63 104.825 382.717 106.738C380.805 108.65 379.73 111.245 379.73 113.95ZM291.39 62.95C291.39 64.2895 291.654 65.6158 292.166 66.8534C292.679 68.0909 293.43 69.2153 294.378 70.1625C295.325 71.1096 296.449 71.861 297.687 72.3736C298.924 72.8862 300.251 73.15 301.59 73.15C302.929 73.15 304.256 72.8862 305.493 72.3736C306.731 71.861 307.855 71.1096 308.802 70.1625C309.75 69.2153 310.501 68.0909 311.014 66.8534C311.526 65.6158 311.79 64.2895 311.79 62.95C311.79 61.6105 311.526 60.2841 311.014 59.0466C310.501 57.8091 309.75 56.6847 308.802 55.7375C307.855 54.7904 306.731 54.039 305.493 53.5264C304.256 53.0138 302.929 52.75 301.59 52.75C300.251 52.75 298.924 53.0138 297.687 53.5264C296.449 54.039 295.325 54.7904 294.378 55.7375C293.43 56.6847 292.679 57.8091 292.166 59.0466C291.654 60.2841 291.39 61.6105 291.39 62.95ZM291.39 -39.05C291.39 -37.7105 291.654 -36.3842 292.166 -35.1466C292.679 -33.9091 293.43 -32.7847 294.378 -31.8375C295.325 -30.8904 296.449 -30.139 297.687 -29.6264C298.924 -29.1138 300.251 -28.85 301.59 -28.85C302.929 -28.85 304.256 -29.1138 305.493 -29.6264C306.731 -30.139 307.855 -30.8904 308.802 -31.8375C309.75 -32.7847 310.501 -33.9091 311.014 -35.1466C311.526 -36.3842 311.79 -37.7105 311.79 -39.05C311.79 -40.3895 311.526 -41.7159 311.014 -42.9534C310.501 -44.1909 309.75 -45.3153 308.802 -46.2625C307.855 -47.2096 306.731 -47.961 305.493 -48.4736C304.256 -48.9862 302.929 -49.25 301.59 -49.25C300.251 -49.25 298.924 -48.9862 297.687 -48.4736C296.449 -47.961 295.325 -47.2096 294.378 -46.2625C293.43 -45.3153 292.679 -44.1909 292.166 -42.9534C291.654 -41.7159 291.39 -40.3895 291.39 -39.05ZM468.07 674.95C468.07 676.289 468.334 677.616 468.846 678.853C469.359 680.091 470.11 681.215 471.058 682.162C472.005 683.11 473.129 683.861 474.367 684.374C475.604 684.886 476.931 685.15 478.27 685.15C479.609 685.15 480.936 684.886 482.173 684.374C483.411 683.861 484.535 683.11 485.482 682.162C486.43 681.215 487.181 680.091 487.694 678.853C488.206 677.616 488.47 676.289 488.47 674.95C488.47 673.611 488.206 672.284 487.694 671.047C487.181 669.809 486.43 668.685 485.482 667.737C484.535 666.79 483.411 666.039 482.173 665.526C480.936 665.014 479.609 664.75 478.27 664.75C476.931 664.75 475.604 665.014 474.367 665.526C473.129 666.039 472.005 666.79 471.058 667.737C470.11 668.685 469.359 669.809 468.846 671.047C468.334 672.284 468.07 673.611 468.07 674.95ZM556.4 725.95C556.4 728.655 557.475 731.25 559.388 733.162C561.3 735.075 563.895 736.15 566.6 736.15C569.305 736.15 571.9 735.075 573.812 733.162C575.725 731.25 576.8 728.655 576.8 725.95C576.8 723.245 575.725 720.65 573.812 718.737C571.9 716.825 569.305 715.75 566.6 715.75C563.895 715.75 561.3 716.825 559.388 718.737C557.475 720.65 556.4 723.245 556.4 725.95ZM556.4 827.95C556.4 830.655 557.475 833.25 559.388 835.162C561.3 837.075 563.895 838.15 566.6 838.15C569.305 838.15 571.9 837.075 573.812 835.162C575.725 833.25 576.8 830.655 576.8 827.95C576.8 825.245 575.725 822.65 573.812 820.737C571.9 818.825 569.305 817.75 566.6 817.75C563.895 817.75 561.3 818.825 559.388 820.737C557.475 822.65 556.4 825.245 556.4 827.95ZM468.07 878.95C468.07 880.289 468.334 881.616 468.846 882.853C469.359 884.091 470.11 885.215 471.058 886.162C472.005 887.11 473.129 887.861 474.367 888.374C475.604 888.886 476.931 889.15 478.27 889.15C479.609 889.15 480.936 888.886 482.173 888.374C483.411 887.861 484.535 887.11 485.482 886.162C486.43 885.215 487.181 884.091 487.694 882.853C488.206 881.616 488.47 880.289 488.47 878.95C488.47 877.611 488.206 876.284 487.694 875.047C487.181 873.809 486.43 872.685 485.482 871.737C484.535 870.79 483.411 870.039 482.173 869.526C480.936 869.014 479.609 868.75 478.27 868.75C476.931 868.75 475.604 869.014 474.367 869.526C473.129 870.039 472.005 870.79 471.058 871.737C470.11 872.685 469.359 873.809 468.846 875.047C468.334 876.284 468.07 877.611 468.07 878.95ZM379.73 827.95C379.73 830.655 380.805 833.25 382.717 835.162C384.63 837.075 387.225 838.15 389.93 838.15C392.635 838.15 395.23 837.075 397.142 835.162C399.055 833.25 400.13 830.655 400.13 827.95C400.13 825.245 399.055 822.65 397.142 820.737C395.23 818.825 392.635 817.75 389.93 817.75C387.225 817.75 384.63 818.825 382.717 820.737C380.805 822.65 379.73 825.245 379.73 827.95ZM379.73 725.95C379.73 728.655 380.805 731.25 382.717 733.162C384.63 735.075 387.225 736.15 389.93 736.15C392.635 736.15 395.23 735.075 397.142 733.162C399.055 731.25 400.13 728.655 400.13 725.95C400.13 723.245 399.055 720.65 397.142 718.737C395.23 716.825 392.635 715.75 389.93 715.75C387.225 715.75 384.63 716.825 382.717 718.737C380.805 720.65 379.73 723.245 379.73 725.95ZM733.08 -90.05C733.08 -87.3448 734.155 -84.7504 736.068 -82.8375C737.98 -80.9246 740.575 -79.85 743.28 -79.85C745.985 -79.85 748.58 -80.9246 750.492 -82.8375C752.405 -84.7504 753.48 -87.3448 753.48 -90.05C753.48 -92.7552 752.405 -95.3496 750.492 -97.2625C748.58 -99.1754 745.985 -100.25 743.28 -100.25C740.575 -100.25 737.98 -99.1754 736.068 -97.2625C734.155 -95.3496 733.08 -92.7552 733.08 -90.05ZM821.41 -39.05C821.41 -36.3448 822.485 -33.7504 824.398 -31.8375C826.31 -29.9246 828.905 -28.85 831.61 -28.85C834.315 -28.85 836.91 -29.9246 838.823 -31.8375C840.735 -33.7504 841.81 -36.3448 841.81 -39.05C841.81 -41.7552 840.735 -44.3496 838.823 -46.2625C836.91 -48.1754 834.315 -49.25 831.61 -49.25C828.905 -49.25 826.31 -48.1754 824.398 -46.2625C822.485 -44.3496 821.41 -41.7552 821.41 -39.05ZM821.41 62.95C821.41 65.6552 822.485 68.2496 824.398 70.1625C826.31 72.0754 828.905 73.15 831.61 73.15C834.315 73.15 836.91 72.0754 838.823 70.1625C840.735 68.2496 841.81 65.6552 841.81 62.95C841.81 60.2448 840.735 57.6504 838.823 55.7375C836.91 53.8246 834.315 52.75 831.61 52.75C828.905 52.75 826.31 53.8246 824.398 55.7375C822.485 57.6504 821.41 60.2448 821.41 62.95ZM733.08 113.95C733.08 116.655 734.155 119.25 736.068 121.162C737.98 123.075 740.575 124.15 743.28 124.15C745.985 124.15 748.58 123.075 750.492 121.162C752.405 119.25 753.48 116.655 753.48 113.95C753.48 111.245 752.405 108.65 750.492 106.738C748.58 104.825 745.985 103.75 743.28 103.75C740.575 103.75 737.98 104.825 736.068 106.738C734.155 108.65 733.08 111.245 733.08 113.95ZM644.74 62.95C644.74 65.6552 645.815 68.2496 647.728 70.1625C649.64 72.0754 652.235 73.15 654.94 73.15C657.645 73.15 660.24 72.0754 662.152 70.1625C664.065 68.2496 665.14 65.6552 665.14 62.95C665.14 60.2448 664.065 57.6504 662.152 55.7375C660.24 53.8246 657.645 52.75 654.94 52.75C652.235 52.75 649.64 53.8246 647.728 55.7375C645.815 57.6504 644.74 60.2448 644.74 62.95ZM644.74 -39.05C644.74 -36.3448 645.815 -33.7504 647.728 -31.8375C649.64 -29.9246 652.235 -28.85 654.94 -28.85C657.645 -28.85 660.24 -29.9246 662.152 -31.8375C664.065 -33.7504 665.14 -36.3448 665.14 -39.05C665.14 -41.7552 664.065 -44.3496 662.152 -46.2625C660.24 -48.1754 657.645 -49.25 654.94 -49.25C652.235 -49.25 649.64 -48.1754 647.728 -46.2625C645.815 -44.3496 644.74 -41.7552 644.74 -39.05ZM998.09 368.95C998.09 370.289 998.354 371.616 998.866 372.853C999.379 374.091 1000.13 375.215 1001.08 376.162C1002.02 377.11 1003.15 377.861 1004.39 378.374C1005.62 378.886 1006.95 379.15 1008.29 379.15C1009.63 379.15 1010.96 378.886 1012.19 378.374C1013.43 377.861 1014.56 377.11 1015.5 376.162C1016.45 375.215 1017.2 374.091 1017.71 372.853C1018.23 371.616 1018.49 370.289 1018.49 368.95C1018.49 367.611 1018.23 366.284 1017.71 365.047C1017.2 363.809 1016.45 362.685 1015.5 361.738C1014.56 360.79 1013.43 360.039 1012.19 359.526C1010.96 359.014 1009.63 358.75 1008.29 358.75C1006.95 358.75 1005.62 359.014 1004.39 359.526C1003.15 360.039 1002.02 360.79 1001.08 361.738C1000.13 362.685 999.379 363.809 998.866 365.047C998.354 366.284 998.09 367.611 998.09 368.95ZM1086.43 419.95C1086.43 422.655 1087.5 425.25 1089.42 427.162C1091.33 429.075 1093.92 430.15 1096.63 430.15C1099.34 430.15 1101.93 429.075 1103.84 427.162C1105.76 425.25 1106.83 422.655 1106.83 419.95C1106.83 417.245 1105.76 414.65 1103.84 412.738C1101.93 410.825 1099.34 409.75 1096.63 409.75C1093.92 409.75 1091.33 410.825 1089.42 412.738C1087.5 414.65 1086.43 417.245 1086.43 419.95ZM1086.43 521.95C1086.43 524.655 1087.5 527.25 1089.42 529.162C1091.33 531.075 1093.92 532.15 1096.63 532.15C1099.34 532.15 1101.93 531.075 1103.84 529.162C1105.76 527.25 1106.83 524.655 1106.83 521.95C1106.83 519.245 1105.76 516.65 1103.84 514.737C1101.93 512.825 1099.34 511.75 1096.63 511.75C1093.92 511.75 1091.33 512.825 1089.42 514.737C1087.5 516.65 1086.43 519.245 1086.43 521.95ZM998.09 572.95C998.09 574.289 998.354 575.616 998.866 576.853C999.379 578.091 1000.13 579.215 1001.08 580.162C1002.02 581.11 1003.15 581.861 1004.39 582.374C1005.62 582.886 1006.95 583.15 1008.29 583.15C1009.63 583.15 1010.96 582.886 1012.19 582.374C1013.43 581.861 1014.56 581.11 1015.5 580.162C1016.45 579.215 1017.2 578.091 1017.71 576.853C1018.23 575.616 1018.49 574.289 1018.49 572.95C1018.49 571.611 1018.23 570.284 1017.71 569.047C1017.2 567.809 1016.45 566.685 1015.5 565.737C1014.56 564.79 1013.43 564.039 1012.19 563.526C1010.96 563.014 1009.63 562.75 1008.29 562.75C1006.95 562.75 1005.62 563.014 1004.39 563.526C1003.15 564.039 1002.02 564.79 1001.08 565.737C1000.13 566.685 999.379 567.809 998.866 569.047C998.354 570.284 998.09 571.611 998.09 572.95ZM909.75 521.95C909.75 524.655 910.825 527.25 912.737 529.162C914.65 531.075 917.245 532.15 919.95 532.15C922.655 532.15 925.25 531.075 927.162 529.162C929.075 527.25 930.15 524.655 930.15 521.95C930.15 519.245 929.075 516.65 927.162 514.737C925.25 512.825 922.655 511.75 919.95 511.75C917.245 511.75 914.65 512.825 912.737 514.737C910.825 516.65 909.75 519.245 909.75 521.95ZM909.75 419.95C909.75 422.655 910.825 425.25 912.737 427.162C914.65 429.075 917.245 430.15 919.95 430.15C922.655 430.15 925.25 429.075 927.162 427.162C929.075 425.25 930.15 422.655 930.15 419.95C930.15 417.245 929.075 414.65 927.162 412.738C925.25 410.825 922.655 409.75 919.95 409.75C917.245 409.75 914.65 410.825 912.737 412.738C910.825 414.65 909.75 417.245 909.75 419.95ZM998.09 674.95C998.09 676.289 998.354 677.616 998.866 678.853C999.379 680.091 1000.13 681.215 1001.08 682.162C1002.02 683.11 1003.15 683.861 1004.39 684.374C1005.62 684.886 1006.95 685.15 1008.29 685.15C1009.63 685.15 1010.96 684.886 1012.19 684.374C1013.43 683.861 1014.56 683.11 1015.5 682.162C1016.45 681.215 1017.2 680.091 1017.71 678.853C1018.23 677.616 1018.49 676.289 1018.49 674.95C1018.49 673.611 1018.23 672.284 1017.71 671.047C1017.2 669.809 1016.45 668.685 1015.5 667.737C1014.56 666.79 1013.43 666.039 1012.19 665.526C1010.96 665.014 1009.63 664.75 1008.29 664.75C1006.95 664.75 1005.62 665.014 1004.39 665.526C1003.15 666.039 1002.02 666.79 1001.08 667.737C1000.13 668.685 999.379 669.809 998.866 671.047C998.354 672.284 998.09 673.611 998.09 674.95ZM909.75 725.95C909.75 728.655 910.825 731.25 912.737 733.162C914.65 735.075 917.245 736.15 919.95 736.15C922.655 736.15 925.25 735.075 927.162 733.162C929.075 731.25 930.15 728.655 930.15 725.95C930.15 723.245 929.075 720.65 927.162 718.737C925.25 716.825 922.655 715.75 919.95 715.75C917.245 715.75 914.65 716.825 912.737 718.737C910.825 720.65 909.75 723.245 909.75 725.95ZM821.41 674.95C821.41 677.655 822.485 680.25 824.398 682.162C826.31 684.075 828.905 685.15 831.61 685.15C834.315 685.15 836.91 684.075 838.823 682.162C840.735 680.25 841.81 677.655 841.81 674.95C841.81 672.245 840.735 669.65 838.823 667.737C836.91 665.825 834.315 664.75 831.61 664.75C828.905 664.75 826.31 665.825 824.398 667.737C822.485 669.65 821.41 672.245 821.41 674.95ZM821.41 572.95C821.41 575.655 822.485 578.25 824.398 580.162C826.31 582.075 828.905 583.15 831.61 583.15C834.315 583.15 836.91 582.075 838.823 580.162C840.735 578.25 841.81 575.655 841.81 572.95C841.81 570.245 840.735 567.65 838.823 565.737C836.91 563.825 834.315 562.75 831.61 562.75C828.905 562.75 826.31 563.825 824.398 565.737C822.485 567.65 821.41 570.245 821.41 572.95ZM1086.43 725.95C1086.43 728.655 1087.5 731.25 1089.42 733.162C1091.33 735.075 1093.92 736.15 1096.63 736.15C1099.34 736.15 1101.93 735.075 1103.84 733.162C1105.76 731.25 1106.83 728.655 1106.83 725.95C1106.83 723.245 1105.76 720.65 1103.84 718.737C1101.93 716.825 1099.34 715.75 1096.63 715.75C1093.92 715.75 1091.33 716.825 1089.42 718.737C1087.5 720.65 1086.43 723.245 1086.43 725.95ZM1086.43 827.95C1086.43 830.655 1087.5 833.25 1089.42 835.162C1091.33 837.075 1093.92 838.15 1096.63 838.15C1099.34 838.15 1101.93 837.075 1103.84 835.162C1105.76 833.25 1106.83 830.655 1106.83 827.95C1106.83 825.245 1105.76 822.65 1103.84 820.737C1101.93 818.825 1099.34 817.75 1096.63 817.75C1093.92 817.75 1091.33 818.825 1089.42 820.737C1087.5 822.65 1086.43 825.245 1086.43 827.95ZM998.09 878.95C998.09 880.289 998.354 881.616 998.866 882.853C999.379 884.091 1000.13 885.215 1001.08 886.162C1002.02 887.11 1003.15 887.861 1004.39 888.374C1005.62 888.886 1006.95 889.15 1008.29 889.15C1009.63 889.15 1010.96 888.886 1012.19 888.374C1013.43 887.861 1014.56 887.11 1015.5 886.162C1016.45 885.215 1017.2 884.091 1017.71 882.853C1018.23 881.616 1018.49 880.289 1018.49 878.95C1018.49 877.611 1018.23 876.284 1017.71 875.047C1017.2 873.809 1016.45 872.685 1015.5 871.737C1014.56 870.79 1013.43 870.039 1012.19 869.526C1010.96 869.014 1009.63 868.75 1008.29 868.75C1006.95 868.75 1005.62 869.014 1004.39 869.526C1003.15 870.039 1002.02 870.79 1001.08 871.737C1000.13 872.685 999.379 873.809 998.866 875.047C998.354 876.284 998.09 877.611 998.09 878.95ZM909.75 827.95C909.75 830.655 910.825 833.25 912.737 835.162C914.65 837.075 917.245 838.15 919.95 838.15C922.655 838.15 925.25 837.075 927.162 835.162C929.075 833.25 930.15 830.655 930.15 827.95C930.15 825.245 929.075 822.65 927.162 820.737C925.25 818.825 922.655 817.75 919.95 817.75C917.245 817.75 914.65 818.825 912.737 820.737C910.825 822.65 909.75 825.245 909.75 827.95ZM1174.76 62.95C1174.76 65.6552 1175.83 68.2496 1177.75 70.1625C1179.66 72.0754 1182.25 73.15 1184.96 73.15C1187.67 73.15 1190.26 72.0754 1192.17 70.1625C1194.09 68.2496 1195.16 65.6552 1195.16 62.95C1195.16 60.2448 1194.09 57.6504 1192.17 55.7375C1190.26 53.8246 1187.67 52.75 1184.96 52.75C1182.25 52.75 1179.66 53.8246 1177.75 55.7375C1175.83 57.6504 1174.76 60.2448 1174.76 62.95ZM1263.1 113.95C1263.1 116.655 1264.17 119.25 1266.09 121.162C1268 123.075 1270.59 124.15 1273.3 124.15C1276.01 124.15 1278.6 123.075 1280.51 121.162C1282.43 119.25 1283.5 116.655 1283.5 113.95C1283.5 111.245 1282.43 108.65 1280.51 106.738C1278.6 104.825 1276.01 103.75 1273.3 103.75C1270.59 103.75 1268 104.825 1266.09 106.738C1264.17 108.65 1263.1 111.245 1263.1 113.95ZM1263.1 215.95C1263.1 218.655 1264.17 221.25 1266.09 223.162C1268 225.075 1270.59 226.15 1273.3 226.15C1276.01 226.15 1278.6 225.075 1280.51 223.162C1282.43 221.25 1283.5 218.655 1283.5 215.95C1283.5 213.245 1282.43 210.65 1280.51 208.738C1278.6 206.825 1276.01 205.75 1273.3 205.75C1270.59 205.75 1268 206.825 1266.09 208.738C1264.17 210.65 1263.1 213.245 1263.1 215.95ZM1174.76 266.95C1174.76 269.655 1175.83 272.25 1177.75 274.162C1179.66 276.075 1182.25 277.15 1184.96 277.15C1187.67 277.15 1190.26 276.075 1192.17 274.162C1194.09 272.25 1195.16 269.655 1195.16 266.95C1195.16 264.245 1194.09 261.65 1192.17 259.738C1190.26 257.825 1187.67 256.75 1184.96 256.75C1182.25 256.75 1179.66 257.825 1177.75 259.738C1175.83 261.65 1174.76 264.245 1174.76 266.95ZM1086.43 215.95C1086.43 218.655 1087.5 221.25 1089.42 223.162C1091.33 225.075 1093.92 226.15 1096.63 226.15C1099.34 226.15 1101.93 225.075 1103.84 223.162C1105.76 221.25 1106.83 218.655 1106.83 215.95C1106.83 213.245 1105.76 210.65 1103.84 208.738C1101.93 206.825 1099.34 205.75 1096.63 205.75C1093.92 205.75 1091.33 206.825 1089.42 208.738C1087.5 210.65 1086.43 213.245 1086.43 215.95ZM1086.43 113.95C1086.43 116.655 1087.5 119.25 1089.42 121.162C1091.33 123.075 1093.92 124.15 1096.63 124.15C1099.34 124.15 1101.93 123.075 1103.84 121.162C1105.76 119.25 1106.83 116.655 1106.83 113.95C1106.83 111.245 1105.76 108.65 1103.84 106.738C1101.93 104.825 1099.34 103.75 1096.63 103.75C1093.92 103.75 1091.33 104.825 1089.42 106.738C1087.5 108.65 1086.43 111.245 1086.43 113.95ZM1351.44 368.95C1351.44 371.655 1352.51 374.25 1354.43 376.162C1356.34 378.075 1358.93 379.15 1361.64 379.15C1364.35 379.15 1366.94 378.075 1368.85 376.162C1370.77 374.25 1371.84 371.655 1371.84 368.95C1371.84 366.245 1370.77 363.65 1368.85 361.738C1366.94 359.825 1364.35 358.75 1361.64 358.75C1358.93 358.75 1356.34 359.825 1354.43 361.738C1352.51 363.65 1351.44 366.245 1351.44 368.95ZM1439.77 419.95C1439.77 422.655 1440.84 425.25 1442.76 427.162C1444.67 429.075 1447.26 430.15 1449.97 430.15C1452.68 430.15 1455.27 429.075 1457.18 427.162C1459.1 425.25 1460.17 422.655 1460.17 419.95C1460.17 417.245 1459.1 414.65 1457.18 412.738C1455.27 410.825 1452.68 409.75 1449.97 409.75C1447.26 409.75 1444.67 410.825 1442.76 412.738C1440.84 414.65 1439.77 417.245 1439.77 419.95ZM1439.77 521.95C1439.77 524.655 1440.84 527.25 1442.76 529.162C1444.67 531.075 1447.26 532.15 1449.97 532.15C1452.68 532.15 1455.27 531.075 1457.18 529.162C1459.1 527.25 1460.17 524.655 1460.17 521.95C1460.17 519.245 1459.1 516.65 1457.18 514.737C1455.27 512.825 1452.68 511.75 1449.97 511.75C1447.26 511.75 1444.67 512.825 1442.76 514.737C1440.84 516.65 1439.77 519.245 1439.77 521.95ZM1351.44 572.95C1351.44 575.655 1352.51 578.25 1354.43 580.162C1356.34 582.075 1358.93 583.15 1361.64 583.15C1364.35 583.15 1366.94 582.075 1368.85 580.162C1370.77 578.25 1371.84 575.655 1371.84 572.95C1371.84 570.245 1370.77 567.65 1368.85 565.737C1366.94 563.825 1364.35 562.75 1361.64 562.75C1358.93 562.75 1356.34 563.825 1354.43 565.737C1352.51 567.65 1351.44 570.245 1351.44 572.95ZM1263.1 521.95C1263.1 524.655 1264.17 527.25 1266.09 529.162C1268 531.075 1270.59 532.15 1273.3 532.15C1276.01 532.15 1278.6 531.075 1280.51 529.162C1282.43 527.25 1283.5 524.655 1283.5 521.95C1283.5 519.245 1282.43 516.65 1280.51 514.737C1278.6 512.825 1276.01 511.75 1273.3 511.75C1270.59 511.75 1268 512.825 1266.09 514.737C1264.17 516.65 1263.1 519.245 1263.1 521.95ZM1263.1 419.95C1263.1 422.655 1264.17 425.25 1266.09 427.162C1268 429.075 1270.59 430.15 1273.3 430.15C1276.01 430.15 1278.6 429.075 1280.51 427.162C1282.43 425.25 1283.5 422.655 1283.5 419.95C1283.5 417.245 1282.43 414.65 1280.51 412.738C1278.6 410.825 1276.01 409.75 1273.3 409.75C1270.59 409.75 1268 410.825 1266.09 412.738C1264.17 414.65 1263.1 417.245 1263.1 419.95ZM1351.44 674.95C1351.44 677.655 1352.51 680.25 1354.43 682.162C1356.34 684.075 1358.93 685.15 1361.64 685.15C1364.35 685.15 1366.94 684.075 1368.85 682.162C1370.77 680.25 1371.84 677.655 1371.84 674.95C1371.84 672.245 1370.77 669.65 1368.85 667.737C1366.94 665.825 1364.35 664.75 1361.64 664.75C1358.93 664.75 1356.34 665.825 1354.43 667.737C1352.51 669.65 1351.44 672.245 1351.44 674.95ZM1263.1 725.95C1263.1 728.655 1264.17 731.25 1266.09 733.162C1268 735.075 1270.59 736.15 1273.3 736.15C1276.01 736.15 1278.6 735.075 1280.51 733.162C1282.43 731.25 1283.5 728.655 1283.5 725.95C1283.5 723.245 1282.43 720.65 1280.51 718.737C1278.6 716.825 1276.01 715.75 1273.3 715.75C1270.59 715.75 1268 716.825 1266.09 718.737C1264.17 720.65 1263.1 723.245 1263.1 725.95ZM1174.76 674.95C1174.76 677.655 1175.83 680.25 1177.75 682.162C1179.66 684.075 1182.25 685.15 1184.96 685.15C1187.67 685.15 1190.26 684.075 1192.17 682.162C1194.09 680.25 1195.16 677.655 1195.16 674.95C1195.16 672.245 1194.09 669.65 1192.17 667.737C1190.26 665.825 1187.67 664.75 1184.96 664.75C1182.25 664.75 1179.66 665.825 1177.75 667.737C1175.83 669.65 1174.76 672.245 1174.76 674.95ZM1174.76 572.95C1174.76 575.655 1175.83 578.25 1177.75 580.162C1179.66 582.075 1182.25 583.15 1184.96 583.15C1187.67 583.15 1190.26 582.075 1192.17 580.162C1194.09 578.25 1195.16 575.655 1195.16 572.95C1195.16 570.245 1194.09 567.65 1192.17 565.737C1190.26 563.825 1187.67 562.75 1184.96 562.75C1182.25 562.75 1179.66 563.825 1177.75 565.737C1175.83 567.65 1174.76 570.245 1174.76 572.95ZM1528.11 62.95C1528.11 65.6552 1529.18 68.2496 1531.1 70.1625C1533.01 72.0754 1535.6 73.15 1538.31 73.15C1541.02 73.15 1543.61 72.0754 1545.52 70.1625C1547.44 68.2496 1548.51 65.6552 1548.51 62.95C1548.51 60.2448 1547.44 57.6504 1545.52 55.7375C1543.61 53.8246 1541.02 52.75 1538.31 52.75C1535.6 52.75 1533.01 53.8246 1531.1 55.7375C1529.18 57.6504 1528.11 60.2448 1528.11 62.95ZM1616.45 113.95C1616.45 116.655 1617.52 119.25 1619.44 121.162C1621.35 123.075 1623.94 124.15 1626.65 124.15C1629.36 124.15 1631.95 123.075 1633.86 121.162C1635.78 119.25 1636.85 116.655 1636.85 113.95C1636.85 111.245 1635.78 108.65 1633.86 106.738C1631.95 104.825 1629.36 103.75 1626.65 103.75C1623.94 103.75 1621.35 104.825 1619.44 106.738C1617.52 108.65 1616.45 111.245 1616.45 113.95ZM1616.45 215.95C1616.45 218.655 1617.52 221.25 1619.44 223.162C1621.35 225.075 1623.94 226.15 1626.65 226.15C1629.36 226.15 1631.95 225.075 1633.86 223.162C1635.78 221.25 1636.85 218.655 1636.85 215.95C1636.85 213.245 1635.78 210.65 1633.86 208.738C1631.95 206.825 1629.36 205.75 1626.65 205.75C1623.94 205.75 1621.35 206.825 1619.44 208.738C1617.52 210.65 1616.45 213.245 1616.45 215.95ZM1528.11 266.95C1528.11 269.655 1529.18 272.25 1531.1 274.162C1533.01 276.075 1535.6 277.15 1538.31 277.15C1541.02 277.15 1543.61 276.075 1545.52 274.162C1547.44 272.25 1548.51 269.655 1548.51 266.95C1548.51 264.245 1547.44 261.65 1545.52 259.738C1543.61 257.825 1541.02 256.75 1538.31 256.75C1535.6 256.75 1533.01 257.825 1531.1 259.738C1529.18 261.65 1528.11 264.245 1528.11 266.95ZM1439.77 215.95C1439.77 218.655 1440.84 221.25 1442.76 223.162C1444.67 225.075 1447.26 226.15 1449.97 226.15C1452.68 226.15 1455.27 225.075 1457.18 223.162C1459.1 221.25 1460.17 218.655 1460.17 215.95C1460.17 213.245 1459.1 210.65 1457.18 208.738C1455.27 206.825 1452.68 205.75 1449.97 205.75C1447.26 205.75 1444.67 206.825 1442.76 208.738C1440.84 210.65 1439.77 213.245 1439.77 215.95ZM1439.77 113.95C1439.77 116.655 1440.84 119.25 1442.76 121.162C1444.67 123.075 1447.26 124.15 1449.97 124.15C1452.68 124.15 1455.27 123.075 1457.18 121.162C1459.1 119.25 1460.17 116.655 1460.17 113.95C1460.17 111.245 1459.1 108.65 1457.18 106.738C1455.27 104.825 1452.68 103.75 1449.97 103.75C1447.26 103.75 1444.67 104.825 1442.76 106.738C1440.84 108.65 1439.77 111.245 1439.77 113.95ZM1528.11 572.95C1528.11 575.655 1529.18 578.25 1531.1 580.162C1533.01 582.075 1535.6 583.15 1538.31 583.15C1541.02 583.15 1543.61 582.075 1545.52 580.162C1547.44 578.25 1548.51 575.655 1548.51 572.95C1548.51 570.245 1547.44 567.65 1545.52 565.737C1543.61 563.825 1541.02 562.75 1538.31 562.75C1535.6 562.75 1533.01 563.825 1531.1 565.737C1529.18 567.65 1528.11 570.245 1528.11 572.95ZM1528.11 674.95C1528.11 677.655 1529.18 680.25 1531.1 682.162C1533.01 684.075 1535.6 685.15 1538.31 685.15C1541.02 685.15 1543.61 684.075 1545.52 682.162C1547.44 680.25 1548.51 677.655 1548.51 674.95C1548.51 672.245 1547.44 669.65 1545.52 667.737C1543.61 665.825 1541.02 664.75 1538.31 664.75C1535.6 664.75 1533.01 665.825 1531.1 667.737C1529.18 669.65 1528.11 672.245 1528.11 674.95ZM1439.77 725.95C1439.77 728.655 1440.84 731.25 1442.76 733.162C1444.67 735.075 1447.26 736.15 1449.97 736.15C1452.68 736.15 1455.27 735.075 1457.18 733.162C1459.1 731.25 1460.17 728.655 1460.17 725.95C1460.17 723.245 1459.1 720.65 1457.18 718.737C1455.27 716.825 1452.68 715.75 1449.97 715.75C1447.26 715.75 1444.67 716.825 1442.76 718.737C1440.84 720.65 1439.77 723.245 1439.77 725.95Z" fill="#2BA84A" fill-opacity="0.17" />
        <path d="M74.54 -83.78L158.55 -35.28V61.72L74.54 110.22L-9.46997 61.72V-35.28L74.54 -83.78ZM74.54 498.22L158.55 546.72V643.72L74.54 692.22L-9.46997 643.72V546.72L74.54 498.22ZM158.55 643.72L242.55 692.22V789.22L158.55 837.72L74.54 789.22V692.22L158.55 643.72ZM242.55 -83.78L326.56 -35.28V61.72L242.55 110.22L158.55 61.72V-35.28L242.55 -83.78ZM326.56 61.72L410.57 110.22V207.22L326.56 255.72L242.55 207.22V110.22L326.56 61.72ZM410.57 207.22L494.57 255.72V352.72L410.57 401.22L326.56 352.72V255.72L410.57 207.22ZM494.57 352.72L578.58 401.22V498.22L494.57 546.72L410.57 498.22V401.22L494.57 352.72ZM494.57 643.72L578.58 692.22V789.22L494.57 837.72L410.57 789.22V692.22L494.57 643.72ZM662.59 352.72L746.59 401.22V498.22L662.59 546.72L578.58 498.22V401.22L662.59 352.72ZM662.59 643.72L746.59 692.22V789.22L662.59 837.72L578.58 789.22V692.22L662.59 643.72ZM830.6 61.72L914.61 110.22V207.22L830.6 255.72L746.59 207.22V110.22L830.6 61.72ZM914.61 -83.78L998.62 -35.28V61.72L914.61 110.22L830.6 61.72V-35.28L914.61 -83.78ZM914.61 207.22L998.62 255.72V352.72L914.61 401.22L830.6 352.72V255.72L914.61 207.22ZM914.61 498.22L998.62 546.72V643.72L914.61 692.22L830.6 643.72V546.72L914.61 498.22ZM1082.62 -83.78L1166.63 -35.28V61.72L1082.62 110.22L998.62 61.72V-35.28L1082.62 -83.78ZM1166.63 61.72L1250.64 110.22V207.22L1166.63 255.72L1082.62 207.22V110.22L1166.63 61.72ZM1082.62 207.22L1166.63 255.72V352.72L1082.62 401.22L998.62 352.72V255.72L1082.62 207.22ZM1166.63 352.72L1250.64 401.22V498.22L1166.63 546.72L1082.62 498.22V401.22L1166.63 352.72ZM1250.64 -83.78L1334.64 -35.28V61.72L1250.64 110.22L1166.63 61.72V-35.28L1250.64 -83.78ZM1334.64 61.72L1418.65 110.22V207.22L1334.64 255.72L1250.64 207.22V110.22L1334.64 61.72ZM1250.64 498.22L1334.64 546.72V643.72L1250.64 692.22L1166.63 643.72V546.72L1250.64 498.22ZM1334.64 643.72L1418.65 692.22V789.22L1334.64 837.72L1250.64 789.22V692.22L1334.64 643.72ZM1418.65 -83.78L1502.66 -35.28V61.72L1418.65 110.22L1334.64 61.72V-35.28L1418.65 -83.78ZM1502.66 61.72L1586.66 110.22V207.22L1502.66 255.72L1418.65 207.22V110.22L1502.66 61.72ZM1502.66 643.72L1586.66 692.22V789.22L1502.66 837.72L1418.65 789.22V692.22L1502.66 643.72Z" stroke="#0EC1D9" stroke-opacity="0.16" stroke-width="2" />
    </g>
    <defs>
        <clipPath id="clip0_47_1607">
            <rect width="1440" height="800" fill="white" />
        </clipPath>
    </defs>
</svg>
    