<svg
  width="1920"
  height="892"
  viewBox="0 0 1920 892"
  fill="none"
  xmlns="http://www.w3.org/2000/svg"
>
<path d="M1920 0H0V2160H1920V0Z" fill="white" />
<path
    d="M136.67 401.59L23.22 336.09L-90.23 401.59V532.59L23.22 598.09L136.67 532.59M136.67 401.59V532.59M136.67 401.59L250.13 336.09M136.67 532.59L250.13 598.09L363.58 532.59V401.59M136.67 794.59L23.22 729.09L-90.23 794.59V925.59L23.22 991.09L136.67 925.59M136.67 794.59V925.59M136.67 794.59L250.13 729.09L363.58 794.59V925.59L250.13 991.09L136.67 925.59M363.58 8.59009L250.13 -56.9099L136.67 8.59009V139.59L250.13 205.09M363.58 8.59009V139.59M363.58 8.59009L477.03 -56.9099L590.48 8.59009V139.59L477.03 205.09M363.58 139.59L250.13 205.09M363.58 139.59L477.03 205.09M250.13 205.09V336.09M477.03 205.09V336.09L363.58 401.59M363.58 401.59L250.13 336.09M590.48 532.59L703.94 598.09M590.48 532.59L477.03 598.09V729.09L590.48 794.59M590.48 532.59V401.59L703.94 336.09M703.94 598.09V729.09M703.94 598.09L817.39 532.59M703.94 729.09L590.48 794.59M703.94 729.09L817.39 794.59M590.48 794.59V925.59M590.48 925.59L703.94 991.09M590.48 925.59L477.03 991.09V1122.09L590.48 1187.59L703.94 1122.09M703.94 991.09V1122.09M703.94 991.09L817.39 925.59M703.94 1122.09L817.39 1187.59L930.84 1122.09V991.09M930.84 336.09V205.09L817.39 139.59L703.94 205.09V336.09M930.84 336.09L817.39 401.59M930.84 336.09L1044.29 401.59V532.59L930.84 598.09L817.39 532.59M817.39 401.59L703.94 336.09M817.39 401.59V532.59M817.39 794.59V925.59M817.39 794.59L930.84 729.09L1044.29 794.59V925.59L930.84 991.09M817.39 925.59L930.84 991.09M1384.65 336.09V205.09L1271.2 139.59L1157.75 205.09V336.09L1271.2 401.59M1384.65 336.09L1271.2 401.59M1384.65 336.09L1498.1 401.59M1271.2 401.59V532.59M1271.2 532.59L1384.65 598.09M1271.2 532.59L1157.75 598.09V729.09L1271.2 794.59M1384.65 598.09V729.09M1384.65 598.09L1498.1 532.59M1384.65 729.09L1271.2 794.59M1384.65 729.09L1498.1 794.59M1271.2 794.59V925.59L1384.65 991.09M1498.1 401.59V532.59M1498.1 401.59L1611.56 336.09M1498.1 532.59L1611.56 598.09M1611.56 598.09V729.09L1498.1 794.59M1611.56 598.09L1725.01 532.59M1498.1 794.59V925.59M1498.1 925.59L1384.65 991.09M1498.1 925.59L1611.56 991.09M1384.65 991.09V1122.09L1498.1 1187.59L1611.56 1122.09M1611.56 991.09V1122.09M1611.56 991.09L1725.01 925.59L1838.46 991.09V1122.09M1611.56 1122.09L1725.01 1187.59M1725.01 139.59V8.59009L1611.56 -56.9099L1498.1 8.59009V139.59L1611.56 205.09M1725.01 139.59L1611.56 205.09M1725.01 139.59L1838.46 205.09V336.09M1611.56 205.09V336.09M1838.46 336.09L1725.01 401.59M1838.46 336.09L1951.91 401.59V532.59L1838.46 598.09L1725.01 532.59M1725.01 401.59L1611.56 336.09M1725.01 401.59V532.59M1838.46 1122.09L1725.01 1187.59M1838.46 1122.09L1951.91 1187.59V1318.59L1838.46 1384.09L1725.01 1318.59V1187.59M1498.1 1580.59V1711.59L1611.56 1777.09L1725.01 1711.59V1580.59L1611.56 1515.09L1498.1 1580.59Z"
    stroke="#2BA84A"
    stroke-opacity="0.17"
    stroke-width="2"
  />
<path
    d="M10.12 336.09C10.12 337.811 10.4588 339.514 11.1172 341.103C11.7755 342.693 12.7404 344.137 13.9569 345.353C15.1733 346.57 16.6175 347.535 18.2068 348.193C19.7962 348.851 21.4997 349.19 23.22 349.19C24.9403 349.19 26.6438 348.851 28.2331 348.193C29.8225 347.535 31.2666 346.57 32.4831 345.353C33.6995 344.137 34.6645 342.693 35.3228 341.103C35.9812 339.514 36.32 337.811 36.32 336.09C36.32 334.37 35.9812 332.666 35.3228 331.077C34.6645 329.488 33.6995 328.044 32.4831 326.827C31.2666 325.611 29.8225 324.646 28.2331 323.987C26.6438 323.329 24.9403 322.99 23.22 322.99C21.4997 322.99 19.7962 323.329 18.2068 323.987C16.6175 324.646 15.1733 325.611 13.9569 326.827C12.7404 328.044 11.7755 329.488 11.1172 331.077C10.4588 332.666 10.12 334.37 10.12 336.09ZM123.57 401.59C123.57 403.311 123.909 405.014 124.567 406.603C125.226 408.193 126.19 409.637 127.407 410.853C128.623 412.07 130.067 413.035 131.657 413.693C133.246 414.351 134.95 414.69 136.67 414.69C138.39 414.69 140.094 414.351 141.683 413.693C143.273 413.035 144.717 412.07 145.933 410.853C147.15 409.637 148.114 408.193 148.773 406.603C149.431 405.014 149.77 403.311 149.77 401.59C149.77 398.116 148.39 394.784 145.933 392.327C143.476 389.87 140.144 388.49 136.67 388.49C133.196 388.49 129.864 389.87 127.407 392.327C124.95 394.784 123.57 398.116 123.57 401.59ZM123.57 532.59C123.57 534.311 123.909 536.014 124.567 537.603C125.226 539.193 126.19 540.637 127.407 541.853C128.623 543.07 130.067 544.035 131.657 544.693C133.246 545.351 134.95 545.69 136.67 545.69C138.39 545.69 140.094 545.351 141.683 544.693C143.273 544.035 144.717 543.07 145.933 541.853C147.15 540.637 148.114 539.193 148.773 537.603C149.431 536.014 149.77 534.311 149.77 532.59C149.77 529.116 148.39 525.784 145.933 523.327C143.476 520.87 140.144 519.49 136.67 519.49C133.196 519.49 129.864 520.87 127.407 523.327C124.95 525.784 123.57 529.116 123.57 532.59ZM10.12 598.09C10.12 599.811 10.4588 601.514 11.1172 603.103C11.7755 604.693 12.7404 606.137 13.9569 607.353C15.1733 608.57 16.6175 609.535 18.2068 610.193C19.7962 610.851 21.4997 611.19 23.22 611.19C24.9403 611.19 26.6438 610.851 28.2331 610.193C29.8225 609.535 31.2666 608.57 32.4831 607.353C33.6995 606.137 34.6645 604.693 35.3228 603.103C35.9812 601.514 36.32 599.811 36.32 598.09C36.32 596.37 35.9812 594.666 35.3228 593.077C34.6645 591.488 33.6995 590.044 32.4831 588.827C31.2666 587.611 29.8225 586.646 28.2331 585.987C26.6438 585.329 24.9403 584.99 23.22 584.99C21.4997 584.99 19.7962 585.329 18.2068 585.987C16.6175 586.646 15.1733 587.611 13.9569 588.827C12.7404 590.044 11.7755 591.488 11.1172 593.077C10.4588 594.666 10.12 596.37 10.12 598.09ZM-103.33 532.59C-103.33 534.311 -102.991 536.014 -102.333 537.603C-101.675 539.193 -100.71 540.637 -99.4931 541.853C-98.2767 543.07 -96.8325 544.035 -95.2432 544.693C-93.6538 545.351 -91.9503 545.69 -90.23 545.69C-88.5097 545.69 -86.8062 545.351 -85.2169 544.693C-83.6275 544.035 -82.1834 543.07 -80.9669 541.853C-79.7505 540.637 -78.7855 539.193 -78.1272 537.603C-77.4689 536.014 -77.13 534.311 -77.13 532.59C-77.13 530.87 -77.4689 529.166 -78.1272 527.577C-78.7855 525.988 -79.7505 524.544 -80.9669 523.327C-82.1834 522.111 -83.6275 521.146 -85.2169 520.487C-86.8062 519.829 -88.5097 519.49 -90.23 519.49C-91.9503 519.49 -93.6538 519.829 -95.2432 520.487C-96.8325 521.146 -98.2767 522.111 -99.4931 523.327C-100.71 524.544 -101.675 525.988 -102.333 527.577C-102.991 529.166 -103.33 530.87 -103.33 532.59ZM-103.33 401.59C-103.33 403.311 -102.991 405.014 -102.333 406.603C-101.675 408.193 -100.71 409.637 -99.4931 410.853C-98.2767 412.07 -96.8325 413.035 -95.2432 413.693C-93.6538 414.351 -91.9503 414.69 -90.23 414.69C-88.5097 414.69 -86.8062 414.351 -85.2169 413.693C-83.6275 413.035 -82.1834 412.07 -80.9669 410.853C-79.7505 409.637 -78.7855 408.193 -78.1272 406.603C-77.4689 405.014 -77.13 403.311 -77.13 401.59C-77.13 399.87 -77.4689 398.166 -78.1272 396.577C-78.7855 394.988 -79.7505 393.544 -80.9669 392.327C-82.1834 391.111 -83.6275 390.146 -85.2169 389.487C-86.8062 388.829 -88.5097 388.49 -90.23 388.49C-91.9503 388.49 -93.6538 388.829 -95.2432 389.487C-96.8325 390.146 -98.2767 391.111 -99.4931 392.327C-100.71 393.544 -101.675 394.988 -102.333 396.577C-102.991 398.166 -103.33 399.87 -103.33 401.59ZM10.12 729.09C10.12 730.811 10.4588 732.514 11.1172 734.103C11.7755 735.693 12.7404 737.137 13.9569 738.353C15.1733 739.57 16.6175 740.535 18.2068 741.193C19.7962 741.851 21.4997 742.19 23.22 742.19C24.9403 742.19 26.6438 741.851 28.2331 741.193C29.8225 740.535 31.2666 739.57 32.4831 738.353C33.6995 737.137 34.6645 735.693 35.3228 734.103C35.9812 732.514 36.32 730.811 36.32 729.09C36.32 727.37 35.9812 725.666 35.3228 724.077C34.6645 722.488 33.6995 721.044 32.4831 719.827C31.2666 718.611 29.8225 717.646 28.2331 716.987C26.6438 716.329 24.9403 715.99 23.22 715.99C21.4997 715.99 19.7962 716.329 18.2068 716.987C16.6175 717.646 15.1733 718.611 13.9569 719.827C12.7404 721.044 11.7755 722.488 11.1172 724.077C10.4588 725.666 10.12 727.37 10.12 729.09ZM123.57 794.59C123.57 796.311 123.909 798.014 124.567 799.603C125.226 801.193 126.19 802.637 127.407 803.853C128.623 805.07 130.067 806.035 131.657 806.693C133.246 807.351 134.95 807.69 136.67 807.69C138.39 807.69 140.094 807.351 141.683 806.693C143.273 806.035 144.717 805.07 145.933 803.853C147.15 802.637 148.114 801.193 148.773 799.603C149.431 798.014 149.77 796.311 149.77 794.59C149.77 791.116 148.39 787.784 145.933 785.327C143.476 782.87 140.144 781.49 136.67 781.49C133.196 781.49 129.864 782.87 127.407 785.327C124.95 787.784 123.57 791.116 123.57 794.59ZM123.57 925.59C123.57 927.311 123.909 929.014 124.567 930.603C125.226 932.193 126.19 933.637 127.407 934.853C128.623 936.07 130.067 937.035 131.657 937.693C133.246 938.351 134.95 938.69 136.67 938.69C138.39 938.69 140.094 938.351 141.683 937.693C143.273 937.035 144.717 936.07 145.933 934.853C147.15 933.637 148.114 932.193 148.773 930.603C149.431 929.014 149.77 927.311 149.77 925.59C149.77 922.116 148.39 918.784 145.933 916.327C143.476 913.87 140.144 912.49 136.67 912.49C133.196 912.49 129.864 913.87 127.407 916.327C124.95 918.784 123.57 922.116 123.57 925.59ZM10.12 991.09C10.12 992.811 10.4588 994.514 11.1172 996.103C11.7755 997.693 12.7404 999.137 13.9569 1000.35C15.1733 1001.57 16.6175 1002.53 18.2068 1003.19C19.7962 1003.85 21.4997 1004.19 23.22 1004.19C24.9403 1004.19 26.6438 1003.85 28.2331 1003.19C29.8225 1002.53 31.2666 1001.57 32.4831 1000.35C33.6995 999.137 34.6645 997.693 35.3228 996.103C35.9812 994.514 36.32 992.811 36.32 991.09C36.32 989.37 35.9812 987.666 35.3228 986.077C34.6645 984.488 33.6995 983.044 32.4831 981.827C31.2666 980.611 29.8225 979.646 28.2331 978.987C26.6438 978.329 24.9403 977.99 23.22 977.99C21.4997 977.99 19.7962 978.329 18.2068 978.987C16.6175 979.646 15.1733 980.611 13.9569 981.827C12.7404 983.044 11.7755 984.488 11.1172 986.077C10.4588 987.666 10.12 989.37 10.12 991.09ZM-103.33 925.59C-103.33 927.311 -102.991 929.014 -102.333 930.603C-101.675 932.193 -100.71 933.637 -99.4931 934.853C-98.2767 936.07 -96.8325 937.035 -95.2432 937.693C-93.6538 938.351 -91.9503 938.69 -90.23 938.69C-88.5097 938.69 -86.8062 938.351 -85.2169 937.693C-83.6275 937.035 -82.1834 936.07 -80.9669 934.853C-79.7505 933.637 -78.7855 932.193 -78.1272 930.603C-77.4689 929.014 -77.13 927.311 -77.13 925.59C-77.13 923.87 -77.4689 922.166 -78.1272 920.577C-78.7855 918.988 -79.7505 917.544 -80.9669 916.327C-82.1834 915.111 -83.6275 914.146 -85.2169 913.487C-86.8062 912.829 -88.5097 912.49 -90.23 912.49C-91.9503 912.49 -93.6538 912.829 -95.2432 913.487C-96.8325 914.146 -98.2767 915.111 -99.4931 916.327C-100.71 917.544 -101.675 918.988 -102.333 920.577C-102.991 922.166 -103.33 923.87 -103.33 925.59ZM-103.33 794.59C-103.33 796.311 -102.991 798.014 -102.333 799.603C-101.675 801.193 -100.71 802.637 -99.4931 803.853C-98.2767 805.07 -96.8325 806.035 -95.2432 806.693C-93.6538 807.351 -91.9503 807.69 -90.23 807.69C-88.5097 807.69 -86.8062 807.351 -85.2169 806.693C-83.6275 806.035 -82.1834 805.07 -80.9669 803.853C-79.7505 802.637 -78.7855 801.193 -78.1272 799.603C-77.4689 798.014 -77.13 796.311 -77.13 794.59C-77.13 792.87 -77.4689 791.166 -78.1272 789.577C-78.7855 787.988 -79.7505 786.544 -80.9669 785.327C-82.1834 784.111 -83.6275 783.146 -85.2169 782.487C-86.8062 781.829 -88.5097 781.49 -90.23 781.49C-91.9503 781.49 -93.6538 781.829 -95.2432 782.487C-96.8325 783.146 -98.2767 784.111 -99.4931 785.327C-100.71 786.544 -101.675 787.988 -102.333 789.577C-102.991 791.166 -103.33 792.87 -103.33 794.59ZM237.03 -56.9098C237.03 -53.4354 238.41 -50.1034 240.867 -47.6467C243.324 -45.1899 246.656 -43.8098 250.13 -43.8098C253.604 -43.8098 256.936 -45.1899 259.393 -47.6467C261.85 -50.1034 263.23 -53.4354 263.23 -56.9098C263.23 -60.3841 261.85 -63.7161 259.393 -66.1729C256.936 -68.6296 253.604 -70.0098 250.13 -70.0098C246.656 -70.0098 243.324 -68.6296 240.867 -66.1729C238.41 -63.7161 237.03 -60.3841 237.03 -56.9098ZM350.48 8.59024C350.48 12.0646 351.86 15.3966 354.317 17.8533C356.774 20.3101 360.106 21.6902 363.58 21.6902C367.054 21.6902 370.386 20.3101 372.843 17.8533C375.3 15.3966 376.68 12.0646 376.68 8.59024C376.68 5.11591 375.3 1.78387 372.843 -0.672859C370.386 -3.12959 367.054 -4.50977 363.58 -4.50977C360.106 -4.50977 356.774 -3.12959 354.317 -0.672859C351.86 1.78387 350.48 5.11591 350.48 8.59024ZM350.48 139.59C350.48 143.065 351.86 146.397 354.317 148.853C356.774 151.31 360.106 152.69 363.58 152.69C367.054 152.69 370.386 151.31 372.843 148.853C375.3 146.397 376.68 143.065 376.68 139.59C376.68 136.116 375.3 132.784 372.843 130.327C370.386 127.87 367.054 126.49 363.58 126.49C360.106 126.49 356.774 127.87 354.317 130.327C351.86 132.784 350.48 136.116 350.48 139.59ZM237.03 205.09C237.03 208.565 238.41 211.897 240.867 214.353C243.324 216.81 246.656 218.19 250.13 218.19C253.604 218.19 256.936 216.81 259.393 214.353C261.85 211.897 263.23 208.565 263.23 205.09C263.23 201.616 261.85 198.284 259.393 195.827C256.936 193.37 253.604 191.99 250.13 191.99C246.656 191.99 243.324 193.37 240.867 195.827C238.41 198.284 237.03 201.616 237.03 205.09ZM123.57 139.59C123.57 141.311 123.909 143.014 124.567 144.603C125.226 146.193 126.19 147.637 127.407 148.853C128.623 150.07 130.067 151.035 131.657 151.693C133.246 152.351 134.95 152.69 136.67 152.69C138.39 152.69 140.094 152.351 141.683 151.693C143.273 151.035 144.717 150.07 145.933 148.853C147.15 147.637 148.114 146.193 148.773 144.603C149.431 143.014 149.77 141.311 149.77 139.59C149.77 136.116 148.39 132.784 145.933 130.327C143.476 127.87 140.144 126.49 136.67 126.49C133.196 126.49 129.864 127.87 127.407 130.327C124.95 132.784 123.57 136.116 123.57 139.59ZM123.57 8.59024C123.57 10.3106 123.909 12.014 124.567 13.6034C125.226 15.1928 126.19 16.6369 127.407 17.8533C128.623 19.0698 130.067 20.0347 131.657 20.6931C133.246 21.3514 134.95 21.6902 136.67 21.6902C138.39 21.6902 140.094 21.3514 141.683 20.6931C143.273 20.0347 144.717 19.0698 145.933 17.8533C147.15 16.6369 148.114 15.1928 148.773 13.6034C149.431 12.014 149.77 10.3106 149.77 8.59024C149.77 5.11591 148.39 1.78387 145.933 -0.672859C143.476 -3.12959 140.144 -4.50977 136.67 -4.50977C133.196 -4.50977 129.864 -3.12959 127.407 -0.672859C124.95 1.78387 123.57 5.11591 123.57 8.59024ZM463.93 205.09C463.93 208.565 465.31 211.897 467.767 214.353C470.224 216.81 473.556 218.19 477.03 218.19C480.504 218.19 483.836 216.81 486.293 214.353C488.75 211.897 490.13 208.565 490.13 205.09C490.13 201.616 488.75 198.284 486.293 195.827C483.836 193.37 480.504 191.99 477.03 191.99C473.556 191.99 470.224 193.37 467.767 195.827C465.31 198.284 463.93 201.616 463.93 205.09ZM463.93 336.09C463.93 339.565 465.31 342.897 467.767 345.353C470.224 347.81 473.556 349.19 477.03 349.19C480.504 349.19 483.836 347.81 486.293 345.353C488.75 342.897 490.13 339.565 490.13 336.09C490.13 332.616 488.75 329.284 486.293 326.827C483.836 324.37 480.504 322.99 477.03 322.99C473.556 322.99 470.224 324.37 467.767 326.827C465.31 329.284 463.93 332.616 463.93 336.09ZM350.48 401.59C350.48 405.065 351.86 408.397 354.317 410.853C356.774 413.31 360.106 414.69 363.58 414.69C367.054 414.69 370.386 413.31 372.843 410.853C375.3 408.397 376.68 405.065 376.68 401.59C376.68 398.116 375.3 394.784 372.843 392.327C370.386 389.87 367.054 388.49 363.58 388.49C360.106 388.49 356.774 389.87 354.317 392.327C351.86 394.784 350.48 398.116 350.48 401.59ZM237.03 336.09C237.03 339.565 238.41 342.897 240.867 345.353C243.324 347.81 246.656 349.19 250.13 349.19C253.604 349.19 256.936 347.81 259.393 345.353C261.85 342.897 263.23 339.565 263.23 336.09C263.23 332.616 261.85 329.284 259.393 326.827C256.936 324.37 253.604 322.99 250.13 322.99C246.656 322.99 243.324 324.37 240.867 326.827C238.41 329.284 237.03 332.616 237.03 336.09ZM350.48 532.59C350.48 536.065 351.86 539.397 354.317 541.853C356.774 544.31 360.106 545.69 363.58 545.69C367.054 545.69 370.386 544.31 372.843 541.853C375.3 539.397 376.68 536.065 376.68 532.59C376.68 529.116 375.3 525.784 372.843 523.327C370.386 520.87 367.054 519.49 363.58 519.49C360.106 519.49 356.774 520.87 354.317 523.327C351.86 525.784 350.48 529.116 350.48 532.59ZM237.03 598.09C237.03 601.565 238.41 604.897 240.867 607.353C243.324 609.81 246.656 611.19 250.13 611.19C253.604 611.19 256.936 609.81 259.393 607.353C261.85 604.897 263.23 601.565 263.23 598.09C263.23 594.616 261.85 591.284 259.393 588.827C256.936 586.37 253.604 584.99 250.13 584.99C246.656 584.99 243.324 586.37 240.867 588.827C238.41 591.284 237.03 594.616 237.03 598.09ZM237.03 729.09C237.03 732.565 238.41 735.897 240.867 738.353C243.324 740.81 246.656 742.19 250.13 742.19C253.604 742.19 256.936 740.81 259.393 738.353C261.85 735.897 263.23 732.565 263.23 729.09C263.23 725.616 261.85 722.284 259.393 719.827C256.936 717.37 253.604 715.99 250.13 715.99C246.656 715.99 243.324 717.37 240.867 719.827C238.41 722.284 237.03 725.616 237.03 729.09ZM350.48 794.59C350.48 798.065 351.86 801.397 354.317 803.853C356.774 806.31 360.106 807.69 363.58 807.69C367.054 807.69 370.386 806.31 372.843 803.853C375.3 801.397 376.68 798.065 376.68 794.59C376.68 791.116 375.3 787.784 372.843 785.327C370.386 782.87 367.054 781.49 363.58 781.49C360.106 781.49 356.774 782.87 354.317 785.327C351.86 787.784 350.48 791.116 350.48 794.59ZM350.48 925.59C350.48 929.065 351.86 932.397 354.317 934.853C356.774 937.31 360.106 938.69 363.58 938.69C367.054 938.69 370.386 937.31 372.843 934.853C375.3 932.397 376.68 929.065 376.68 925.59C376.68 922.116 375.3 918.784 372.843 916.327C370.386 913.87 367.054 912.49 363.58 912.49C360.106 912.49 356.774 913.87 354.317 916.327C351.86 918.784 350.48 922.116 350.48 925.59ZM237.03 991.09C237.03 994.565 238.41 997.896 240.867 1000.35C243.324 1002.81 246.656 1004.19 250.13 1004.19C253.604 1004.19 256.936 1002.81 259.393 1000.35C261.85 997.896 263.23 994.565 263.23 991.09C263.23 987.616 261.85 984.284 259.393 981.827C256.936 979.37 253.604 977.99 250.13 977.99C246.656 977.99 243.324 979.37 240.867 981.827C238.41 984.284 237.03 987.616 237.03 991.09ZM463.93 -56.9098C463.93 -53.4354 465.31 -50.1034 467.767 -47.6467C470.224 -45.1899 473.556 -43.8098 477.03 -43.8098C480.504 -43.8098 483.836 -45.1899 486.293 -47.6467C488.75 -50.1034 490.13 -53.4354 490.13 -56.9098C490.13 -60.3841 488.75 -63.7161 486.293 -66.1729C483.836 -68.6296 480.504 -70.0098 477.03 -70.0098C473.556 -70.0098 470.224 -68.6296 467.767 -66.1729C465.31 -63.7161 463.93 -60.3841 463.93 -56.9098ZM577.38 8.59024C577.38 12.0646 578.76 15.3966 581.217 17.8533C583.674 20.3101 587.006 21.6902 590.48 21.6902C593.954 21.6902 597.286 20.3101 599.743 17.8533C602.2 15.3966 603.58 12.0646 603.58 8.59024C603.58 5.11591 602.2 1.78387 599.743 -0.672859C597.286 -3.12959 593.954 -4.50977 590.48 -4.50977C587.006 -4.50977 583.674 -3.12959 581.217 -0.672859C578.76 1.78387 577.38 5.11591 577.38 8.59024ZM577.38 139.59C577.38 143.065 578.76 146.397 581.217 148.853C583.674 151.31 587.006 152.69 590.48 152.69C593.954 152.69 597.286 151.31 599.743 148.853C602.2 146.397 603.58 143.065 603.58 139.59C603.58 136.116 602.2 132.784 599.743 130.327C597.286 127.87 593.954 126.49 590.48 126.49C587.006 126.49 583.674 127.87 581.217 130.327C578.76 132.784 577.38 136.116 577.38 139.59ZM577.38 532.59C577.38 536.065 578.76 539.397 581.217 541.853C583.674 544.31 587.006 545.69 590.48 545.69C593.954 545.69 597.286 544.31 599.743 541.853C602.2 539.397 603.58 536.065 603.58 532.59C603.58 529.116 602.2 525.784 599.743 523.327C597.286 520.87 593.954 519.49 590.48 519.49C587.006 519.49 583.674 520.87 581.217 523.327C578.76 525.784 577.38 529.116 577.38 532.59ZM690.84 598.09C690.84 601.565 692.22 604.897 694.677 607.353C697.134 609.81 700.466 611.19 703.94 611.19C707.414 611.19 710.746 609.81 713.203 607.353C715.66 604.897 717.04 601.565 717.04 598.09C717.04 594.616 715.66 591.284 713.203 588.827C710.746 586.37 707.414 584.99 703.94 584.99C700.466 584.99 697.134 586.37 694.677 588.827C692.22 591.284 690.84 594.616 690.84 598.09ZM690.84 729.09C690.84 732.565 692.22 735.897 694.677 738.353C697.134 740.81 700.466 742.19 703.94 742.19C707.414 742.19 710.746 740.81 713.203 738.353C715.66 735.897 717.04 732.565 717.04 729.09C717.04 725.616 715.66 722.284 713.203 719.827C710.746 717.37 707.414 715.99 703.94 715.99C700.466 715.99 697.134 717.37 694.677 719.827C692.22 722.284 690.84 725.616 690.84 729.09ZM577.38 794.59C577.38 798.065 578.76 801.397 581.217 803.853C583.674 806.31 587.006 807.69 590.48 807.69C593.954 807.69 597.286 806.31 599.743 803.853C602.2 801.397 603.58 798.065 603.58 794.59C603.58 791.116 602.2 787.784 599.743 785.327C597.286 782.87 593.954 781.49 590.48 781.49C587.006 781.49 583.674 782.87 581.217 785.327C578.76 787.784 577.38 791.116 577.38 794.59ZM463.93 729.09C463.93 732.565 465.31 735.897 467.767 738.353C470.224 740.81 473.556 742.19 477.03 742.19C480.504 742.19 483.836 740.81 486.293 738.353C488.75 735.897 490.13 732.565 490.13 729.09C490.13 725.616 488.75 722.284 486.293 719.827C483.836 717.37 480.504 715.99 477.03 715.99C473.556 715.99 470.224 717.37 467.767 719.827C465.31 722.284 463.93 725.616 463.93 729.09ZM463.93 598.09C463.93 601.565 465.31 604.897 467.767 607.353C470.224 609.81 473.556 611.19 477.03 611.19C480.504 611.19 483.836 609.81 486.293 607.353C488.75 604.897 490.13 601.565 490.13 598.09C490.13 594.616 488.75 591.284 486.293 588.827C483.836 586.37 480.504 584.99 477.03 584.99C473.556 584.99 470.224 586.37 467.767 588.827C465.31 591.284 463.93 594.616 463.93 598.09ZM577.38 925.59C577.38 929.065 578.76 932.397 581.217 934.853C583.674 937.31 587.006 938.69 590.48 938.69C593.954 938.69 597.286 937.31 599.743 934.853C602.2 932.397 603.58 929.065 603.58 925.59C603.58 922.116 602.2 918.784 599.743 916.327C597.286 913.87 593.954 912.49 590.48 912.49C587.006 912.49 583.674 913.87 581.217 916.327C578.76 918.784 577.38 922.116 577.38 925.59ZM690.84 991.09C690.84 994.565 692.22 997.896 694.677 1000.35C697.134 1002.81 700.466 1004.19 703.94 1004.19C707.414 1004.19 710.746 1002.81 713.203 1000.35C715.66 997.896 717.04 994.565 717.04 991.09C717.04 987.616 715.66 984.284 713.203 981.827C710.746 979.37 707.414 977.99 703.94 977.99C700.466 977.99 697.134 979.37 694.677 981.827C692.22 984.284 690.84 987.616 690.84 991.09ZM690.84 1122.09C690.84 1125.56 692.22 1128.9 694.677 1131.35C697.134 1133.81 700.466 1135.19 703.94 1135.19C707.414 1135.19 710.746 1133.81 713.203 1131.35C715.66 1128.9 717.04 1125.56 717.04 1122.09C717.04 1118.62 715.66 1115.28 713.203 1112.83C710.746 1110.37 707.414 1108.99 703.94 1108.99C700.466 1108.99 697.134 1110.37 694.677 1112.83C692.22 1115.28 690.84 1118.62 690.84 1122.09ZM577.38 1187.59C577.38 1191.06 578.76 1194.4 581.217 1196.85C583.674 1199.31 587.006 1200.69 590.48 1200.69C593.954 1200.69 597.286 1199.31 599.743 1196.85C602.2 1194.4 603.58 1191.06 603.58 1187.59C603.58 1184.12 602.2 1180.78 599.743 1178.33C597.286 1175.87 593.954 1174.49 590.48 1174.49C587.006 1174.49 583.674 1175.87 581.217 1178.33C578.76 1180.78 577.38 1184.12 577.38 1187.59ZM463.93 1122.09C463.93 1125.56 465.31 1128.9 467.767 1131.35C470.224 1133.81 473.556 1135.19 477.03 1135.19C480.504 1135.19 483.836 1133.81 486.293 1131.35C488.75 1128.9 490.13 1125.56 490.13 1122.09C490.13 1118.62 488.75 1115.28 486.293 1112.83C483.836 1110.37 480.504 1108.99 477.03 1108.99C473.556 1108.99 470.224 1110.37 467.767 1112.83C465.31 1115.28 463.93 1118.62 463.93 1122.09ZM463.93 991.09C463.93 994.565 465.31 997.896 467.767 1000.35C470.224 1002.81 473.556 1004.19 477.03 1004.19C480.504 1004.19 483.836 1002.81 486.293 1000.35C488.75 997.896 490.13 994.565 490.13 991.09C490.13 987.616 488.75 984.284 486.293 981.827C483.836 979.37 480.504 977.99 477.03 977.99C473.556 977.99 470.224 979.37 467.767 981.827C465.31 984.284 463.93 987.616 463.93 991.09ZM804.29 139.59C804.29 143.065 805.67 146.397 808.127 148.853C810.584 151.31 813.916 152.69 817.39 152.69C820.864 152.69 824.196 151.31 826.653 148.853C829.11 146.397 830.49 143.065 830.49 139.59C830.49 136.116 829.11 132.784 826.653 130.327C824.196 127.87 820.864 126.49 817.39 126.49C813.916 126.49 810.584 127.87 808.127 130.327C805.67 132.784 804.29 136.116 804.29 139.59ZM917.74 205.09C917.74 208.565 919.12 211.897 921.577 214.353C924.034 216.81 927.366 218.19 930.84 218.19C934.314 218.19 937.646 216.81 940.103 214.353C942.56 211.897 943.94 208.565 943.94 205.09C943.94 201.616 942.56 198.284 940.103 195.827C937.646 193.37 934.314 191.99 930.84 191.99C927.366 191.99 924.034 193.37 921.577 195.827C919.12 198.284 917.74 201.616 917.74 205.09ZM917.74 336.09C917.74 339.565 919.12 342.897 921.577 345.353C924.034 347.81 927.366 349.19 930.84 349.19C934.314 349.19 937.646 347.81 940.103 345.353C942.56 342.897 943.94 339.565 943.94 336.09C943.94 332.616 942.56 329.284 940.103 326.827C937.646 324.37 934.314 322.99 930.84 322.99C927.366 322.99 924.034 324.37 921.577 326.827C919.12 329.284 917.74 332.616 917.74 336.09ZM804.29 401.59C804.29 405.065 805.67 408.397 808.127 410.853C810.584 413.31 813.916 414.69 817.39 414.69C820.864 414.69 824.196 413.31 826.653 410.853C829.11 408.397 830.49 405.065 830.49 401.59C830.49 398.116 829.11 394.784 826.653 392.327C824.196 389.87 820.864 388.49 817.39 388.49C813.916 388.49 810.584 389.87 808.127 392.327C805.67 394.784 804.29 398.116 804.29 401.59ZM690.84 336.09C690.84 339.565 692.22 342.897 694.677 345.353C697.134 347.81 700.466 349.19 703.94 349.19C707.414 349.19 710.746 347.81 713.203 345.353C715.66 342.897 717.04 339.565 717.04 336.09C717.04 332.616 715.66 329.284 713.203 326.827C710.746 324.37 707.414 322.99 703.94 322.99C700.466 322.99 697.134 324.37 694.677 326.827C692.22 329.284 690.84 332.616 690.84 336.09ZM690.84 205.09C690.84 208.565 692.22 211.897 694.677 214.353C697.134 216.81 700.466 218.19 703.94 218.19C707.414 218.19 710.746 216.81 713.203 214.353C715.66 211.897 717.04 208.565 717.04 205.09C717.04 201.616 715.66 198.284 713.203 195.827C710.746 193.37 707.414 191.99 703.94 191.99C700.466 191.99 697.134 193.37 694.677 195.827C692.22 198.284 690.84 201.616 690.84 205.09ZM804.29 532.59C804.29 536.065 805.67 539.397 808.127 541.853C810.584 544.31 813.916 545.69 817.39 545.69C820.864 545.69 824.196 544.31 826.653 541.853C829.11 539.397 830.49 536.065 830.49 532.59C830.49 529.116 829.11 525.784 826.653 523.327C824.196 520.87 820.864 519.49 817.39 519.49C813.916 519.49 810.584 520.87 808.127 523.327C805.67 525.784 804.29 529.116 804.29 532.59ZM577.38 401.59C577.38 405.065 578.76 408.397 581.217 410.853C583.674 413.31 587.006 414.69 590.48 414.69C593.954 414.69 597.286 413.31 599.743 410.853C602.2 408.397 603.58 405.065 603.58 401.59C603.58 398.116 602.2 394.784 599.743 392.327C597.286 389.87 593.954 388.49 590.48 388.49C587.006 388.49 583.674 389.87 581.217 392.327C578.76 394.784 577.38 398.116 577.38 401.59ZM804.29 794.59C804.29 798.065 805.67 801.397 808.127 803.853C810.584 806.31 813.916 807.69 817.39 807.69C820.864 807.69 824.196 806.31 826.653 803.853C829.11 801.397 830.49 798.065 830.49 794.59C830.49 791.116 829.11 787.784 826.653 785.327C824.196 782.87 820.864 781.49 817.39 781.49C813.916 781.49 810.584 782.87 808.127 785.327C805.67 787.784 804.29 791.116 804.29 794.59ZM804.29 925.59C804.29 929.065 805.67 932.397 808.127 934.853C810.584 937.31 813.916 938.69 817.39 938.69C820.864 938.69 824.196 937.31 826.653 934.853C829.11 932.397 830.49 929.065 830.49 925.59C830.49 922.116 829.11 918.784 826.653 916.327C824.196 913.87 820.864 912.49 817.39 912.49C813.916 912.49 810.584 913.87 808.127 916.327C805.67 918.784 804.29 922.116 804.29 925.59ZM917.74 991.09C917.74 994.565 919.12 997.896 921.577 1000.35C924.034 1002.81 927.366 1004.19 930.84 1004.19C934.314 1004.19 937.646 1002.81 940.103 1000.35C942.56 997.896 943.94 994.565 943.94 991.09C943.94 987.616 942.56 984.284 940.103 981.827C937.646 979.37 934.314 977.99 930.84 977.99C927.366 977.99 924.034 979.37 921.577 981.827C919.12 984.284 917.74 987.616 917.74 991.09ZM917.74 1122.09C917.74 1125.56 919.12 1128.9 921.577 1131.35C924.034 1133.81 927.366 1135.19 930.84 1135.19C934.314 1135.19 937.646 1133.81 940.103 1131.35C942.56 1128.9 943.94 1125.56 943.94 1122.09C943.94 1118.62 942.56 1115.28 940.103 1112.83C937.646 1110.37 934.314 1108.99 930.84 1108.99C927.366 1108.99 924.034 1110.37 921.577 1112.83C919.12 1115.28 917.74 1118.62 917.74 1122.09ZM804.29 1187.59C804.29 1191.06 805.67 1194.4 808.127 1196.85C810.584 1199.31 813.916 1200.69 817.39 1200.69C820.864 1200.69 824.196 1199.31 826.653 1196.85C829.11 1194.4 830.49 1191.06 830.49 1187.59C830.49 1184.12 829.11 1180.78 826.653 1178.33C824.196 1175.87 820.864 1174.49 817.39 1174.49C813.916 1174.49 810.584 1175.87 808.127 1178.33C805.67 1180.78 804.29 1184.12 804.29 1187.59ZM1031.19 401.59C1031.19 405.065 1032.57 408.397 1035.03 410.853C1037.48 413.31 1040.82 414.69 1044.29 414.69C1047.76 414.69 1051.1 413.31 1053.55 410.853C1056.01 408.397 1057.39 405.065 1057.39 401.59C1057.39 398.116 1056.01 394.784 1053.55 392.327C1051.1 389.87 1047.76 388.49 1044.29 388.49C1040.82 388.49 1037.48 389.87 1035.03 392.327C1032.57 394.784 1031.19 398.116 1031.19 401.59ZM1031.19 532.59C1031.19 536.065 1032.57 539.397 1035.03 541.853C1037.48 544.31 1040.82 545.69 1044.29 545.69C1047.76 545.69 1051.1 544.31 1053.55 541.853C1056.01 539.397 1057.39 536.065 1057.39 532.59C1057.39 529.116 1056.01 525.784 1053.55 523.327C1051.1 520.87 1047.76 519.49 1044.29 519.49C1040.82 519.49 1037.48 520.87 1035.03 523.327C1032.57 525.784 1031.19 529.116 1031.19 532.59ZM917.74 598.09C917.74 601.565 919.12 604.897 921.577 607.353C924.034 609.81 927.366 611.19 930.84 611.19C934.314 611.19 937.646 609.81 940.103 607.353C942.56 604.897 943.94 601.565 943.94 598.09C943.94 594.616 942.56 591.284 940.103 588.827C937.646 586.37 934.314 584.99 930.84 584.99C927.366 584.99 924.034 586.37 921.577 588.827C919.12 591.284 917.74 594.616 917.74 598.09ZM917.74 729.09C917.74 732.565 919.12 735.897 921.577 738.353C924.034 740.81 927.366 742.19 930.84 742.19C934.314 742.19 937.646 740.81 940.103 738.353C942.56 735.897 943.94 732.565 943.94 729.09C943.94 725.616 942.56 722.284 940.103 719.827C937.646 717.37 934.314 715.99 930.84 715.99C927.366 715.99 924.034 717.37 921.577 719.827C919.12 722.284 917.74 725.616 917.74 729.09ZM1031.19 794.59C1031.19 798.065 1032.57 801.397 1035.03 803.853C1037.48 806.31 1040.82 807.69 1044.29 807.69C1047.76 807.69 1051.1 806.31 1053.55 803.853C1056.01 801.397 1057.39 798.065 1057.39 794.59C1057.39 791.116 1056.01 787.784 1053.55 785.327C1051.1 782.87 1047.76 781.49 1044.29 781.49C1040.82 781.49 1037.48 782.87 1035.03 785.327C1032.57 787.784 1031.19 791.116 1031.19 794.59ZM1031.19 925.59C1031.19 929.065 1032.57 932.397 1035.03 934.853C1037.48 937.31 1040.82 938.69 1044.29 938.69C1047.76 938.69 1051.1 937.31 1053.55 934.853C1056.01 932.397 1057.39 929.065 1057.39 925.59C1057.39 922.116 1056.01 918.784 1053.55 916.327C1051.1 913.87 1047.76 912.49 1044.29 912.49C1040.82 912.49 1037.48 913.87 1035.03 916.327C1032.57 918.784 1031.19 922.116 1031.19 925.59ZM1258.1 139.59C1258.1 143.065 1259.48 146.397 1261.94 148.853C1264.39 151.31 1267.73 152.69 1271.2 152.69C1274.67 152.69 1278.01 151.31 1280.46 148.853C1282.92 146.397 1284.3 143.065 1284.3 139.59C1284.3 136.116 1282.92 132.784 1280.46 130.327C1278.01 127.87 1274.67 126.49 1271.2 126.49C1267.73 126.49 1264.39 127.87 1261.94 130.327C1259.48 132.784 1258.1 136.116 1258.1 139.59ZM1371.55 205.09C1371.55 208.565 1372.93 211.897 1375.39 214.353C1377.84 216.81 1381.18 218.19 1384.65 218.19C1388.12 218.19 1391.46 216.81 1393.91 214.353C1396.37 211.897 1397.75 208.565 1397.75 205.09C1397.75 201.616 1396.37 198.284 1393.91 195.827C1391.46 193.37 1388.12 191.99 1384.65 191.99C1381.18 191.99 1377.84 193.37 1375.39 195.827C1372.93 198.284 1371.55 201.616 1371.55 205.09ZM1371.55 336.09C1371.55 339.565 1372.93 342.897 1375.39 345.353C1377.84 347.81 1381.18 349.19 1384.65 349.19C1388.12 349.19 1391.46 347.81 1393.91 345.353C1396.37 342.897 1397.75 339.565 1397.75 336.09C1397.75 332.616 1396.37 329.284 1393.91 326.827C1391.46 324.37 1388.12 322.99 1384.65 322.99C1381.18 322.99 1377.84 324.37 1375.39 326.827C1372.93 329.284 1371.55 332.616 1371.55 336.09ZM1258.1 401.59C1258.1 405.065 1259.48 408.397 1261.94 410.853C1264.39 413.31 1267.73 414.69 1271.2 414.69C1274.67 414.69 1278.01 413.31 1280.46 410.853C1282.92 408.397 1284.3 405.065 1284.3 401.59C1284.3 398.116 1282.92 394.784 1280.46 392.327C1278.01 389.87 1274.67 388.49 1271.2 388.49C1267.73 388.49 1264.39 389.87 1261.94 392.327C1259.48 394.784 1258.1 398.116 1258.1 401.59ZM1144.65 336.09C1144.65 339.565 1146.03 342.897 1148.49 345.353C1150.94 347.81 1154.28 349.19 1157.75 349.19C1161.22 349.19 1164.56 347.81 1167.01 345.353C1169.47 342.897 1170.85 339.565 1170.85 336.09C1170.85 332.616 1169.47 329.284 1167.01 326.827C1164.56 324.37 1161.22 322.99 1157.75 322.99C1154.28 322.99 1150.94 324.37 1148.49 326.827C1146.03 329.284 1144.65 332.616 1144.65 336.09ZM1144.65 205.09C1144.65 208.565 1146.03 211.897 1148.49 214.353C1150.94 216.81 1154.28 218.19 1157.75 218.19C1161.22 218.19 1164.56 216.81 1167.01 214.353C1169.47 211.897 1170.85 208.565 1170.85 205.09C1170.85 201.616 1169.47 198.284 1167.01 195.827C1164.56 193.37 1161.22 191.99 1157.75 191.99C1154.28 191.99 1150.94 193.37 1148.49 195.827C1146.03 198.284 1144.65 201.616 1144.65 205.09ZM1258.1 532.59C1258.1 536.065 1259.48 539.397 1261.94 541.853C1264.39 544.31 1267.73 545.69 1271.2 545.69C1274.67 545.69 1278.01 544.31 1280.46 541.853C1282.92 539.397 1284.3 536.065 1284.3 532.59C1284.3 529.116 1282.92 525.784 1280.46 523.327C1278.01 520.87 1274.67 519.49 1271.2 519.49C1267.73 519.49 1264.39 520.87 1261.94 523.327C1259.48 525.784 1258.1 529.116 1258.1 532.59ZM1371.55 598.09C1371.55 601.565 1372.93 604.897 1375.39 607.353C1377.84 609.81 1381.18 611.19 1384.65 611.19C1388.12 611.19 1391.46 609.81 1393.91 607.353C1396.37 604.897 1397.75 601.565 1397.75 598.09C1397.75 594.616 1396.37 591.284 1393.91 588.827C1391.46 586.37 1388.12 584.99 1384.65 584.99C1381.18 584.99 1377.84 586.37 1375.39 588.827C1372.93 591.284 1371.55 594.616 1371.55 598.09ZM1371.55 729.09C1371.55 732.565 1372.93 735.897 1375.39 738.353C1377.84 740.81 1381.18 742.19 1384.65 742.19C1388.12 742.19 1391.46 740.81 1393.91 738.353C1396.37 735.897 1397.75 732.565 1397.75 729.09C1397.75 725.616 1396.37 722.284 1393.91 719.827C1391.46 717.37 1388.12 715.99 1384.65 715.99C1381.18 715.99 1377.84 717.37 1375.39 719.827C1372.93 722.284 1371.55 725.616 1371.55 729.09ZM1258.1 794.59C1258.1 798.065 1259.48 801.397 1261.94 803.853C1264.39 806.31 1267.73 807.69 1271.2 807.69C1274.67 807.69 1278.01 806.31 1280.46 803.853C1282.92 801.397 1284.3 798.065 1284.3 794.59C1284.3 791.116 1282.92 787.784 1280.46 785.327C1278.01 782.87 1274.67 781.49 1271.2 781.49C1267.73 781.49 1264.39 782.87 1261.94 785.327C1259.48 787.784 1258.1 791.116 1258.1 794.59ZM1144.65 729.09C1144.65 732.565 1146.03 735.897 1148.49 738.353C1150.94 740.81 1154.28 742.19 1157.75 742.19C1161.22 742.19 1164.56 740.81 1167.01 738.353C1169.47 735.897 1170.85 732.565 1170.85 729.09C1170.85 725.616 1169.47 722.284 1167.01 719.827C1164.56 717.37 1161.22 715.99 1157.75 715.99C1154.28 715.99 1150.94 717.37 1148.49 719.827C1146.03 722.284 1144.65 725.616 1144.65 729.09ZM1144.65 598.09C1144.65 601.565 1146.03 604.897 1148.49 607.353C1150.94 609.81 1154.28 611.19 1157.75 611.19C1161.22 611.19 1164.56 609.81 1167.01 607.353C1169.47 604.897 1170.85 601.565 1170.85 598.09C1170.85 594.616 1169.47 591.284 1167.01 588.827C1164.56 586.37 1161.22 584.99 1157.75 584.99C1154.28 584.99 1150.94 586.37 1148.49 588.827C1146.03 591.284 1144.65 594.616 1144.65 598.09ZM1485 401.59C1485 405.065 1486.38 408.397 1488.84 410.853C1491.29 413.31 1494.63 414.69 1498.1 414.69C1501.57 414.69 1504.91 413.31 1507.36 410.853C1509.82 408.397 1511.2 405.065 1511.2 401.59C1511.2 398.116 1509.82 394.784 1507.36 392.327C1504.91 389.87 1501.57 388.49 1498.1 388.49C1494.63 388.49 1491.29 389.87 1488.84 392.327C1486.38 394.784 1485 398.116 1485 401.59ZM1485 532.59C1485 536.065 1486.38 539.397 1488.84 541.853C1491.29 544.31 1494.63 545.69 1498.1 545.69C1501.57 545.69 1504.91 544.31 1507.36 541.853C1509.82 539.397 1511.2 536.065 1511.2 532.59C1511.2 529.116 1509.82 525.784 1507.36 523.327C1504.91 520.87 1501.57 519.49 1498.1 519.49C1494.63 519.49 1491.29 520.87 1488.84 523.327C1486.38 525.784 1485 529.116 1485 532.59ZM1598.46 598.09C1598.46 601.565 1599.84 604.897 1602.3 607.353C1604.75 609.81 1608.09 611.19 1611.56 611.19C1615.03 611.19 1618.37 609.81 1620.82 607.353C1623.28 604.897 1624.66 601.565 1624.66 598.09C1624.66 594.616 1623.28 591.284 1620.82 588.827C1618.37 586.37 1615.03 584.99 1611.56 584.99C1608.09 584.99 1604.75 586.37 1602.3 588.827C1599.84 591.284 1598.46 594.616 1598.46 598.09ZM1598.46 729.09C1598.46 732.565 1599.84 735.897 1602.3 738.353C1604.75 740.81 1608.09 742.19 1611.56 742.19C1615.03 742.19 1618.37 740.81 1620.82 738.353C1623.28 735.897 1624.66 732.565 1624.66 729.09C1624.66 725.616 1623.28 722.284 1620.82 719.827C1618.37 717.37 1615.03 715.99 1611.56 715.99C1608.09 715.99 1604.75 717.37 1602.3 719.827C1599.84 722.284 1598.46 725.616 1598.46 729.09ZM1485 794.59C1485 798.065 1486.38 801.397 1488.84 803.853C1491.29 806.31 1494.63 807.69 1498.1 807.69C1501.57 807.69 1504.91 806.31 1507.36 803.853C1509.82 801.397 1511.2 798.065 1511.2 794.59C1511.2 791.116 1509.82 787.784 1507.36 785.327C1504.91 782.87 1501.57 781.49 1498.1 781.49C1494.63 781.49 1491.29 782.87 1488.84 785.327C1486.38 787.784 1485 791.116 1485 794.59ZM1485 925.59C1485 929.065 1486.38 932.397 1488.84 934.853C1491.29 937.31 1494.63 938.69 1498.1 938.69C1501.57 938.69 1504.91 937.31 1507.36 934.853C1509.82 932.397 1511.2 929.065 1511.2 925.59C1511.2 922.116 1509.82 918.784 1507.36 916.327C1504.91 913.87 1501.57 912.49 1498.1 912.49C1494.63 912.49 1491.29 913.87 1488.84 916.327C1486.38 918.784 1485 922.116 1485 925.59ZM1371.55 991.09C1371.55 994.565 1372.93 997.896 1375.39 1000.35C1377.84 1002.81 1381.18 1004.19 1384.65 1004.19C1388.12 1004.19 1391.46 1002.81 1393.91 1000.35C1396.37 997.896 1397.75 994.565 1397.75 991.09C1397.75 987.616 1396.37 984.284 1393.91 981.827C1391.46 979.37 1388.12 977.99 1384.65 977.99C1381.18 977.99 1377.84 979.37 1375.39 981.827C1372.93 984.284 1371.55 987.616 1371.55 991.09ZM1258.1 925.59C1258.1 929.065 1259.48 932.397 1261.94 934.853C1264.39 937.31 1267.73 938.69 1271.2 938.69C1274.67 938.69 1278.01 937.31 1280.46 934.853C1282.92 932.397 1284.3 929.065 1284.3 925.59C1284.3 922.116 1282.92 918.784 1280.46 916.327C1278.01 913.87 1274.67 912.49 1271.2 912.49C1267.73 912.49 1264.39 913.87 1261.94 916.327C1259.48 918.784 1258.1 922.116 1258.1 925.59ZM1598.46 991.09C1598.46 994.565 1599.84 997.896 1602.3 1000.35C1604.75 1002.81 1608.09 1004.19 1611.56 1004.19C1615.03 1004.19 1618.37 1002.81 1620.82 1000.35C1623.28 997.896 1624.66 994.565 1624.66 991.09C1624.66 987.616 1623.28 984.284 1620.82 981.827C1618.37 979.37 1615.03 977.99 1611.56 977.99C1608.09 977.99 1604.75 979.37 1602.3 981.827C1599.84 984.284 1598.46 987.616 1598.46 991.09ZM1598.46 1122.09C1598.46 1125.56 1599.84 1128.9 1602.3 1131.35C1604.75 1133.81 1608.09 1135.19 1611.56 1135.19C1615.03 1135.19 1618.37 1133.81 1620.82 1131.35C1623.28 1128.9 1624.66 1125.56 1624.66 1122.09C1624.66 1118.62 1623.28 1115.28 1620.82 1112.83C1618.37 1110.37 1615.03 1108.99 1611.56 1108.99C1608.09 1108.99 1604.75 1110.37 1602.3 1112.83C1599.84 1115.28 1598.46 1118.62 1598.46 1122.09ZM1485 1187.59C1485 1191.06 1486.38 1194.4 1488.84 1196.85C1491.29 1199.31 1494.63 1200.69 1498.1 1200.69C1501.57 1200.69 1504.91 1199.31 1507.36 1196.85C1509.82 1194.4 1511.2 1191.06 1511.2 1187.59C1511.2 1184.12 1509.82 1180.78 1507.36 1178.33C1504.91 1175.87 1501.57 1174.49 1498.1 1174.49C1494.63 1174.49 1491.29 1175.87 1488.84 1178.33C1486.38 1180.78 1485 1184.12 1485 1187.59ZM1371.55 1122.09C1371.55 1125.56 1372.93 1128.9 1375.39 1131.35C1377.84 1133.81 1381.18 1135.19 1384.65 1135.19C1388.12 1135.19 1391.46 1133.81 1393.91 1131.35C1396.37 1128.9 1397.75 1125.56 1397.75 1122.09C1397.75 1118.62 1396.37 1115.28 1393.91 1112.83C1391.46 1110.37 1388.12 1108.99 1384.65 1108.99C1381.18 1108.99 1377.84 1110.37 1375.39 1112.83C1372.93 1115.28 1371.55 1118.62 1371.55 1122.09ZM1485 1580.59C1485 1584.06 1486.38 1587.4 1488.84 1589.85C1491.29 1592.31 1494.63 1593.69 1498.1 1593.69C1501.57 1593.69 1504.91 1592.31 1507.36 1589.85C1509.82 1587.4 1511.2 1584.06 1511.2 1580.59C1511.2 1577.12 1509.82 1573.78 1507.36 1571.33C1504.91 1568.87 1501.57 1567.49 1498.1 1567.49C1494.63 1567.49 1491.29 1568.87 1488.84 1571.33C1486.38 1573.78 1485 1577.12 1485 1580.59ZM1485 1711.59C1485 1715.06 1486.38 1718.4 1488.84 1720.85C1491.29 1723.31 1494.63 1724.69 1498.1 1724.69C1501.57 1724.69 1504.91 1723.31 1507.36 1720.85C1509.82 1718.4 1511.2 1715.06 1511.2 1711.59C1511.2 1708.12 1509.82 1704.78 1507.36 1702.33C1504.91 1699.87 1501.57 1698.49 1498.1 1698.49C1494.63 1698.49 1491.29 1699.87 1488.84 1702.33C1486.38 1704.78 1485 1708.12 1485 1711.59ZM1598.46 -56.9098C1598.46 -53.4354 1599.84 -50.1034 1602.3 -47.6467C1604.75 -45.1899 1608.09 -43.8098 1611.56 -43.8098C1615.03 -43.8098 1618.37 -45.1899 1620.82 -47.6467C1623.28 -50.1034 1624.66 -53.4354 1624.66 -56.9098C1624.66 -60.3841 1623.28 -63.7161 1620.82 -66.1729C1618.37 -68.6296 1615.03 -70.0098 1611.56 -70.0098C1608.09 -70.0098 1604.75 -68.6296 1602.3 -66.1729C1599.84 -63.7161 1598.46 -60.3841 1598.46 -56.9098ZM1711.91 8.59024C1711.91 12.0646 1713.29 15.3966 1715.75 17.8533C1718.2 20.3101 1721.54 21.6902 1725.01 21.6902C1728.48 21.6902 1731.82 20.3101 1734.27 17.8533C1736.73 15.3966 1738.11 12.0646 1738.11 8.59024C1738.11 5.11591 1736.73 1.78387 1734.27 -0.672859C1731.82 -3.12959 1728.48 -4.50977 1725.01 -4.50977C1721.54 -4.50977 1718.2 -3.12959 1715.75 -0.672859C1713.29 1.78387 1711.91 5.11591 1711.91 8.59024ZM1711.91 139.59C1711.91 143.065 1713.29 146.397 1715.75 148.853C1718.2 151.31 1721.54 152.69 1725.01 152.69C1728.48 152.69 1731.82 151.31 1734.27 148.853C1736.73 146.397 1738.11 143.065 1738.11 139.59C1738.11 136.116 1736.73 132.784 1734.27 130.327C1731.82 127.87 1728.48 126.49 1725.01 126.49C1721.54 126.49 1718.2 127.87 1715.75 130.327C1713.29 132.784 1711.91 136.116 1711.91 139.59ZM1598.46 205.09C1598.46 208.565 1599.84 211.897 1602.3 214.353C1604.75 216.81 1608.09 218.19 1611.56 218.19C1615.03 218.19 1618.37 216.81 1620.82 214.353C1623.28 211.897 1624.66 208.565 1624.66 205.09C1624.66 201.616 1623.28 198.284 1620.82 195.827C1618.37 193.37 1615.03 191.99 1611.56 191.99C1608.09 191.99 1604.75 193.37 1602.3 195.827C1599.84 198.284 1598.46 201.616 1598.46 205.09ZM1485 139.59C1485 143.065 1486.38 146.397 1488.84 148.853C1491.29 151.31 1494.63 152.69 1498.1 152.69C1501.57 152.69 1504.91 151.31 1507.36 148.853C1509.82 146.397 1511.2 143.065 1511.2 139.59C1511.2 136.116 1509.82 132.784 1507.36 130.327C1504.91 127.87 1501.57 126.49 1498.1 126.49C1494.63 126.49 1491.29 127.87 1488.84 130.327C1486.38 132.784 1485 136.116 1485 139.59ZM1485 8.59024C1485 12.0646 1486.38 15.3966 1488.84 17.8533C1491.29 20.3101 1494.63 21.6902 1498.1 21.6902C1501.57 21.6902 1504.91 20.3101 1507.36 17.8533C1509.82 15.3966 1511.2 12.0646 1511.2 8.59024C1511.2 5.11591 1509.82 1.78387 1507.36 -0.672859C1504.91 -3.12959 1501.57 -4.50977 1498.1 -4.50977C1494.63 -4.50977 1491.29 -3.12959 1488.84 -0.672859C1486.38 1.78387 1485 5.11591 1485 8.59024ZM1825.36 205.09C1825.36 208.565 1826.74 211.897 1829.2 214.353C1831.65 216.81 1834.99 218.19 1838.46 218.19C1841.93 218.19 1845.27 216.81 1847.72 214.353C1850.18 211.897 1851.56 208.565 1851.56 205.09C1851.56 201.616 1850.18 198.284 1847.72 195.827C1845.27 193.37 1841.93 191.99 1838.46 191.99C1834.99 191.99 1831.65 193.37 1829.2 195.827C1826.74 198.284 1825.36 201.616 1825.36 205.09ZM1825.36 336.09C1825.36 339.565 1826.74 342.897 1829.2 345.353C1831.65 347.81 1834.99 349.19 1838.46 349.19C1841.93 349.19 1845.27 347.81 1847.72 345.353C1850.18 342.897 1851.56 339.565 1851.56 336.09C1851.56 332.616 1850.18 329.284 1847.72 326.827C1845.27 324.37 1841.93 322.99 1838.46 322.99C1834.99 322.99 1831.65 324.37 1829.2 326.827C1826.74 329.284 1825.36 332.616 1825.36 336.09ZM1711.91 401.59C1711.91 405.065 1713.29 408.397 1715.75 410.853C1718.2 413.31 1721.54 414.69 1725.01 414.69C1728.48 414.69 1731.82 413.31 1734.27 410.853C1736.73 408.397 1738.11 405.065 1738.11 401.59C1738.11 398.116 1736.73 394.784 1734.27 392.327C1731.82 389.87 1728.48 388.49 1725.01 388.49C1721.54 388.49 1718.2 389.87 1715.75 392.327C1713.29 394.784 1711.91 398.116 1711.91 401.59ZM1598.46 336.09C1598.46 339.565 1599.84 342.897 1602.3 345.353C1604.75 347.81 1608.09 349.19 1611.56 349.19C1615.03 349.19 1618.37 347.81 1620.82 345.353C1623.28 342.897 1624.66 339.565 1624.66 336.09C1624.66 332.616 1623.28 329.284 1620.82 326.827C1618.37 324.37 1615.03 322.99 1611.56 322.99C1608.09 322.99 1604.75 324.37 1602.3 326.827C1599.84 329.284 1598.46 332.616 1598.46 336.09ZM1711.91 532.59C1711.91 536.065 1713.29 539.397 1715.75 541.853C1718.2 544.31 1721.54 545.69 1725.01 545.69C1728.48 545.69 1731.82 544.31 1734.27 541.853C1736.73 539.397 1738.11 536.065 1738.11 532.59C1738.11 529.116 1736.73 525.784 1734.27 523.327C1731.82 520.87 1728.48 519.49 1725.01 519.49C1721.54 519.49 1718.2 520.87 1715.75 523.327C1713.29 525.784 1711.91 529.116 1711.91 532.59ZM1711.91 925.59C1711.91 929.065 1713.29 932.397 1715.75 934.853C1718.2 937.31 1721.54 938.69 1725.01 938.69C1728.48 938.69 1731.82 937.31 1734.27 934.853C1736.73 932.397 1738.11 929.065 1738.11 925.59C1738.11 922.116 1736.73 918.784 1734.27 916.327C1731.82 913.87 1728.48 912.49 1725.01 912.49C1721.54 912.49 1718.2 913.87 1715.75 916.327C1713.29 918.784 1711.91 922.116 1711.91 925.59ZM1825.36 991.09C1825.36 994.565 1826.74 997.896 1829.2 1000.35C1831.65 1002.81 1834.99 1004.19 1838.46 1004.19C1841.93 1004.19 1845.27 1002.81 1847.72 1000.35C1850.18 997.896 1851.56 994.565 1851.56 991.09C1851.56 987.616 1850.18 984.284 1847.72 981.827C1845.27 979.37 1841.93 977.99 1838.46 977.99C1834.99 977.99 1831.65 979.37 1829.2 981.827C1826.74 984.284 1825.36 987.616 1825.36 991.09ZM1825.36 1122.09C1825.36 1125.56 1826.74 1128.9 1829.2 1131.35C1831.65 1133.81 1834.99 1135.19 1838.46 1135.19C1841.93 1135.19 1845.27 1133.81 1847.72 1131.35C1850.18 1128.9 1851.56 1125.56 1851.56 1122.09C1851.56 1118.62 1850.18 1115.28 1847.72 1112.83C1845.27 1110.37 1841.93 1108.99 1838.46 1108.99C1834.99 1108.99 1831.65 1110.37 1829.2 1112.83C1826.74 1115.28 1825.36 1118.62 1825.36 1122.09ZM1711.91 1187.59C1711.91 1191.06 1713.29 1194.4 1715.75 1196.85C1718.2 1199.31 1721.54 1200.69 1725.01 1200.69C1728.48 1200.69 1731.82 1199.31 1734.27 1196.85C1736.73 1194.4 1738.11 1191.06 1738.11 1187.59C1738.11 1184.12 1736.73 1180.78 1734.27 1178.33C1731.82 1175.87 1728.48 1174.49 1725.01 1174.49C1721.54 1174.49 1718.2 1175.87 1715.75 1178.33C1713.29 1180.78 1711.91 1184.12 1711.91 1187.59ZM1598.46 1515.09C1598.46 1518.56 1599.84 1521.9 1602.3 1524.35C1604.75 1526.81 1608.09 1528.19 1611.56 1528.19C1615.03 1528.19 1618.37 1526.81 1620.82 1524.35C1623.28 1521.9 1624.66 1518.56 1624.66 1515.09C1624.66 1511.62 1623.28 1508.28 1620.82 1505.83C1618.37 1503.37 1615.03 1501.99 1611.56 1501.99C1608.09 1501.99 1604.75 1503.37 1602.3 1505.83C1599.84 1508.28 1598.46 1511.62 1598.46 1515.09ZM1711.91 1580.59C1711.91 1584.06 1713.29 1587.4 1715.75 1589.85C1718.2 1592.31 1721.54 1593.69 1725.01 1593.69C1728.48 1593.69 1731.82 1592.31 1734.27 1589.85C1736.73 1587.4 1738.11 1584.06 1738.11 1580.59C1738.11 1577.12 1736.73 1573.78 1734.27 1571.33C1731.82 1568.87 1728.48 1567.49 1725.01 1567.49C1721.54 1567.49 1718.2 1568.87 1715.75 1571.33C1713.29 1573.78 1711.91 1577.12 1711.91 1580.59ZM1711.91 1711.59C1711.91 1715.06 1713.29 1718.4 1715.75 1720.85C1718.2 1723.31 1721.54 1724.69 1725.01 1724.69C1728.48 1724.69 1731.82 1723.31 1734.27 1720.85C1736.73 1718.4 1738.11 1715.06 1738.11 1711.59C1738.11 1708.12 1736.73 1704.78 1734.27 1702.33C1731.82 1699.87 1728.48 1698.49 1725.01 1698.49C1721.54 1698.49 1718.2 1699.87 1715.75 1702.33C1713.29 1704.78 1711.91 1708.12 1711.91 1711.59ZM1598.46 1777.09C1598.46 1780.56 1599.84 1783.9 1602.3 1786.35C1604.75 1788.81 1608.09 1790.19 1611.56 1790.19C1615.03 1790.19 1618.37 1788.81 1620.82 1786.35C1623.28 1783.9 1624.66 1780.56 1624.66 1777.09C1624.66 1773.62 1623.28 1770.28 1620.82 1767.83C1618.37 1765.37 1615.03 1763.99 1611.56 1763.99C1608.09 1763.99 1604.75 1765.37 1602.3 1767.83C1599.84 1770.28 1598.46 1773.62 1598.46 1777.09ZM1938.81 401.59C1938.81 405.065 1940.19 408.397 1942.65 410.853C1945.1 413.31 1948.44 414.69 1951.91 414.69C1955.38 414.69 1958.72 413.31 1961.17 410.853C1963.63 408.397 1965.01 405.065 1965.01 401.59C1965.01 398.116 1963.63 394.784 1961.17 392.327C1958.72 389.87 1955.38 388.49 1951.91 388.49C1948.44 388.49 1945.1 389.87 1942.65 392.327C1940.19 394.784 1938.81 398.116 1938.81 401.59ZM1938.81 532.59C1938.81 536.065 1940.19 539.397 1942.65 541.853C1945.1 544.31 1948.44 545.69 1951.91 545.69C1955.38 545.69 1958.72 544.31 1961.17 541.853C1963.63 539.397 1965.01 536.065 1965.01 532.59C1965.01 529.116 1963.63 525.784 1961.17 523.327C1958.72 520.87 1955.38 519.49 1951.91 519.49C1948.44 519.49 1945.1 520.87 1942.65 523.327C1940.19 525.784 1938.81 529.116 1938.81 532.59ZM1825.36 598.09C1825.36 601.565 1826.74 604.897 1829.2 607.353C1831.65 609.81 1834.99 611.19 1838.46 611.19C1841.93 611.19 1845.27 609.81 1847.72 607.353C1850.18 604.897 1851.56 601.565 1851.56 598.09C1851.56 594.616 1850.18 591.284 1847.72 588.827C1845.27 586.37 1841.93 584.99 1838.46 584.99C1834.99 584.99 1831.65 586.37 1829.2 588.827C1826.74 591.284 1825.36 594.616 1825.36 598.09ZM1938.81 1187.59C1938.81 1191.06 1940.19 1194.4 1942.65 1196.85C1945.1 1199.31 1948.44 1200.69 1951.91 1200.69C1955.38 1200.69 1958.72 1199.31 1961.17 1196.85C1963.63 1194.4 1965.01 1191.06 1965.01 1187.59C1965.01 1184.12 1963.63 1180.78 1961.17 1178.33C1958.72 1175.87 1955.38 1174.49 1951.91 1174.49C1948.44 1174.49 1945.1 1175.87 1942.65 1178.33C1940.19 1180.78 1938.81 1184.12 1938.81 1187.59ZM1938.81 1318.59C1938.81 1322.06 1940.19 1325.4 1942.65 1327.85C1945.1 1330.31 1948.44 1331.69 1951.91 1331.69C1955.38 1331.69 1958.72 1330.31 1961.17 1327.85C1963.63 1325.4 1965.01 1322.06 1965.01 1318.59C1965.01 1315.12 1963.63 1311.78 1961.17 1309.33C1958.72 1306.87 1955.38 1305.49 1951.91 1305.49C1948.44 1305.49 1945.1 1306.87 1942.65 1309.33C1940.19 1311.78 1938.81 1315.12 1938.81 1318.59ZM1825.36 1384.09C1825.36 1387.56 1826.74 1390.9 1829.2 1393.35C1831.65 1395.81 1834.99 1397.19 1838.46 1397.19C1841.93 1397.19 1845.27 1395.81 1847.72 1393.35C1850.18 1390.9 1851.56 1387.56 1851.56 1384.09C1851.56 1380.62 1850.18 1377.28 1847.72 1374.83C1845.27 1372.37 1841.93 1370.99 1838.46 1370.99C1834.99 1370.99 1831.65 1372.37 1829.2 1374.83C1826.74 1377.28 1825.36 1380.62 1825.36 1384.09ZM1711.91 1318.59C1711.91 1322.06 1713.29 1325.4 1715.75 1327.85C1718.2 1330.31 1721.54 1331.69 1725.01 1331.69C1728.48 1331.69 1731.82 1330.31 1734.27 1327.85C1736.73 1325.4 1738.11 1322.06 1738.11 1318.59C1738.11 1315.12 1736.73 1311.78 1734.27 1309.33C1731.82 1306.87 1728.48 1305.49 1725.01 1305.49C1721.54 1305.49 1718.2 1306.87 1715.75 1309.33C1713.29 1311.78 1711.91 1315.12 1711.91 1318.59Z"
    fill="#2BA84A"
    fill-opacity="0.17"
  />
<path
    d="M159.26 75.3701L243.26 123.87M159.26 75.3701L75.25 123.87V220.87M159.26 75.3701V-21.6299L243.26 -70.1299L327.27 -21.6299V75.3701M243.26 123.87V220.87M243.26 123.87L327.27 75.3701M243.26 220.87L159.26 269.37M243.26 220.87L327.27 269.37M159.26 269.37L75.25 220.87M159.26 269.37V366.37M75.25 220.87L-8.76001 269.37V366.37L75.25 414.87M159.26 366.37L75.25 414.87M159.26 366.37L243.26 414.87M75.25 414.87V511.87L159.26 560.37M243.26 414.87V511.87M243.26 414.87L327.27 366.37M243.26 511.87L159.26 560.37M243.26 511.87L327.27 560.37M159.26 560.37V657.37M159.26 657.37L243.26 705.87M159.26 657.37L75.25 705.87V802.87L159.26 851.37L243.26 802.87V705.87M243.26 705.87L327.27 657.37V560.37M327.27 75.3701L411.28 123.87V220.87M411.28 220.87L327.27 269.37M411.28 220.87L495.28 269.37V366.37L411.28 414.87M327.27 269.37V366.37M327.27 366.37L411.28 414.87M411.28 414.87V511.87L327.27 560.37M579.29 705.87L495.28 657.37L411.28 705.87V802.87L495.28 851.37L579.29 802.87M579.29 705.87V802.87M579.29 705.87L663.3 657.37L747.3 705.87V802.87L663.3 851.37L579.29 802.87M1083.33 414.87L999.33 366.37L915.32 414.87V511.87M1083.33 414.87V511.87M1083.33 414.87L1167.34 366.37M1083.33 511.87L999.33 560.37M1083.33 511.87L1167.34 560.37L1251.35 511.87V414.87M999.33 560.37L915.32 511.87M999.33 560.37V657.37L915.32 705.87L831.31 657.37V560.37L915.32 511.87M1167.34 -21.6299L1083.33 -70.1299L999.33 -21.6299V75.3701L1083.33 123.87L1167.34 75.3701M1167.34 -21.6299V75.3701M1167.34 -21.6299L1251.35 -70.1299L1335.35 -21.6299V75.3701L1251.35 123.87L1167.34 75.3701M1167.34 366.37L1251.35 414.87M1167.34 366.37V269.37L1251.35 220.87L1335.35 269.37V366.37L1251.35 414.87M915.32 2063.87L831.31 2015.37V1918.37L915.32 1869.87L999.32 1918.37V2015.37M915.32 2063.87L999.32 2015.37M915.32 2063.87V2112.37V2160.87L999.32 2209.37L1083.33 2160.87V2063.87L999.32 2015.37M1419.36 996.87L1335.35 948.37L1251.35 996.87V1093.87L1335.35 1142.37M1419.36 996.87V1093.87M1419.36 996.87L1503.37 948.37L1587.37 996.87V1093.87L1503.37 1142.37M1419.36 1093.87L1335.35 1142.37M1419.36 1093.87L1503.37 1142.37M1335.35 1142.37V1239.37L1419.36 1287.87L1503.37 1239.37V1142.37M1335.35 1433.37L1251.35 1384.87L1167.34 1433.37V1530.37L1251.35 1578.87L1335.35 1530.37M1335.35 1433.37V1530.37M1335.35 1433.37L1419.36 1384.87L1503.37 1433.37V1530.37L1419.36 1578.87L1335.35 1530.37M1503.37 366.37L1587.37 414.87M1503.37 366.37L1419.36 414.87V511.87M1503.37 366.37V269.37L1587.37 220.87M1587.37 414.87V511.87M1587.37 414.87L1671.38 366.37M1587.37 511.87L1503.37 560.37M1587.37 511.87L1671.38 560.37M1503.37 560.37L1419.36 511.87M1503.37 560.37V657.37M1419.36 511.87L1335.35 560.37V657.37L1419.36 705.87M1503.37 657.37L1419.36 705.87M1503.37 657.37L1587.37 705.87M1419.36 705.87V802.87L1503.37 851.37L1587.37 802.87M1587.37 705.87V802.87M1587.37 705.87L1671.38 657.37M1587.37 802.87L1671.38 851.37L1755.39 802.87V705.87M1671.38 75.3701L1755.39 123.87M1671.38 75.3701L1587.37 123.87V220.87M1671.38 75.3701V-21.6299L1755.39 -70.1299L1839.39 -21.6299M1755.39 123.87V220.87L1671.38 269.37M1755.39 123.87L1839.39 75.3701M1671.38 269.37L1587.37 220.87M1671.38 269.37V366.37M1671.38 366.37L1755.39 414.87V511.87M1755.39 511.87L1671.38 560.37M1755.39 511.87L1839.39 560.37V657.37L1755.39 705.87M1671.38 560.37V657.37M1671.38 657.37L1755.39 705.87M1839.39 -21.6299V75.3701M1839.39 -21.6299L1923.4 -70.1299L2007.41 -21.6299V75.3701L1923.4 123.87L1839.39 75.3701M159.26 1821.37L243.26 1869.87V1966.87L159.26 2015.37L75.25 1966.87V1869.87L159.26 1821.37ZM327.27 948.37L411.28 996.87V1093.87L327.27 1142.37L243.26 1093.87V996.87L327.27 948.37ZM159.25 1239.37L243.26 1287.87V1384.87L159.25 1433.37L75.25 1384.87V1287.87L159.25 1239.37ZM495.28 1724.37L411.28 1675.87L327.27 1724.37V1821.37L411.28 1869.87L495.28 1821.37V1724.37ZM663.3 75.3701L747.3 123.87V220.87L663.3 269.37L579.29 220.87V123.87L663.3 75.3701ZM663.3 1384.87L747.3 1433.37V1530.37L663.3 1578.87L579.29 1530.37V1433.37L663.3 1384.87ZM999.33 948.37L1083.33 996.87V1093.87L999.33 1142.37L915.32 1093.87V996.87L999.33 948.37ZM1755.39 1675.87L1839.39 1724.37V1821.37L1755.39 1869.87L1671.38 1821.37V1724.37L1755.39 1675.87ZM1923.4 220.87L2007.41 269.37V366.37L1923.4 414.87L1839.39 366.37V269.37L1923.4 220.87ZM1923.4 1384.87L2007.41 1433.37V1530.37L1923.4 1578.87L1839.39 1530.37V1433.37L1923.4 1384.87Z"
    stroke="#0EC1D9"
    stroke-opacity="0.16"
    stroke-width="2"
  />
</svg>
