<svg width="291" height="151" viewBox="0 0 291 151" fill="none" xmlns="http://www.w3.org/2000/svg">
    <path d="M78.4 40.8V110H69.3V58.4L46.3 110H39.9L16.8 58.3V110H7.7V40.8H17.5L43.1 98L68.7 40.8H78.4ZM141.033 55.2L108.033 135.8H98.6328L109.433 109.4L87.3328 55.2H97.4328L114.633 99.6L131.633 55.2H141.033Z" fill="#060137" />
    <rect x="221" width="70" height="70" rx="15" fill="#060137" />
    <rect x="221" y="75" width="70" height="70" rx="15" fill="#2BA84A" />
    <rect x="146" width="70" height="70" rx="15" fill="#060137" />
    <rect x="146" y="75" width="70" height="70" rx="15" fill="#060137" />
    <path d="M171.92 104.01C173.133 101.887 174.91 100.153 177.25 98.81C179.59 97.4667 182.255 96.795 185.245 96.795C188.452 96.795 191.333 97.5533 193.89 99.07C196.447 100.587 198.462 102.732 199.935 105.505C201.408 108.235 202.145 111.42 202.145 115.06C202.145 118.657 201.408 121.863 199.935 124.68C198.462 127.497 196.425 129.685 193.825 131.245C191.268 132.805 188.408 133.585 185.245 133.585C182.168 133.585 179.46 132.913 177.12 131.57C174.823 130.227 173.09 128.515 171.92 126.435V133H166.005V84.9H171.92V104.01ZM196.1 115.06C196.1 112.373 195.558 110.033 194.475 108.04C193.392 106.047 191.918 104.53 190.055 103.49C188.235 102.45 186.22 101.93 184.01 101.93C181.843 101.93 179.828 102.472 177.965 103.555C176.145 104.595 174.672 106.133 173.545 108.17C172.462 110.163 171.92 112.482 171.92 115.125C171.92 117.812 172.462 120.173 173.545 122.21C174.672 124.203 176.145 125.742 177.965 126.825C179.828 127.865 181.843 128.385 184.01 128.385C186.22 128.385 188.235 127.865 190.055 126.825C191.918 125.742 193.392 124.203 194.475 122.21C195.558 120.173 196.1 117.79 196.1 115.06Z" fill="white" />
    <path d="M236.795 35.06C236.795 31.42 237.532 28.235 239.005 25.505C240.478 22.7317 242.493 20.5867 245.05 19.07C247.65 17.5533 250.532 16.795 253.695 16.795C256.815 16.795 259.523 17.4667 261.82 18.81C264.117 20.1533 265.828 21.8433 266.955 23.88V17.38H272.935V53H266.955V46.37C265.785 48.45 264.03 50.1833 261.69 51.57C259.393 52.9133 256.707 53.585 253.63 53.585C250.467 53.585 247.607 52.805 245.05 51.245C242.493 49.685 240.478 47.4967 239.005 44.68C237.532 41.8633 236.795 38.6567 236.795 35.06ZM266.955 35.125C266.955 32.4383 266.413 30.0983 265.33 28.105C264.247 26.1117 262.773 24.595 260.91 23.555C259.09 22.4717 257.075 21.93 254.865 21.93C252.655 21.93 250.64 22.45 248.82 23.49C247 24.53 245.548 26.0467 244.465 28.04C243.382 30.0333 242.84 32.3733 242.84 35.06C242.84 37.79 243.382 40.1733 244.465 42.21C245.548 44.2033 247 45.7417 248.82 46.825C250.64 47.865 252.655 48.385 254.865 48.385C257.075 48.385 259.09 47.865 260.91 46.825C262.773 45.7417 264.247 44.2033 265.33 42.21C266.413 40.1733 266.955 37.8117 266.955 35.125Z" fill="white" />
    <path d="M256.615 127.585C253.885 127.585 251.437 127.13 249.27 126.22C247.103 125.267 245.392 123.967 244.135 122.32C242.878 120.63 242.185 118.702 242.055 116.535H248.165C248.338 118.312 249.162 119.763 250.635 120.89C252.152 122.017 254.123 122.58 256.55 122.58C258.803 122.58 260.58 122.082 261.88 121.085C263.18 120.088 263.83 118.832 263.83 117.315C263.83 115.755 263.137 114.607 261.75 113.87C260.363 113.09 258.218 112.332 255.315 111.595C252.672 110.902 250.505 110.208 248.815 109.515C247.168 108.778 245.738 107.717 244.525 106.33C243.355 104.9 242.77 103.037 242.77 100.74C242.77 98.92 243.312 97.2517 244.395 95.735C245.478 94.2183 247.017 93.0267 249.01 92.16C251.003 91.25 253.278 90.795 255.835 90.795C259.778 90.795 262.963 91.7917 265.39 93.785C267.817 95.7783 269.117 98.5083 269.29 101.975H263.375C263.245 100.112 262.487 98.6167 261.1 97.49C259.757 96.3633 257.937 95.8 255.64 95.8C253.517 95.8 251.827 96.255 250.57 97.165C249.313 98.075 248.685 99.2667 248.685 100.74C248.685 101.91 249.053 102.885 249.79 103.665C250.57 104.402 251.523 105.008 252.65 105.485C253.82 105.918 255.423 106.417 257.46 106.98C260.017 107.673 262.097 108.367 263.7 109.06C265.303 109.71 266.668 110.707 267.795 112.05C268.965 113.393 269.572 115.148 269.615 117.315C269.615 119.265 269.073 121.02 267.99 122.58C266.907 124.14 265.368 125.375 263.375 126.285C261.425 127.152 259.172 127.585 256.615 127.585Z" fill="white" />
    <path d="M177.92 53.19H193.78V58H172.005V12.695H177.92V53.19Z" fill="white" />
</svg>