<svg width="641" height="509" viewBox="0 0 641 509" fill="none" xmlns="http://www.w3.org/2000/svg">
    <path opacity="0.856" fill-rule="evenodd" clip-rule="evenodd" d="M179.5 2.5C154.076 11.2792 128.41 19.6125 102.5 27.5C101.167 26.8333 99.8333 26.1667 98.5 25.5C123.996 17.0021 149.663 8.66875 175.5 0.5C176.86 1.17994 178.193 1.84661 179.5 2.5Z" fill="#6E6D6E" />
    <path opacity="0.927" fill-rule="evenodd" clip-rule="evenodd" d="M179.5 2.5C180.497 20.9925 180.83 39.6592 180.5 58.5C170.121 61.3446 159.788 64.3446 149.5 67.5C142.205 69.2649 135.205 71.5983 128.5 74.5C119.894 77.3688 111.227 80.0354 102.5 82.5C102.5 64.1667 102.5 45.8333 102.5 27.5C128.41 19.6125 154.076 11.2792 179.5 2.5Z" fill="#444544" />
    <path opacity="0.818" fill-rule="evenodd" clip-rule="evenodd" d="M98.5 25.5C99.8333 26.1667 101.167 26.8333 102.5 27.5C102.5 45.8333 102.5 64.1667 102.5 82.5C100.83 82.2488 99.3297 81.5822 98 80.5C97.5006 75.1771 97.334 69.8437 97.5 64.5C98.8333 63.1667 98.8333 61.8333 97.5 60.5C97.1717 48.6547 97.5051 36.988 98.5 25.5Z" fill="#585858" />
    <path fill-rule="evenodd" clip-rule="evenodd" d="M171.5 8.5C172.833 8.5 174.167 8.5 175.5 8.5C175.5 24.1667 175.5 39.8333 175.5 55.5C152.194 62.4898 128.861 69.4898 105.5 76.5C105.5 60.8333 105.5 45.1667 105.5 29.5C127.788 23.1007 149.788 16.1007 171.5 8.5Z" fill="#61B99D" />
    <path fill-rule="evenodd" clip-rule="evenodd" d="M171.5 16.5C171.832 29.1842 171.499 41.8508 170.5 54.5C150.197 61.046 129.864 67.3793 109.5 73.5C109.5 60.8333 109.5 48.1667 109.5 35.5C130.053 28.7599 150.719 22.4266 171.5 16.5Z" fill="#F5F4F4" />
    <path fill-rule="evenodd" clip-rule="evenodd" d="M148.5 25.5C149.812 30.0152 149.812 34.6819 148.5 39.5C146.618 40.0933 144.785 40.7599 143 41.5C142.333 36.8333 142.333 32.1667 143 27.5C144.948 26.8906 146.782 26.224 148.5 25.5Z" fill="#06B7CF" />
    <path fill-rule="evenodd" clip-rule="evenodd" d="M156.5 22.5C157.5 22.5 158.5 22.5 159.5 22.5C159.5 27.1667 159.5 31.8333 159.5 36.5C157.173 36.6646 155.007 37.3313 153 38.5C152.333 33.8333 152.333 29.1667 153 24.5C154.302 23.9152 155.469 23.2485 156.5 22.5Z" fill="#F08367" />
    <path fill-rule="evenodd" clip-rule="evenodd" d="M168.5 19.5C169.812 24.0152 169.812 28.6819 168.5 33.5C166.5 34.1667 164.5 34.8333 162.5 35.5C161.167 30.8333 161.167 26.1667 162.5 21.5C164.657 20.9495 166.657 20.2829 168.5 19.5Z" fill="#06B7CF" />
    <path fill-rule="evenodd" clip-rule="evenodd" d="M171.5 16.5C150.719 22.4266 130.053 28.7599 109.5 35.5C109.286 33.8561 109.62 32.3561 110.5 31C130.521 23.7144 150.855 17.5477 171.5 12.5C171.5 13.8333 171.5 15.1667 171.5 16.5Z" fill="#484949" />
    <path fill-rule="evenodd" clip-rule="evenodd" d="M136.5 28.5C137.833 28.5 139.167 28.5 140.5 28.5C140.5 33.1667 140.5 37.8333 140.5 42.5C137.951 42.3874 135.618 43.0541 133.5 44.5C132.338 39.8687 132.172 35.202 133 30.5C134.302 29.9152 135.469 29.2485 136.5 28.5Z" fill="#F08367" />
    <path fill-rule="evenodd" clip-rule="evenodd" d="M127.5 31.5C128.5 31.5 129.5 31.5 130.5 31.5C130.5 42.5 130.5 53.5 130.5 64.5C124.5 66.1667 118.5 67.8333 112.5 69.5C112.168 58.4798 112.501 47.4798 113.5 36.5C118.265 34.8029 122.932 33.1362 127.5 31.5Z" fill="#06B7CF" />
    <path fill-rule="evenodd" clip-rule="evenodd" d="M165.5 36.5C166.833 36.5 168.167 36.5 169.5 36.5C169.805 41.7616 169.471 46.9283 168.5 52C156.723 55.5367 145.057 59.3701 133.5 63.5C132.194 57.9462 132.194 52.4462 133.5 47C144.374 43.7637 155.041 40.2637 165.5 36.5Z" fill="#F08367" />
    <path opacity="0.981" fill-rule="evenodd" clip-rule="evenodd" d="M427.5 139.5C401.661 139.169 375.995 139.502 350.5 140.5C349.715 138.626 349.048 136.626 348.5 134.5C372.833 134.5 397.167 134.5 421.5 134.5C421.5 104.167 421.5 73.8333 421.5 43.5C354.167 43.5 286.833 43.5 219.5 43.5C219.5 73.8333 219.5 104.167 219.5 134.5C243.5 134.5 267.5 134.5 291.5 134.5C290.699 136.042 290.366 137.708 290.5 139.5C264.833 139.5 239.167 139.5 213.5 139.5C213.333 106.498 213.5 73.4983 214 40.5C214.5 40 215 39.5 215.5 39C285.5 38.3333 355.5 38.3333 425.5 39C426 39.5 426.5 40 427 40.5C427.5 73.4983 427.667 106.498 427.5 139.5Z" fill="#424242" />
    <path fill-rule="evenodd" clip-rule="evenodd" d="M348.5 134.5C348.5 134.167 348.5 133.833 348.5 133.5C372.5 133.5 396.5 133.5 420.5 133.5C420.5 103.833 420.5 74.1667 420.5 44.5C353.833 44.5 287.167 44.5 220.5 44.5C220.5 74.1667 220.5 103.833 220.5 133.5C244.167 133.5 267.833 133.5 291.5 133.5C291.5 133.833 291.5 134.167 291.5 134.5C267.5 134.5 243.5 134.5 219.5 134.5C219.5 104.167 219.5 73.8333 219.5 43.5C286.833 43.5 354.167 43.5 421.5 43.5C421.5 73.8333 421.5 104.167 421.5 134.5C397.167 134.5 372.833 134.5 348.5 134.5Z" fill="#4D7568" />
    <path fill-rule="evenodd" clip-rule="evenodd" d="M348.5 133.5C368.98 131.837 389.646 130.837 410.5 130.5C410.5 104.5 410.5 78.5 410.5 52.5C410.67 51.1779 410.337 50.0113 409.5 49C350.167 48.3333 290.833 48.3333 231.5 49C230.663 50.0113 230.33 51.1779 230.5 52.5C230.5 78.5 230.5 104.5 230.5 130.5C251.021 130.837 271.354 131.837 291.5 133.5C267.833 133.5 244.167 133.5 220.5 133.5C220.5 103.833 220.5 74.1667 220.5 44.5C287.167 44.5 353.833 44.5 420.5 44.5C420.5 74.1667 420.5 103.833 420.5 133.5C396.5 133.5 372.5 133.5 348.5 133.5Z" fill="#5FC0A3" />
    <path fill-rule="evenodd" clip-rule="evenodd" d="M410.5 52.5C350.5 52.5 290.5 52.5 230.5 52.5C230.33 51.1779 230.663 50.0113 231.5 49C290.833 48.3333 350.167 48.3333 409.5 49C410.337 50.0113 410.67 51.1779 410.5 52.5Z" fill="#06B7CF" />
    <path fill-rule="evenodd" clip-rule="evenodd" d="M230.5 52.5C290.5 52.5 350.5 52.5 410.5 52.5C410.5 78.5 410.5 104.5 410.5 130.5C389.5 130.5 368.5 130.5 347.5 130.5C347.018 129.584 346.685 128.584 346.5 127.5C347.651 125.675 348.318 123.675 348.5 121.5C346.265 121.795 344.265 121.461 342.5 120.5C349.167 120.5 355.833 120.5 362.5 120.5C362.5 119.167 362.5 117.833 362.5 116.5C353.983 116.174 345.65 116.507 337.5 117.5C326.667 112.553 315.667 112.22 304.5 116.5C296.833 116.5 289.167 116.5 281.5 116.5C281.5 117.833 281.5 119.167 281.5 120.5C287.167 120.5 292.833 120.5 298.5 120.5C298.068 121.71 297.401 122.71 296.5 123.5C289.167 122.167 281.833 122.167 274.5 123.5C274.5 124.833 274.5 126.167 274.5 127.5C280.833 127.5 287.167 127.5 293.5 127.5C293.443 128.609 293.11 129.609 292.5 130.5C271.833 130.5 251.167 130.5 230.5 130.5C230.5 104.5 230.5 78.5 230.5 52.5Z" fill="#394951" />
    <path fill-rule="evenodd" clip-rule="evenodd" d="M256.5 54.5C257.832 66.4814 258.499 78.8148 258.5 91.5C258.167 103.833 257.833 116.167 257.5 128.5C256.5 103.842 256.167 79.1757 256.5 54.5Z" fill="#E0E2E3" />
    <path fill-rule="evenodd" clip-rule="evenodd" d="M324.5 56.5C324.167 56.5 323.833 56.5 323.5 56.5C309.833 56.5 296.167 56.5 282.5 56.5C282.5 57.5 282.5 58.5 282.5 59.5C282.5 59.8333 282.5 60.1667 282.5 60.5C281.549 59.0813 281.216 57.4147 281.5 55.5C296.01 55.1707 310.343 55.5041 324.5 56.5Z" fill="#737E83" />
    <path fill-rule="evenodd" clip-rule="evenodd" d="M261.5 56.5C267.5 56.5 273.5 56.5 279.5 56.5C279.5 57.8333 279.5 59.1667 279.5 60.5C273.5 60.5 267.5 60.5 261.5 60.5C261.5 59.1667 261.5 57.8333 261.5 56.5Z" fill="#F08367" />
    <path fill-rule="evenodd" clip-rule="evenodd" d="M323.5 56.5C323.5 57.5 323.5 58.5 323.5 59.5C309.833 59.5 296.167 59.5 282.5 59.5C282.5 58.5 282.5 57.5 282.5 56.5C296.167 56.5 309.833 56.5 323.5 56.5Z" fill="#FEFFFE" />
    <path fill-rule="evenodd" clip-rule="evenodd" d="M361.5 56.5C361.5 57.5 361.5 58.5 361.5 59.5C349.833 59.5 338.167 59.5 326.5 59.5C326.5 58.5 326.5 57.5 326.5 56.5C338.167 56.5 349.833 56.5 361.5 56.5Z" fill="#FEFFFE" />
    <path fill-rule="evenodd" clip-rule="evenodd" d="M364.5 56.5C369.833 56.5 375.167 56.5 380.5 56.5C380.5 57.8333 380.5 59.1667 380.5 60.5C375.167 60.5 369.833 60.5 364.5 60.5C364.5 59.1667 364.5 57.8333 364.5 56.5Z" fill="#F6F6F6" />
    <path fill-rule="evenodd" clip-rule="evenodd" d="M243.5 56.5C247.167 56.5 250.833 56.5 254.5 56.5C254.5 57.8333 254.5 59.1667 254.5 60.5C250.833 60.5 247.167 60.5 243.5 60.5C243.5 59.1667 243.5 57.8333 243.5 56.5Z" fill="#E1E3E4" />
    <path fill-rule="evenodd" clip-rule="evenodd" d="M323.5 56.5C323.833 56.5 324.167 56.5 324.5 56.5C324.5 57.8333 324.5 59.1667 324.5 60.5C310.5 60.5 296.5 60.5 282.5 60.5C282.5 60.1667 282.5 59.8333 282.5 59.5C296.167 59.5 309.833 59.5 323.5 59.5C323.5 58.5 323.5 57.5 323.5 56.5Z" fill="#D2D5D6" />
    <path fill-rule="evenodd" clip-rule="evenodd" d="M361.5 56.5C362.434 57.5676 362.768 58.901 362.5 60.5C350.322 60.8284 338.322 60.4951 326.5 59.5C338.167 59.5 349.833 59.5 361.5 59.5C361.5 58.5 361.5 57.5 361.5 56.5Z" fill="#D2D5D6" />
    <path opacity="0.711" fill-rule="evenodd" clip-rule="evenodd" d="M97.5 60.5C98.8333 61.8333 98.8333 63.1667 97.5 64.5C96.2921 65.2341 94.9587 65.5674 93.5 65.5C93.5 76.1667 93.5 86.8333 93.5 97.5C91.9582 98.3007 90.2915 98.634 88.5 98.5C88.5 86.5 88.5 74.5 88.5 62.5C91.5979 62.2444 94.5979 61.5778 97.5 60.5Z" fill="#434343" />
    <path fill-rule="evenodd" clip-rule="evenodd" d="M243.5 62.5C247.167 62.5 250.833 62.5 254.5 62.5C254.5 64.1667 254.5 65.8333 254.5 67.5C250.833 67.5 247.167 67.5 243.5 67.5C243.5 65.8333 243.5 64.1667 243.5 62.5Z" fill="#D9DCDD" />
    <path fill-rule="evenodd" clip-rule="evenodd" d="M274.5 62.5C286.5 62.5 298.5 62.5 310.5 62.5C310.5 64.1667 310.5 65.8333 310.5 67.5C298.5 67.5 286.5 67.5 274.5 67.5C274.5 65.8333 274.5 64.1667 274.5 62.5Z" fill="#06B7CF" />
    <path fill-rule="evenodd" clip-rule="evenodd" d="M312.5 63.5C320.5 63.5 328.5 63.5 336.5 63.5C336.5 64.5 336.5 65.5 336.5 66.5C328.5 66.5 320.5 66.5 312.5 66.5C312.5 65.5 312.5 64.5 312.5 63.5Z" fill="#FDFDFD" />
    <path opacity="0.886" fill-rule="evenodd" clip-rule="evenodd" d="M198.5 67.5C160.052 80.2036 121.385 92.5369 82.5 104.5C80.847 104.34 79.5137 103.674 78.5 102.5C81.6827 100.99 85.016 99.6567 88.5 98.5C90.2915 98.634 91.9582 98.3007 93.5 97.5C105.01 93.3718 116.677 89.7051 128.5 86.5C135.647 84.3398 142.647 82.0065 149.5 79.5C164.482 74.8396 179.482 70.173 194.5 65.5C196.171 65.6682 197.504 66.3349 198.5 67.5Z" fill="#6F6E6F" />
    <path opacity="0.86" fill-rule="evenodd" clip-rule="evenodd" d="M562.5 102.5C561.486 103.674 560.153 104.34 558.5 104.5C519.481 92.9369 480.815 80.6035 442.5 67.5C444.119 65.7615 446.119 65.2615 448.5 66C486.706 77.9034 524.706 90.0701 562.5 102.5Z" fill="#6D6C6D" />
    <path fill-rule="evenodd" clip-rule="evenodd" d="M312.5 63.5C320.65 62.5073 328.983 62.1739 337.5 62.5C337.5 64.1667 337.5 65.8333 337.5 67.5C328.983 67.8261 320.65 67.4927 312.5 66.5C320.5 66.5 328.5 66.5 336.5 66.5C336.5 65.5 336.5 64.5 336.5 63.5C328.5 63.5 320.5 63.5 312.5 63.5Z" fill="#A1A7AA" />
    <path opacity="0.956" fill-rule="evenodd" clip-rule="evenodd" d="M198.5 67.5C199.498 93.9948 199.831 120.661 199.5 147.5C198.833 147.5 198.5 147.833 198.5 148.5C182.363 153.101 166.363 158.101 150.5 163.5C141.948 165.796 133.614 168.463 125.5 171.5C111.107 175.631 96.7739 179.964 82.4999 184.5C81.1725 157.931 81.1725 131.264 82.4999 104.5C121.385 92.5369 160.052 80.2036 198.5 67.5Z" fill="#444545" />
    <path opacity="0.956" fill-rule="evenodd" clip-rule="evenodd" d="M442.5 67.5C480.815 80.6035 519.481 92.9369 558.5 104.5C559.827 131.264 559.827 157.931 558.5 184.5C542.708 180.236 527.041 175.569 511.5 170.5C504.361 167.876 497.028 165.542 489.5 163.5C473.897 158.348 458.23 153.348 442.5 148.5C442.5 147.833 442.167 147.5 441.5 147.5C441.169 120.661 441.502 93.9948 442.5 67.5Z" fill="#454646" />
    <path fill-rule="evenodd" clip-rule="evenodd" d="M243.5 69.5C247.167 69.5 250.833 69.5 254.5 69.5C254.5 70.8333 254.5 72.1667 254.5 73.5C250.833 73.5 247.167 73.5 243.5 73.5C243.5 72.1667 243.5 70.8333 243.5 69.5Z" fill="#F7F8F8" />
    <path fill-rule="evenodd" clip-rule="evenodd" d="M274.5 69.5C288.5 69.5 302.5 69.5 316.5 69.5C316.5 70.8333 316.5 72.1667 316.5 73.5C302.5 73.5 288.5 73.5 274.5 73.5C274.5 72.1667 274.5 70.8333 274.5 69.5Z" fill="#FEFFFE" />
    <path fill-rule="evenodd" clip-rule="evenodd" d="M318.5 69.5C330.5 69.5 342.5 69.5 354.5 69.5C354.5 70.8333 354.5 72.1667 354.5 73.5C342.5 73.5 330.5 73.5 318.5 73.5C318.5 72.1667 318.5 70.8333 318.5 69.5Z" fill="#FDFDFD" />
    <path opacity="0.967" fill-rule="evenodd" clip-rule="evenodd" d="M149.5 67.5C149.5 71.5 149.5 75.5 149.5 79.5C142.647 82.0065 135.647 84.3398 128.5 86.5C128.5 82.5 128.5 78.5 128.5 74.5C135.205 71.5983 142.205 69.2649 149.5 67.5Z" fill="#CCCBCA" />
    <path fill-rule="evenodd" clip-rule="evenodd" d="M190.5 77.5C190.567 78.9587 190.234 80.2921 189.5 81.5C156.33 91.2229 123.33 101.556 90.5001 112.5C89.5714 111.311 89.2381 109.978 89.5001 108.5C93.1619 107.168 96.8286 105.835 100.5 104.5C126.309 96.3409 151.975 88.0075 177.5 79.5C181.383 79.1265 185.05 78.1265 188.5 76.5C189.416 76.5427 190.083 76.8761 190.5 77.5Z" fill="#484949" />
    <path fill-rule="evenodd" clip-rule="evenodd" d="M243.5 76.5C247.167 76.5 250.833 76.5 254.5 76.5C254.5 77.8333 254.5 79.1667 254.5 80.5C250.833 80.5 247.167 80.5 243.5 80.5C243.5 79.1667 243.5 77.8333 243.5 76.5Z" fill="#E1E3E4" />
    <path fill-rule="evenodd" clip-rule="evenodd" d="M190.5 77.5C191.833 99.5 191.833 121.5 190.5 143.5C190.831 122.66 190.497 101.993 189.5 81.5C190.234 80.2921 190.567 78.9587 190.5 77.5Z" fill="#B1DDCE" />
    <path fill-rule="evenodd" clip-rule="evenodd" d="M243.5 82.5C247.167 82.5 250.833 82.5 254.5 82.5C254.5 84.1667 254.5 85.8333 254.5 87.5C250.833 87.5 247.167 87.5 243.5 87.5C243.5 85.8333 243.5 84.1667 243.5 82.5Z" fill="#D9DCDD" />
    <path fill-rule="evenodd" clip-rule="evenodd" d="M274.5 82.5C280.833 82.5 287.167 82.5 293.5 82.5C293.5 84.1667 293.5 85.8333 293.5 87.5C287.167 87.5 280.833 87.5 274.5 87.5C274.5 85.8333 274.5 84.1667 274.5 82.5Z" fill="#2BA84A" />
    <path fill-rule="evenodd" clip-rule="evenodd" d="M295.5 82.5C307.833 82.5 320.167 82.5 332.5 82.5C332.5 84.1667 332.5 85.8333 332.5 87.5C320.167 87.5 307.833 87.5 295.5 87.5C295.5 85.8333 295.5 84.1667 295.5 82.5Z" fill="#DFE1E3" />
    <path fill-rule="evenodd" clip-rule="evenodd" d="M334.5 83.5C342.5 83.5 350.5 83.5 358.5 83.5C358.5 84.5 358.5 85.5 358.5 86.5C350.5 86.5 342.5 86.5 334.5 86.5C334.5 85.5 334.5 84.5 334.5 83.5Z" fill="#FDFDFD" />
    <path fill-rule="evenodd" clip-rule="evenodd" d="M361.5 82.5C372.167 82.5 382.833 82.5 393.5 82.5C393.5 84.1667 393.5 85.8333 393.5 87.5C382.833 87.5 372.167 87.5 361.5 87.5C361.5 85.8333 361.5 84.1667 361.5 82.5Z" fill="#DFE1E3" />
    <path fill-rule="evenodd" clip-rule="evenodd" d="M334.5 83.5C342.65 82.5073 350.983 82.1739 359.5 82.5C359.5 84.1667 359.5 85.8333 359.5 87.5C350.983 87.8261 342.65 87.4927 334.5 86.5C342.5 86.5 350.5 86.5 358.5 86.5C358.5 85.5 358.5 84.5 358.5 83.5C350.5 83.5 342.5 83.5 334.5 83.5Z" fill="#A1A7AA" />
    <path fill-rule="evenodd" clip-rule="evenodd" d="M329.5 93.5C329.5 92.5 329.5 91.5 329.5 90.5C315.833 90.5 302.167 90.5 288.5 90.5C288.5 91.5 288.5 92.5 288.5 93.5C287.566 92.4324 287.232 91.099 287.5 89.5C301.833 89.5 316.167 89.5 330.5 89.5C330.768 91.099 330.434 92.4324 329.5 93.5Z" fill="#D1D4D6" />
    <path fill-rule="evenodd" clip-rule="evenodd" d="M243.5 89.5C247.167 89.5 250.833 89.5 254.5 89.5C254.5 90.8333 254.5 92.1667 254.5 93.5C250.833 93.5 247.167 93.5 243.5 93.5C243.5 92.1667 243.5 90.8333 243.5 89.5Z" fill="#F1F2F3" />
    <path fill-rule="evenodd" clip-rule="evenodd" d="M329.5 93.5C315.833 93.5 302.167 93.5 288.5 93.5C288.5 92.5 288.5 91.5 288.5 90.5C302.167 90.5 315.833 90.5 329.5 90.5C329.5 91.5 329.5 92.5 329.5 93.5Z" fill="#FEFFFE" />
    <path fill-rule="evenodd" clip-rule="evenodd" d="M332.5 89.5C339.5 89.5 346.5 89.5 353.5 89.5C353.5 90.8333 353.5 92.1667 353.5 93.5C346.5 93.5 339.5 93.5 332.5 93.5C332.5 92.1667 332.5 90.8333 332.5 89.5Z" fill="#06B7CF" />
    <path fill-rule="evenodd" clip-rule="evenodd" d="M243.5 96.5C247.167 96.5 250.833 96.5 254.5 96.5C254.5 97.8333 254.5 99.1667 254.5 100.5C250.833 100.5 247.167 100.5 243.5 100.5C243.5 99.1667 243.5 97.8333 243.5 96.5Z" fill="#F7F8F8" />
    <path fill-rule="evenodd" clip-rule="evenodd" d="M287.5 96.5C298.167 96.5 308.833 96.5 319.5 96.5C319.5 97.8333 319.5 99.1667 319.5 100.5C308.833 100.5 298.167 100.5 287.5 100.5C287.5 99.1667 287.5 97.8333 287.5 96.5Z" fill="#FAFBFB" />
    <path fill-rule="evenodd" clip-rule="evenodd" d="M321.5 96.5C329.167 96.5 336.833 96.5 344.5 96.5C344.5 97.8333 344.5 99.1667 344.5 100.5C336.833 100.5 329.167 100.5 321.5 100.5C321.5 99.1667 321.5 97.8333 321.5 96.5Z" fill="#FDFDFD" />
    <path fill-rule="evenodd" clip-rule="evenodd" d="M346.5 96.5C358.5 96.5 370.5 96.5 382.5 96.5C382.5 97.8333 382.5 99.1667 382.5 100.5C370.5 100.5 358.5 100.5 346.5 100.5C346.5 99.1667 346.5 97.8333 346.5 96.5Z" fill="#FEFFFE" />
    <path fill-rule="evenodd" clip-rule="evenodd" d="M176.5 78.5C176.5 79.1667 176.833 79.5 177.5 79.5C151.975 88.0075 126.309 96.3409 100.5 104.5C99.791 103.596 98.791 103.263 97.5 103.5C123.676 94.9983 150.01 86.665 176.5 78.5Z" fill="#62B097" />
    <path fill-rule="evenodd" clip-rule="evenodd" d="M189.5 81.5C190.497 101.993 190.831 122.66 190.5 143.5C190.389 144.117 190.056 144.617 189.5 145C156.163 155.662 122.829 165.995 89.4999 176C88.1686 153.402 88.1686 130.902 89.4999 108.5C89.2379 109.978 89.5712 111.311 90.4999 112.5C123.33 101.556 156.33 91.2229 189.5 81.5Z" fill="#F4F8F8" />
    <path fill-rule="evenodd" clip-rule="evenodd" d="M161.5 91.5C162.833 91.5 164.167 91.5 165.5 91.5C165.5 96.1667 165.5 100.833 165.5 105.5C148.119 110.627 130.786 115.96 113.5 121.5C112.167 116.833 112.167 112.167 113.5 107.5C129.66 102.335 145.66 97.0021 161.5 91.5Z" fill="#2BA84A" />
    <path fill-rule="evenodd" clip-rule="evenodd" d="M186.5 84.5C186.56 83.9569 186.893 83.6236 187.5 83.5C187.833 89.8333 188.167 96.1667 188.5 102.5C188.496 109.204 187.83 115.537 186.5 121.5C187.82 109.069 187.82 96.7353 186.5 84.5Z" fill="#B8C1DE" />
    <path fill-rule="evenodd" clip-rule="evenodd" d="M186.5 84.5C187.82 96.7353 187.82 109.069 186.5 121.5C180.669 122.554 175.002 124.221 169.5 126.5C168.501 114.185 168.168 101.851 168.5 89.5C174.516 87.8299 180.516 86.1632 186.5 84.5Z" fill="#06B7CF" />
    <path opacity="0.999" fill-rule="evenodd" clip-rule="evenodd" d="M78.5 102.5C79.5137 103.674 80.847 104.34 82.5 104.5C81.1726 131.264 81.1726 157.931 82.5 184.5C82.44 185.043 82.1067 185.376 81.5 185.5C80.5 184.833 79.5 184.167 78.5 183.5C77.5011 171.852 77.1678 160.186 77.5 148.5C77.5 148.167 77.5 147.833 77.5 147.5C77.1706 132.324 77.5039 117.324 78.5 102.5Z" fill="#5B5B5B" />
    <path fill-rule="evenodd" clip-rule="evenodd" d="M243.5 102.5C247.167 102.5 250.833 102.5 254.5 102.5C254.5 104.167 254.5 105.833 254.5 107.5C250.833 107.5 247.167 107.5 243.5 107.5C243.5 105.833 243.5 104.167 243.5 102.5Z" fill="#D9DCDD" />
    <path fill-rule="evenodd" clip-rule="evenodd" d="M287.5 102.5C301.833 102.5 316.167 102.5 330.5 102.5C330.5 104.167 330.5 105.833 330.5 107.5C316.167 107.5 301.833 107.5 287.5 107.5C287.5 105.833 287.5 104.167 287.5 102.5Z" fill="#DEE0E1" />
    <path fill-rule="evenodd" clip-rule="evenodd" d="M332.5 102.5C344.5 102.5 356.5 102.5 368.5 102.5C368.5 104.167 368.5 105.833 368.5 107.5C356.5 107.5 344.5 107.5 332.5 107.5C332.5 105.833 332.5 104.167 332.5 102.5Z" fill="#DEE1E2" />
    <path opacity="0.999" fill-rule="evenodd" clip-rule="evenodd" d="M562.5 102.5C563.496 117.324 563.829 132.324 563.5 147.5C563.5 147.833 563.5 148.167 563.5 148.5C563.832 160.186 563.499 171.852 562.5 183.5C561.5 184.167 560.5 184.833 559.5 185.5C558.893 185.376 558.56 185.043 558.5 184.5C559.827 157.931 559.827 131.264 558.5 104.5C560.153 104.34 561.486 103.674 562.5 102.5Z" fill="#5B5B5B" />
    <path fill-rule="evenodd" clip-rule="evenodd" d="M97.5 103.5C98.791 103.263 99.791 103.596 100.5 104.5C96.8285 105.835 93.1618 107.168 89.5 108.5C88.1687 130.902 88.1687 153.402 89.5 176C122.829 165.995 156.163 155.662 189.5 145C190.056 144.617 190.389 144.117 190.5 143.5C191.833 121.5 191.833 99.5 190.5 77.5C190.083 76.8761 189.416 76.5427 188.5 76.5C185.05 78.1265 181.383 79.1265 177.5 79.5C176.833 79.5 176.5 79.1667 176.5 78.5C182.295 76.4015 188.129 74.4015 194 72.5C194.5 96.8311 194.667 121.164 194.5 145.5C158.474 156.619 122.474 167.953 86.5 179.5C85.5003 155.176 85.1669 130.842 85.5 106.5C89.5 105.5 93.5 104.5 97.5 103.5Z" fill="#61BFA1" />
    <path fill-rule="evenodd" clip-rule="evenodd" d="M446.5 73.5C482.79 84.7084 519.124 95.7084 555.5 106.5C555.5 130.833 555.5 155.167 555.5 179.5C519.427 168.643 483.427 157.476 447.5 146C446.506 121.908 446.172 97.7414 446.5 73.5Z" fill="#61BC9F" />
    <path fill-rule="evenodd" clip-rule="evenodd" d="M476.5 91.5C499.906 98.3569 523.239 105.524 546.5 113C547.469 117.737 547.803 122.57 547.5 127.5C524.192 120.184 500.858 112.851 477.5 105.5C476.507 100.88 476.173 96.2137 476.5 91.5Z" fill="#F08367" />
    <path fill-rule="evenodd" clip-rule="evenodd" d="M472.5 89.5C473.167 89.5 473.5 89.8333 473.5 90.5C474.154 110.196 473.488 129.529 471.5 148.5C465.681 147.296 460.015 145.629 454.5 143.5C454.5 123.833 454.5 104.167 454.5 84.5C460.499 86.1664 466.499 87.8331 472.5 89.5Z" fill="#06B7CF" />
    <path fill-rule="evenodd" clip-rule="evenodd" d="M455.5 82.5C461.533 83.7315 467.2 85.7315 472.5 88.5C472.5 88.8333 472.5 89.1667 472.5 89.5C466.499 87.8331 460.499 86.1664 454.5 84.5C454.5 104.167 454.5 123.833 454.5 143.5C453.834 133.672 453.5 123.672 453.5 113.5C453.524 102.94 454.191 92.6063 455.5 82.5Z" fill="#DBDEEA" />
    <path fill-rule="evenodd" clip-rule="evenodd" d="M450.5 77.5C450.5 78.8333 450.5 80.1667 450.5 81.5C452.216 81.6287 453.883 81.962 455.5 82.5C454.191 92.6063 453.524 102.94 453.5 113.5C453.5 123.672 453.834 133.672 454.5 143.5C460.015 145.629 465.681 147.296 471.5 148.5C472.209 149.404 473.209 149.737 474.5 149.5C474.83 129.66 474.497 109.993 473.5 90.5C473.5 89.8333 473.167 89.5 472.5 89.5C472.5 89.1667 472.5 88.8333 472.5 88.5C474.898 88.2594 476.898 88.9261 478.5 90.5C477.508 90.3284 476.842 90.6618 476.5 91.5C476.173 96.2137 476.507 100.88 477.5 105.5C500.858 112.851 524.192 120.184 547.5 127.5C548.167 122.5 548.833 117.5 549.5 112.5C551.176 111.817 551.843 110.483 551.5 108.5C552.663 130.663 552.83 152.996 552 175.5C551.439 176.022 550.772 176.355 550 176.5C517.12 166.073 484.287 155.573 451.5 145C451 144.5 450.5 144 450 143.5C449.17 121.329 449.337 99.3295 450.5 77.5Z" fill="#EFF7F4" />
    <path fill-rule="evenodd" clip-rule="evenodd" d="M473.5 90.5C474.497 109.993 474.83 129.66 474.5 149.5C473.209 149.737 472.209 149.404 471.5 148.5C473.488 129.529 474.154 110.196 473.5 90.5Z" fill="#B3BDDC" />
    <path fill-rule="evenodd" clip-rule="evenodd" d="M551.5 108.5C551.843 110.483 551.176 111.817 549.5 112.5C526.022 104.786 502.355 97.4531 478.5 90.5C476.898 88.9261 474.898 88.2594 472.5 88.5C467.2 85.7315 461.533 83.7315 455.5 82.5C453.883 81.962 452.216 81.6287 450.5 81.5C450.5 80.1667 450.5 78.8333 450.5 77.5C484.203 86.7269 517.869 97.0602 551.5 108.5Z" fill="#494949" />
    <path fill-rule="evenodd" clip-rule="evenodd" d="M476.5 91.5C476.842 90.6618 477.508 90.3284 478.5 90.5C502.355 97.4531 526.022 104.786 549.5 112.5C548.833 117.5 548.167 122.5 547.5 127.5C547.803 122.57 547.469 117.737 546.5 113C523.239 105.524 499.906 98.3569 476.5 91.5Z" fill="#F1E7E4" />
    <path fill-rule="evenodd" clip-rule="evenodd" d="M162.5 107.5C163.5 107.5 164.5 107.5 165.5 107.5C165.833 121.849 165.499 136.182 164.5 150.5C147.335 156.444 130.002 161.778 112.5 166.5C112.5 152.167 112.5 137.833 112.5 123.5C129.457 118.735 146.124 113.402 162.5 107.5Z" fill="#2BA84A" />
    <path fill-rule="evenodd" clip-rule="evenodd" d="M476.5 107.5C499.882 114.627 523.215 121.96 546.5 129.5C547.499 143.818 547.833 158.151 547.5 172.5C524.105 165.647 500.772 158.48 477.5 151C476.51 136.579 476.176 122.079 476.5 107.5Z" fill="#2BA84A" />
    <path fill-rule="evenodd" clip-rule="evenodd" d="M104.5 109.5C105.5 109.5 106.5 109.5 107.5 109.5C107.67 110.822 107.337 111.989 106.5 113C101.735 114.199 97.0686 115.699 92.5 117.5C91.269 116.349 91.269 115.183 92.5 114C96.7152 112.766 100.715 111.266 104.5 109.5Z" fill="#06B7CF" />
    <path fill-rule="evenodd" clip-rule="evenodd" d="M243.5 109.5C247.167 109.5 250.833 109.5 254.5 109.5C254.5 110.833 254.5 112.167 254.5 113.5C250.833 113.5 247.167 113.5 243.5 113.5C243.5 112.167 243.5 110.833 243.5 109.5Z" fill="#F1F2F3" />
    <path fill-rule="evenodd" clip-rule="evenodd" d="M337.5 117.5C338.922 118.925 340.589 119.925 342.5 120.5C344.265 121.461 346.265 121.795 348.5 121.5C348.318 123.675 347.651 125.675 346.5 127.5C346.685 128.584 347.018 129.584 347.5 130.5C347.263 131.791 347.596 132.791 348.5 133.5C348.5 133.833 348.5 134.167 348.5 134.5C349.048 136.626 349.715 138.626 350.5 140.5C351.383 145.103 351.717 149.77 351.5 154.5C349.914 159.577 347.914 164.577 345.5 169.5C343.955 173.593 342.121 177.593 340 181.5C338.615 184.386 336.449 186.386 333.5 187.5C324.47 190.028 315.47 190.028 306.5 187.5C305.099 187.029 303.766 186.362 302.5 185.5C299.772 180.044 297.105 174.71 294.5 169.5C292.636 164.574 290.969 159.574 289.5 154.5C289.5 150.5 289.5 146.5 289.5 142.5C290.404 141.791 290.737 140.791 290.5 139.5C290.366 137.708 290.699 136.042 291.5 134.5C291.5 134.167 291.5 133.833 291.5 133.5C292.404 132.791 292.737 131.791 292.5 130.5C293.11 129.609 293.443 128.609 293.5 127.5C294.401 126.71 295.068 125.71 295.5 124.5C296.167 124.5 296.5 124.167 296.5 123.5C297.401 122.71 298.068 121.71 298.5 120.5C300.537 119.154 302.537 117.82 304.5 116.5C315.667 112.22 326.667 112.553 337.5 117.5Z" fill="#3E2723" />
    <path fill-rule="evenodd" clip-rule="evenodd" d="M105.5 114.5C107.176 115.183 107.843 116.517 107.5 118.5C102.167 119.833 96.8333 121.167 91.5 122.5C91.5 121.5 91.5 120.5 91.5 119.5C96.3816 118.208 101.048 116.541 105.5 114.5Z" fill="#2BA84A" />
    <path fill-rule="evenodd" clip-rule="evenodd" d="M243.5 116.5C247.167 116.5 250.833 116.5 254.5 116.5C254.5 117.833 254.5 119.167 254.5 120.5C250.833 120.5 247.167 120.5 243.5 120.5C243.5 119.167 243.5 117.833 243.5 116.5Z" fill="#F7F8F8" />
    <path fill-rule="evenodd" clip-rule="evenodd" d="M260.5 116.5C266.833 116.5 273.167 116.5 279.5 116.5C279.5 117.833 279.5 119.167 279.5 120.5C273.167 120.5 266.833 120.5 260.5 120.5C260.5 119.167 260.5 117.833 260.5 116.5Z" fill="#F08367" />
    <path fill-rule="evenodd" clip-rule="evenodd" d="M304.5 116.5C302.537 117.82 300.537 119.154 298.5 120.5C292.833 120.5 287.167 120.5 281.5 120.5C281.5 119.167 281.5 117.833 281.5 116.5C289.167 116.5 296.833 116.5 304.5 116.5Z" fill="#F8F8F8" />
    <path fill-rule="evenodd" clip-rule="evenodd" d="M337.5 117.5C345.65 116.507 353.983 116.174 362.5 116.5C362.5 117.833 362.5 119.167 362.5 120.5C355.833 120.5 349.167 120.5 342.5 120.5C340.589 119.925 338.922 118.925 337.5 117.5Z" fill="#FAFAFA" />
    <path fill-rule="evenodd" clip-rule="evenodd" d="M364.5 116.5C375.5 116.5 386.5 116.5 397.5 116.5C397.5 117.833 397.5 119.167 397.5 120.5C386.5 120.5 375.5 120.5 364.5 120.5C364.5 119.167 364.5 117.833 364.5 116.5Z" fill="#FDFDFD" />
    <path fill-rule="evenodd" clip-rule="evenodd" d="M105.5 120.5C107.465 120.948 107.798 121.948 106.5 123.5C101.722 124.861 97.0556 126.528 92.5001 128.5C91.5714 127.311 91.2381 125.978 91.5001 124.5C96.4326 123.677 101.099 122.344 105.5 120.5Z" fill="#06B7CF" />
    <path fill-rule="evenodd" clip-rule="evenodd" d="M274.5 123.5C281.833 122.167 289.167 122.167 296.5 123.5C296.5 124.167 296.167 124.5 295.5 124.5C288.687 123.509 281.687 123.175 274.5 123.5Z" fill="#747E83" />
    <path fill-rule="evenodd" clip-rule="evenodd" d="M274.5 123.5C281.687 123.175 288.687 123.509 295.5 124.5C295.068 125.71 294.401 126.71 293.5 127.5C287.167 127.5 280.833 127.5 274.5 127.5C274.5 126.167 274.5 124.833 274.5 123.5Z" fill="#F5F6F6" />
    <path fill-rule="evenodd" clip-rule="evenodd" d="M106.5 125.5C107.434 126.568 107.768 127.901 107.5 129.5C102.118 130.627 96.7843 131.961 91.5 133.5C91.33 132.178 91.6634 131.011 92.5 130C97.2855 128.478 101.952 126.978 106.5 125.5Z" fill="#2BA84A" />
    <path fill-rule="evenodd" clip-rule="evenodd" d="M243.5 123.5C247.167 123.5 250.833 123.5 254.5 123.5C254.5 124.833 254.5 126.167 254.5 127.5C250.833 127.5 247.167 127.5 243.5 127.5C243.5 126.167 243.5 124.833 243.5 123.5Z" fill="#E1E3E4" />
    <path fill-rule="evenodd" clip-rule="evenodd" d="M230.5 130.5C251.167 130.5 271.833 130.5 292.5 130.5C292.737 131.791 292.404 132.791 291.5 133.5C271.354 131.837 251.021 130.837 230.5 130.5Z" fill="#426965" />
    <path fill-rule="evenodd" clip-rule="evenodd" d="M347.5 130.5C368.5 130.5 389.5 130.5 410.5 130.5C389.646 130.837 368.98 131.837 348.5 133.5C347.596 132.791 347.263 131.791 347.5 130.5Z" fill="#426966" />
    <path fill-rule="evenodd" clip-rule="evenodd" d="M103.5 131.5C104.833 131.5 106.167 131.5 107.5 131.5C107.5 132.5 107.5 133.5 107.5 134.5C102.216 136.039 96.8822 137.373 91.4999 138.5C91.2809 137.325 91.6142 136.325 92.4999 135.5C96.3317 134.304 99.9984 132.97 103.5 131.5Z" fill="#06B7CF" />
    <path fill-rule="evenodd" clip-rule="evenodd" d="M104.5 136.5C105.5 136.5 106.5 136.5 107.5 136.5C107.719 137.675 107.386 138.675 106.5 139.5C101.833 141.167 97.1668 142.833 92.5001 144.5C91.5714 143.311 91.2381 141.978 91.5001 140.5C96.0322 139.543 100.365 138.21 104.5 136.5Z" fill="#2BA84A" />
    <path opacity="0.878" fill-rule="evenodd" clip-rule="evenodd" d="M213.5 140.5C213.5 140.167 213.5 139.833 213.5 139.5C239.167 139.5 264.833 139.5 290.5 139.5C290.737 140.791 290.404 141.791 289.5 142.5C264.522 140.509 239.189 139.843 213.5 140.5Z" fill="#A1A1A0" />
    <path opacity="0.998" fill-rule="evenodd" clip-rule="evenodd" d="M213.5 140.5C239.189 139.843 264.522 140.509 289.5 142.5C289.5 146.5 289.5 150.5 289.5 154.5C289.167 154.5 288.833 154.5 288.5 154.5C264.498 154.667 240.498 154.5 216.5 154C214.329 152.826 213.329 150.993 213.5 148.5C208.5 148.5 203.5 148.5 198.5 148.5C198.5 147.833 198.833 147.5 199.5 147.5C204.167 147.5 208.833 147.5 213.5 147.5C213.5 145.167 213.5 142.833 213.5 140.5Z" fill="#DFDFDE" />
    <path opacity="0.998" fill-rule="evenodd" clip-rule="evenodd" d="M427.5 139.5C427.5 142.167 427.5 144.833 427.5 147.5C432.167 147.5 436.833 147.5 441.5 147.5C442.167 147.5 442.5 147.833 442.5 148.5C437.305 148.179 432.305 148.513 427.5 149.5C425.088 147.547 422.421 146.38 419.5 146C418.624 147.586 417.624 149.086 416.5 150.5C418.015 152.082 419.681 153.416 421.5 154.5C398.5 154.5 375.5 154.5 352.5 154.5C352.167 154.5 351.833 154.5 351.5 154.5C351.717 149.77 351.383 145.103 350.5 140.5C375.995 139.502 401.661 139.169 427.5 139.5Z" fill="#DBDAD9" />
    <path fill-rule="evenodd" clip-rule="evenodd" d="M105.5 141.5C107.176 142.183 107.843 143.517 107.5 145.5C102.406 146.419 97.4057 147.753 92.5 149.5C91.269 148.349 91.269 147.183 92.5 146C97.0023 144.635 101.336 143.135 105.5 141.5Z" fill="#06B7CF" />
    <path fill-rule="evenodd" clip-rule="evenodd" d="M427.5 149.5C430.342 151.087 433.008 152.92 435.5 155C434.494 158.031 432.494 159.365 429.5 159C426.941 157.223 424.274 155.723 421.5 154.5C419.681 153.416 418.015 152.082 416.5 150.5C417.624 149.086 418.624 147.586 419.5 146C422.421 146.38 425.088 147.547 427.5 149.5Z" fill="#3E4D55" />
    <path opacity="0.753" fill-rule="evenodd" clip-rule="evenodd" d="M77.5 147.5C77.5 147.833 77.5 148.167 77.5 148.5C56.8333 148.5 36.1667 148.5 15.5 148.5C15.7678 150.099 15.4345 151.432 14.5 152.5C14.5 150.833 14.5 149.167 14.5 147.5C35.5 147.5 56.5 147.5 77.5 147.5Z" fill="#CFBBB6" />
    <path fill-rule="evenodd" clip-rule="evenodd" d="M103.5 147.5C104.833 147.5 106.167 147.5 107.5 147.5C107.5 148.5 107.5 149.5 107.5 150.5C102.314 151.562 97.3137 153.229 92.5 155.5C91.1667 154.167 91.1667 152.833 92.5 151.5C96.4074 150.534 100.074 149.2 103.5 147.5Z" fill="#2BA84A" />
    <path opacity="0.753" fill-rule="evenodd" clip-rule="evenodd" d="M563.5 148.5C563.5 148.167 563.5 147.833 563.5 147.5C584.5 147.5 605.5 147.5 626.5 147.5C626.5 149.167 626.5 150.833 626.5 152.5C625.566 151.432 625.232 150.099 625.5 148.5C604.833 148.5 584.167 148.5 563.5 148.5Z" fill="#CFBBB6" />
    <path fill-rule="evenodd" clip-rule="evenodd" d="M77.5 148.5C77.1678 160.186 77.5011 171.852 78.5 183.5C79.5 184.167 80.5 184.833 81.5 185.5C82.1067 185.376 82.44 185.043 82.5 184.5C96.774 179.964 111.107 175.631 125.5 171.5C126.5 171.5 127.5 171.5 128.5 171.5C128.2 176.099 128.533 180.599 129.5 185C135.899 184.039 142.233 182.539 148.5 180.5C147.988 174.612 148.655 168.945 150.5 163.5C166.363 158.101 182.363 153.101 198.5 148.5C203.5 148.5 208.5 148.5 213.5 148.5C213.329 150.993 214.329 152.826 216.5 154C240.498 154.5 264.498 154.667 288.5 154.5C288.517 156.565 288.85 158.565 289.5 160.5C286.5 160.5 283.5 160.5 280.5 160.5C280.5 170.833 280.5 181.167 280.5 191.5C289.5 191.5 298.5 191.5 307.5 191.5C307.054 198.609 303.387 202.943 296.5 204.5C285.361 207.301 274.028 209.134 262.5 210C256.318 211.517 251.151 214.683 247 219.5C242.833 225 238.667 230.5 234.5 236C231.5 236.667 228.5 236.667 225.5 236C224.468 234.373 223.134 233.207 221.5 232.5C223.371 227.79 226.537 224.124 231 221.5C231.49 220.207 231.657 218.873 231.5 217.5C228.901 217.549 226.734 218.549 225 220.5C224.814 214.919 223.314 209.753 220.5 205C208.798 199.86 202.798 203.527 202.5 216C202.631 218.253 203.131 220.419 204 222.5C206.546 225.86 208.379 229.526 209.5 233.5C208.252 234.334 207.585 235.667 207.5 237.5C209.065 251.654 211.398 265.654 214.5 279.5C143.5 279.5 72.5 279.5 1.5 279.5C1.5 278.167 1.5 276.833 1.5 275.5C5.32272 234.43 9.65605 193.43 14.5 152.5C15.4345 151.432 15.7678 150.099 15.5 148.5C36.1667 148.5 56.8333 148.5 77.5 148.5Z" fill="#E5E6E7" />
    <path fill-rule="evenodd" clip-rule="evenodd" d="M427.5 149.5C432.305 148.513 437.305 148.179 442.5 148.5C458.23 153.348 473.897 158.348 489.5 163.5C488.908 169.631 489.575 175.464 491.5 181C497.145 182.829 502.811 184.163 508.5 185C508.823 179.81 509.823 174.977 511.5 170.5C527.041 175.569 542.708 180.236 558.5 184.5C558.56 185.043 558.893 185.376 559.5 185.5C560.5 184.833 561.5 184.167 562.5 183.5C563.499 171.852 563.832 160.186 563.5 148.5C584.167 148.5 604.833 148.5 625.5 148.5C625.232 150.099 625.566 151.432 626.5 152.5C631.344 193.43 635.677 234.43 639.5 275.5C639.5 276.833 639.5 278.167 639.5 279.5C570.833 279.5 502.167 279.5 433.5 279.5C436.707 266.502 439.04 253.336 440.5 240C440.467 237.39 439.8 235.223 438.5 233.5C439.228 229.594 441.062 226.26 444 223.5C446 217.833 446 212.167 444 206.5C442.208 204.372 440.042 203.039 437.5 202.5C435.432 202.782 433.432 201.949 431.5 200C424.972 199.026 421.639 201.859 421.5 208.5C422.833 208.5 424.167 208.5 425.5 208.5C424.16 212.371 423.327 216.371 423 220.5C421.266 218.549 419.099 217.549 416.5 217.5C416.343 218.873 416.51 220.207 417 221.5C421.5 224.156 424.666 227.822 426.5 232.5C424.549 233.716 423.049 235.382 422 237.5C419.333 242.167 416.667 246.833 414 251.5C406.043 237.54 396.543 224.707 385.5 213C377.748 210.211 369.748 208.711 361.5 208.5C361.664 205.813 361.497 203.146 361 200.5C360.586 200.043 360.086 199.709 359.5 199.5C358.52 202.086 358.187 204.753 358.5 207.5C356.901 207.768 355.568 207.434 354.5 206.5C355.777 205.306 356.444 203.64 356.5 201.5C356.46 199.571 356.127 197.738 355.5 196C348.174 195.5 340.841 195.334 333.5 195.5C333.5 194.167 333.5 192.833 333.5 191.5C342.5 191.5 351.5 191.5 360.5 191.5C360.5 181.5 360.5 171.5 360.5 161.5C357.287 161.81 354.287 161.477 351.5 160.5C352.15 158.565 352.483 156.565 352.5 154.5C375.5 154.5 398.5 154.5 421.5 154.5C424.274 155.723 426.941 157.223 429.5 159C432.494 159.365 434.494 158.031 435.5 155C433.008 152.92 430.342 151.087 427.5 149.5Z" fill="#E5E6E7" />
    <path fill-rule="evenodd" clip-rule="evenodd" d="M105.5 152.5C107.465 152.948 107.798 153.948 106.5 155.5C101.539 157.376 96.5388 159.043 91.5 160.5C91.33 159.178 91.6634 158.011 92.5 157C96.9797 155.564 101.313 154.064 105.5 152.5Z" fill="#06B7CF" />
    <path fill-rule="evenodd" clip-rule="evenodd" d="M351.5 154.5C351.833 154.5 352.167 154.5 352.5 154.5C352.483 156.565 352.15 158.565 351.5 160.5C350.08 162.886 349.08 165.553 348.5 168.5C347.583 169.127 346.583 169.461 345.5 169.5C347.914 164.577 349.914 159.577 351.5 154.5Z" fill="#E6B484" />
    <path fill-rule="evenodd" clip-rule="evenodd" d="M351.5 160.5C354.287 161.477 357.287 161.81 360.5 161.5C360.5 171.5 360.5 181.5 360.5 191.5C351.5 191.5 342.5 191.5 333.5 191.5C333.5 192.833 333.5 194.167 333.5 195.5C333.5 195.833 333.5 196.167 333.5 196.5C332.319 193.638 332.319 190.638 333.5 187.5C336.449 186.386 338.615 184.386 340 181.5C342.121 177.593 343.955 173.593 345.5 169.5C346.583 169.461 347.583 169.127 348.5 168.5C349.08 165.553 350.08 162.886 351.5 160.5Z" fill="#DEDDDC" />
    <path fill-rule="evenodd" clip-rule="evenodd" d="M289.5 160.5C290.384 163.023 291.218 165.69 292 168.5C292.671 169.252 293.504 169.586 294.5 169.5C297.105 174.71 299.772 180.044 302.5 185.5C303.766 186.362 305.099 187.029 306.5 187.5C306.833 188.833 307.167 190.167 307.5 191.5C298.5 191.5 289.5 191.5 280.5 191.5C280.5 181.167 280.5 170.833 280.5 160.5C283.5 160.5 286.5 160.5 289.5 160.5Z" fill="#DCDBDA" />
    <path fill-rule="evenodd" clip-rule="evenodd" d="M288.5 154.5C288.833 154.5 289.167 154.5 289.5 154.5C290.969 159.574 292.636 164.574 294.5 169.5C293.504 169.586 292.671 169.252 292 168.5C291.218 165.69 290.384 163.023 289.5 160.5C288.85 158.565 288.517 156.565 288.5 154.5Z" fill="#EAB989" />
    <path fill-rule="evenodd" clip-rule="evenodd" d="M150.5 163.5C148.655 168.945 147.988 174.612 148.5 180.5C142.233 182.539 135.899 184.039 129.5 185C128.533 180.599 128.2 176.099 128.5 171.5C127.5 171.5 126.5 171.5 125.5 171.5C133.614 168.463 141.948 165.796 150.5 163.5Z" fill="#CFCFCE" />
    <path fill-rule="evenodd" clip-rule="evenodd" d="M489.5 163.5C497.028 165.542 504.361 167.876 511.5 170.5C509.823 174.977 508.823 179.81 508.5 185C502.811 184.163 497.145 182.829 491.5 181C489.575 175.464 488.908 169.631 489.5 163.5Z" fill="#CFCFCE" />
    <path fill-rule="evenodd" clip-rule="evenodd" d="M191.5 181.5C188.829 183.672 186.163 185.005 183.5 185.5C182.005 185.585 181.005 184.919 180.5 183.5C181.246 182.264 181.579 180.93 181.5 179.5C185.95 175.115 189.283 175.781 191.5 181.5Z" fill="#484446" />
    <path fill-rule="evenodd" clip-rule="evenodd" d="M167.5 179.5C168.5 179.5 169.5 179.5 170.5 179.5C170.64 181.124 169.973 182.29 168.5 183C153.216 188.595 137.882 194.095 122.5 199.5C121.269 198.349 121.269 197.183 122.5 196C137.626 190.572 152.626 185.072 167.5 179.5Z" fill="#C4C3C2" />
    <path fill-rule="evenodd" clip-rule="evenodd" d="M467.5 179.5C483.514 184.894 499.514 190.394 515.5 196C516.337 197.011 516.67 198.178 516.5 199.5C500.498 194.11 484.498 188.61 468.5 183C467.663 181.989 467.33 180.822 467.5 179.5Z" fill="#C4C3C2" />
    <path fill-rule="evenodd" clip-rule="evenodd" d="M181.5 179.5C181.579 180.93 181.246 182.264 180.5 183.5C181.005 184.919 182.005 185.585 183.5 185.5C181.38 189.454 178.38 192.621 174.5 195C172.866 195.494 171.199 195.66 169.5 195.5C167.623 194.341 167.123 192.674 168 190.5C172.439 186.705 176.939 183.039 181.5 179.5Z" fill="#DC9684" />
    <path fill-rule="evenodd" clip-rule="evenodd" d="M191.5 181.5C192.598 182.601 192.765 183.934 192 185.5C186.879 188.953 182.046 192.786 177.5 197C175.305 198.373 172.971 198.706 170.5 198C169.748 197.329 169.414 196.496 169.5 195.5C171.199 195.66 172.866 195.494 174.5 195C178.38 192.621 181.38 189.454 183.5 185.5C186.163 185.005 188.829 183.672 191.5 181.5Z" fill="#AE6951" />
    <path fill-rule="evenodd" clip-rule="evenodd" d="M306.5 187.5C315.47 190.028 324.47 190.028 333.5 187.5C332.319 190.638 332.319 193.638 333.5 196.5C335.906 199.91 338.906 202.576 342.5 204.5C334.746 206.012 326.913 207.012 319 207.5C311.435 206.819 303.935 205.819 296.5 204.5C303.387 202.943 307.054 198.609 307.5 191.5C307.167 190.167 306.833 188.833 306.5 187.5Z" fill="#FAC088" />
    <path fill-rule="evenodd" clip-rule="evenodd" d="M333.5 195.5C340.841 195.334 348.174 195.5 355.5 196C356.127 197.738 356.46 199.571 356.5 201.5C356.444 203.64 355.777 205.306 354.5 206.5C350.546 205.619 346.546 204.952 342.5 204.5C338.906 202.576 335.906 199.91 333.5 196.5C333.5 196.167 333.5 195.833 333.5 195.5Z" fill="#FEFDFC" />
    <path fill-rule="evenodd" clip-rule="evenodd" d="M361.5 208.5C360.391 208.443 359.391 208.11 358.5 207.5C358.187 204.753 358.52 202.086 359.5 199.5C360.086 199.709 360.586 200.043 361 200.5C361.497 203.146 361.664 205.813 361.5 208.5Z" fill="#AE654C" />
    <path fill-rule="evenodd" clip-rule="evenodd" d="M437.5 202.5C432.249 202.265 428.249 204.265 425.5 208.5C424.167 208.5 422.833 208.5 421.5 208.5C421.639 201.859 424.972 199.026 431.5 200C433.432 201.949 435.432 202.782 437.5 202.5Z" fill="#BFBDBB" />
    <path fill-rule="evenodd" clip-rule="evenodd" d="M221.5 232.5C217.481 232.646 213.481 232.979 209.5 233.5C208.379 229.526 206.546 225.86 204 222.5C203.131 220.419 202.631 218.253 202.5 216C202.798 203.527 208.798 199.86 220.5 205C223.314 209.753 224.814 214.919 225 220.5C226.734 218.549 228.901 217.549 231.5 217.5C231.657 218.873 231.49 220.207 231 221.5C226.537 224.124 223.371 227.79 221.5 232.5Z" fill="#FBC289" />
    <path fill-rule="evenodd" clip-rule="evenodd" d="M437.5 202.5C440.042 203.039 442.208 204.372 444 206.5C446 212.167 446 217.833 444 223.5C441.062 226.26 439.228 229.594 438.5 233.5C434.5 233.167 430.5 232.833 426.5 232.5C424.666 227.822 421.5 224.156 417 221.5C416.51 220.207 416.343 218.873 416.5 217.5C419.099 217.549 421.266 218.549 423 220.5C423.327 216.371 424.16 212.371 425.5 208.5C428.249 204.265 432.249 202.265 437.5 202.5Z" fill="#FBC289" />
    <path fill-rule="evenodd" clip-rule="evenodd" d="M145.5 215.5C152.881 216.952 160.214 218.619 167.5 220.5C168.833 221.167 170.167 221.833 171.5 222.5C167.245 235.684 162.912 248.851 158.5 262C145.081 259.814 131.747 256.98 118.5 253.5C108.145 251.274 97.8114 248.941 87.5 246.5C86.6091 245.739 85.9424 244.739 85.5 243.5C87.1129 237.659 89.1129 231.993 91.5 226.5C92.7891 220.721 94.4557 215.054 96.5 209.5C97.038 207.883 97.3713 206.216 97.5 204.5C113.639 207.535 129.639 211.201 145.5 215.5Z" fill="#FEFEFE" />
    <path fill-rule="evenodd" clip-rule="evenodd" d="M296.5 204.5C303.935 205.819 311.435 206.819 319 207.5C326.913 207.012 334.746 206.012 342.5 204.5C346.546 204.952 350.546 205.619 354.5 206.5C355.568 207.434 356.901 207.768 358.5 207.5C359.391 208.11 360.391 208.443 361.5 208.5C369.748 208.711 377.748 210.211 385.5 213C396.543 224.707 406.043 237.54 414 251.5C416.667 246.833 419.333 242.167 422 237.5C423.049 235.382 424.549 233.716 426.5 232.5C430.5 232.833 434.5 233.167 438.5 233.5C439.8 235.223 440.467 237.39 440.5 240C439.04 253.336 436.707 266.502 433.5 279.5C432.245 283.579 430.578 287.579 428.5 291.5C425.823 296.189 421.823 297.689 416.5 296C414.253 294.723 412.253 293.223 410.5 291.5C405.859 287.195 401.193 282.861 396.5 278.5C388.787 271.127 380.454 264.461 371.5 258.5C370.614 259.325 370.281 260.325 370.5 261.5C366.723 259.278 362.723 257.611 358.5 256.5C333.209 255.352 307.876 255.186 282.5 256C279.022 257.24 275.689 258.74 272.5 260.5C271.577 259.697 270.577 259.53 269.5 260C262.964 266.369 256.631 272.869 250.5 279.5C246.167 283.167 242.167 287.167 238.5 291.5C234.068 296.558 228.734 297.724 222.5 295C221.364 293.855 220.364 292.688 219.5 291.5C219.672 290.508 219.338 289.842 218.5 289.5C217.538 286.261 216.205 283.261 214.5 280.5C214.5 280.167 214.5 279.833 214.5 279.5C211.398 265.654 209.065 251.654 207.5 237.5C207.585 235.667 208.252 234.334 209.5 233.5C213.481 232.979 217.481 232.646 221.5 232.5C223.134 233.207 224.468 234.373 225.5 236C228.5 236.667 231.5 236.667 234.5 236C238.667 230.5 242.833 225 247 219.5C251.151 214.683 256.318 211.517 262.5 210C274.028 209.134 285.361 207.301 296.5 204.5Z" fill="#F08367" />
    <path fill-rule="evenodd" clip-rule="evenodd" d="M96.5 209.5C94.4557 215.054 92.7891 220.721 91.5 226.5C90.8761 226.083 90.5427 225.416 90.5 224.5C91.5412 219.545 92.2079 214.545 92.5 209.5C93.8333 209.5 95.1667 209.5 96.5 209.5Z" fill="#C2B1AC" />
    <path fill-rule="evenodd" clip-rule="evenodd" d="M552.5 209.5C552.5 210.5 552.5 211.5 552.5 212.5C550.883 213.038 549.216 213.371 547.5 213.5C547.918 212.778 548.584 212.278 549.5 212C545.848 211.501 542.182 211.335 538.5 211.5C542.881 209.789 547.547 209.123 552.5 209.5Z" fill="#9E9C9B" />
    <path fill-rule="evenodd" clip-rule="evenodd" d="M552.5 212.5C552.5 211.5 552.5 210.5 552.5 209.5C554.093 208.133 555.426 208.466 556.5 210.5C555.68 212.111 554.346 212.778 552.5 212.5Z" fill="#7683B1" />
    <path fill-rule="evenodd" clip-rule="evenodd" d="M538.5 211.5C542.182 211.335 545.848 211.501 549.5 212C548.584 212.278 547.918 212.778 547.5 213.5C536.793 214.554 526.126 215.887 515.5 217.5C515.5 216.167 515.5 214.833 515.5 213.5C523.131 212.458 530.798 211.791 538.5 211.5Z" fill="#787878" />
    <path fill-rule="evenodd" clip-rule="evenodd" d="M145.5 215.5C146.622 214.844 147.955 214.511 149.5 214.5C155.844 215.251 162.178 216.085 168.5 217C169.985 218.756 169.652 219.923 167.5 220.5C160.214 218.619 152.881 216.952 145.5 215.5Z" fill="#C2B1AC" />
    <path fill-rule="evenodd" clip-rule="evenodd" d="M503.5 238.5C505.219 239.022 506.552 240.022 507.5 241.5C505.072 242.212 502.739 243.212 500.5 244.5C499.534 242.604 499.201 240.604 499.5 238.5C500.833 238.5 502.167 238.5 503.5 238.5Z" fill="#B7D3C8" />
    <path fill-rule="evenodd" clip-rule="evenodd" d="M505.5 236.5C509.188 237.172 512.855 238.005 516.5 239C517.381 239.708 518.047 240.542 518.5 241.5C514.85 240.325 511.183 240.325 507.5 241.5C506.552 240.022 505.219 239.022 503.5 238.5C504.5 238.167 505.167 237.5 505.5 236.5Z" fill="#6C7A74" />
    <path fill-rule="evenodd" clip-rule="evenodd" d="M227.5 240.5C232.489 238.629 233.323 239.629 230 243.5C229.148 242.429 228.315 241.429 227.5 240.5Z" fill="#E6E1E0" />
    <path fill-rule="evenodd" clip-rule="evenodd" d="M535.5 243.5C534.167 244.167 532.833 244.833 531.5 245.5C531.167 245.5 530.833 245.5 530.5 245.5C527.903 245.279 527.903 244.779 530.5 244C528.167 243.667 525.833 243.333 523.5 243C522.944 242.617 522.611 242.117 522.5 241.5C522.56 240.957 522.893 240.624 523.5 240.5C527.706 241.137 531.706 242.137 535.5 243.5Z" fill="#768580" />
    <path fill-rule="evenodd" clip-rule="evenodd" d="M505.5 236.5C505.167 237.5 504.5 238.167 503.5 238.5C502.167 238.5 500.833 238.5 499.5 238.5C499.201 240.604 499.534 242.604 500.5 244.5C502.739 243.212 505.072 242.212 507.5 241.5C511.183 240.325 514.85 240.325 518.5 241.5C519.833 241.5 521.167 241.5 522.5 241.5C522.611 242.117 522.944 242.617 523.5 243C525.833 243.333 528.167 243.667 530.5 244C527.903 244.779 527.903 245.279 530.5 245.5C532.526 248.518 534.526 251.518 536.5 254.5C536.565 254.938 536.399 255.272 536 255.5C533.061 254.872 530.228 254.205 527.5 253.5C529.527 253.662 531.527 253.495 533.5 253C531.457 248.392 527.957 245.558 523 244.5C522.506 246.134 522.34 247.801 522.5 249.5C520.926 247.898 520.259 245.898 520.5 243.5C518.486 243.392 516.82 244.058 515.5 245.5C515.586 244.504 515.252 243.671 514.5 243C509.633 241.593 505.633 242.76 502.5 246.5C505.978 248.795 509.645 249.128 513.5 247.5C512.054 248.94 510.221 249.607 508 249.5C504.353 249.007 500.853 248.007 497.5 246.5C498.417 243.242 498.751 239.909 498.5 236.5C500.833 236.5 503.167 236.5 505.5 236.5Z" fill="#46504C" />
    <path fill-rule="evenodd" clip-rule="evenodd" d="M515.5 245.5C515.5 246.833 514.833 247.5 513.5 247.5C509.645 249.128 505.978 248.795 502.5 246.5C505.633 242.76 509.633 241.593 514.5 243C515.252 243.671 515.586 244.504 515.5 245.5Z" fill="#B3CDC3" />
    <path fill-rule="evenodd" clip-rule="evenodd" d="M535.5 243.5C537.117 244.038 538.784 244.371 540.5 244.5C540.946 247.01 540.28 249.01 538.5 250.5C539.292 249.033 539.292 247.7 538.5 246.5C536.253 245.626 533.92 245.292 531.5 245.5C532.833 244.833 534.167 244.167 535.5 243.5Z" fill="#464F4B" />
    <path fill-rule="evenodd" clip-rule="evenodd" d="M527.5 253.5C524.796 253.33 523.129 251.997 522.5 249.5C522.34 247.801 522.506 246.134 523 244.5C527.957 245.558 531.457 248.392 533.5 253C531.527 253.495 529.527 253.662 527.5 253.5Z" fill="#AEC8BE" />
    <path fill-rule="evenodd" clip-rule="evenodd" d="M530.5 245.5C530.833 245.5 531.167 245.5 531.5 245.5C533.92 245.292 536.253 245.626 538.5 246.5C539.292 247.7 539.292 249.033 538.5 250.5C538.34 252.153 537.674 253.486 536.5 254.5C534.526 251.518 532.526 248.518 530.5 245.5Z" fill="#B1CAC0" />
    <path fill-rule="evenodd" clip-rule="evenodd" d="M87.5 246.5C97.8114 248.941 108.145 251.274 118.5 253.5C118.083 254.124 117.416 254.457 116.5 254.5C107.219 253.171 97.8853 252.504 88.5 252.5C87.6586 250.621 87.3253 248.621 87.5 246.5Z" fill="#B8A7A2" />
    <path fill-rule="evenodd" clip-rule="evenodd" d="M358.5 256.5C360.241 258.977 361.741 261.644 363 264.5C366.21 287.416 368.21 310.416 369 333.5C363.567 344.983 354.4 351.149 341.5 352C337.179 352.499 332.846 352.666 328.5 352.5C328.83 335.658 328.497 318.992 327.5 302.5C322.747 295.941 318.081 295.941 313.5 302.5C312.503 318.992 312.17 335.658 312.5 352.5C297.83 352.667 283.163 352.5 268.5 352C265.793 351.605 263.127 351.105 260.5 350.5C259.272 349.694 258.272 348.694 257.5 347.5C256.217 344.31 255.55 340.976 255.5 337.5C256.73 322.093 258.397 306.76 260.5 291.5C260.646 287.481 260.979 283.481 261.5 279.5C262.357 271.443 266.023 265.11 272.5 260.5C275.689 258.74 279.022 257.24 282.5 256C307.876 255.186 333.209 255.352 358.5 256.5Z" fill="#B1BDC4" />
    <path fill-rule="evenodd" clip-rule="evenodd" d="M94.5 255.5C95.5 255.5 96.5 255.5 97.5 255.5C97.4261 259.541 96.0928 260.208 93.5 257.5C93.8627 256.817 94.1961 256.15 94.5 255.5Z" fill="#7381B1" />
    <path fill-rule="evenodd" clip-rule="evenodd" d="M358.5 256.5C362.723 257.611 366.723 259.278 370.5 261.5C375.629 266.425 378.629 272.425 379.5 279.5C379.668 285.034 380.335 290.367 381.5 295.5C383.052 308.805 384.386 322.138 385.5 335.5C385.66 339.685 384.993 343.685 383.5 347.5C377.611 355.62 369.611 360.453 359.5 362C351.173 362.5 342.84 362.666 334.5 362.5C332.167 362.5 329.833 362.5 327.5 362.5C327.5 342.5 327.5 322.5 327.5 302.5C328.497 318.992 328.83 335.658 328.5 352.5C332.846 352.666 337.179 352.499 341.5 352C354.4 351.149 363.567 344.983 369 333.5C368.21 310.416 366.21 287.416 363 264.5C361.741 261.644 360.241 258.977 358.5 256.5Z" fill="#91A4AE" />
    <path fill-rule="evenodd" clip-rule="evenodd" d="M396.5 278.5C391.025 279.489 385.358 279.822 379.5 279.5C378.629 272.425 375.629 266.425 370.5 261.5C370.281 260.325 370.614 259.325 371.5 258.5C380.454 264.461 388.787 271.127 396.5 278.5Z" fill="#E5E5E5" />
    <path fill-rule="evenodd" clip-rule="evenodd" d="M99.5 256.5C110.781 258.324 122.114 259.824 133.5 261C134.337 262.011 134.67 263.178 134.5 264.5C122.833 263.167 111.167 261.833 99.5 260.5C99.5 259.167 99.5 257.833 99.5 256.5Z" fill="#7C7D7D" />
    <path fill-rule="evenodd" clip-rule="evenodd" d="M171.5 222.5C172.043 222.56 172.376 222.893 172.5 223.5C167.149 235.238 164.483 247.571 164.5 260.5C163.022 260.238 161.689 260.571 160.5 261.5C160.135 262.902 159.301 263.902 158 264.5C135.165 257.696 111.998 253.696 88.5 252.5C97.8853 252.504 107.219 253.171 116.5 254.5C117.416 254.457 118.083 254.124 118.5 253.5C131.747 256.98 145.081 259.814 158.5 262C162.912 248.851 167.245 235.684 171.5 222.5Z" fill="#C3C1C1" />
    <path fill-rule="evenodd" clip-rule="evenodd" d="M272.5 260.5C266.023 265.11 262.357 271.443 261.5 279.5C257.833 279.5 254.167 279.5 250.5 279.5C256.631 272.869 262.964 266.369 269.5 260C270.577 259.53 271.577 259.697 272.5 260.5Z" fill="#E5E1E1" />
    <path fill-rule="evenodd" clip-rule="evenodd" d="M1.49998 275.5C1.49998 276.833 1.49998 278.167 1.49998 279.5C72.5 279.5 143.5 279.5 214.5 279.5C214.5 279.833 214.5 280.167 214.5 280.5C143.5 280.5 72.5 280.5 1.49998 280.5C1.16665 280.5 0.83331 280.5 0.499977 280.5C0.215498 278.585 0.548832 276.919 1.49998 275.5Z" fill="#BEB7B7" />
    <path fill-rule="evenodd" clip-rule="evenodd" d="M250.5 279.5C254.167 279.5 257.833 279.5 261.5 279.5C260.979 283.481 260.646 287.481 260.5 291.5C253.167 291.5 245.833 291.5 238.5 291.5C242.167 287.167 246.167 283.167 250.5 279.5Z" fill="#ABABAD" />
    <path fill-rule="evenodd" clip-rule="evenodd" d="M396.5 278.5C401.193 282.861 405.859 287.195 410.5 291.5C400.833 291.5 391.167 291.5 381.5 291.5C381.5 292.833 381.5 294.167 381.5 295.5C380.335 290.367 379.668 285.034 379.5 279.5C385.358 279.822 391.025 279.489 396.5 278.5Z" fill="#ABABAD" />
    <path fill-rule="evenodd" clip-rule="evenodd" d="M639.5 275.5C639.833 275.5 640.167 275.5 640.5 275.5C640.5 277.167 640.5 278.833 640.5 280.5C639.521 283.625 639.187 286.958 639.5 290.5C587.997 290.168 536.664 290.501 485.5 291.5C466.5 291.5 447.5 291.5 428.5 291.5C430.578 287.579 432.245 283.579 433.5 279.5C502.167 279.5 570.833 279.5 639.5 279.5C639.5 278.167 639.5 276.833 639.5 275.5Z" fill="#A9AAAD" />
    <path opacity="0.439" fill-rule="evenodd" clip-rule="evenodd" d="M0.5 280.5C0.833333 280.5 1.16667 280.5 1.5 280.5C1.5 283.833 1.5 287.167 1.5 290.5C8.02207 290.177 14.3554 290.51 20.5 291.5C13.8333 291.5 7.16667 291.5 0.5 291.5C0.5 287.833 0.5 284.167 0.5 280.5Z" fill="#A38A84" />
    <path fill-rule="evenodd" clip-rule="evenodd" d="M218.5 289.5C219.338 289.842 219.672 290.508 219.5 291.5C198.167 291.5 176.833 291.5 155.5 291.5C176.5 290.833 197.5 290.167 218.5 289.5Z" fill="#C7B9B5" />
    <path fill-rule="evenodd" clip-rule="evenodd" d="M640.5 280.5C640.5 284.167 640.5 287.833 640.5 291.5C633.833 291.5 627.167 291.5 620.5 291.5C575.5 291.5 530.5 291.5 485.5 291.5C536.664 290.501 587.997 290.168 639.5 290.5C639.187 286.958 639.521 283.625 640.5 280.5Z" fill="#A59896" />
    <path opacity="0.996" fill-rule="evenodd" clip-rule="evenodd" d="M1.5 280.5C72.5 280.5 143.5 280.5 214.5 280.5C216.205 283.261 217.538 286.261 218.5 289.5C197.5 290.167 176.5 290.833 155.5 291.5C155.5 323.833 155.5 356.167 155.5 388.5C155.5 405.167 155.5 421.833 155.5 438.5C150.5 438.5 145.5 438.5 140.5 438.5C140.5 436.5 140.5 434.5 140.5 432.5C105.5 432.5 70.5 432.5 35.5 432.5C35.5 434.5 35.5 436.5 35.5 438.5C30.5 438.5 25.5 438.5 20.5 438.5C20.5 389.5 20.5 340.5 20.5 291.5C14.3554 290.51 8.02207 290.177 1.5 290.5C1.5 287.167 1.5 283.833 1.5 280.5Z" fill="#A7A9AC" />
    <path fill-rule="evenodd" clip-rule="evenodd" d="M46.5 291.5C74.1667 290.167 101.833 290.167 129.5 291.5C129.821 296.695 129.487 301.695 128.5 306.5C128.5 301.5 128.5 296.5 128.5 291.5C101.167 291.5 73.8333 291.5 46.5 291.5Z" fill="#675C5A" />
    <path fill-rule="evenodd" clip-rule="evenodd" d="M46.5 291.5C46.5 296.167 46.5 300.833 46.5 305.5C48.7446 308.056 48.9113 310.722 47 313.5C46.5 338.164 46.3334 362.831 46.5 387.5C42.8333 387.5 39.1667 387.5 35.5 387.5C35.5 355.5 35.5 323.5 35.5 291.5C39.1667 291.5 42.8333 291.5 46.5 291.5Z" fill="#B6B6B7" />
    <path fill-rule="evenodd" clip-rule="evenodd" d="M46.5 291.5C73.8333 291.5 101.167 291.5 128.5 291.5C128.5 296.5 128.5 301.5 128.5 306.5C128.672 307.492 128.338 308.158 127.5 308.5C124.622 306.203 121.289 304.87 117.5 304.5C93.8007 304.197 70.134 304.53 46.5 305.5C46.5 300.833 46.5 296.167 46.5 291.5Z" fill="#373637" />
    <path fill-rule="evenodd" clip-rule="evenodd" d="M129.5 291.5C133.167 291.5 136.833 291.5 140.5 291.5C140.5 323.5 140.5 355.5 140.5 387.5C136.833 387.5 133.167 387.5 129.5 387.5C129.667 362.831 129.5 338.164 129 313.5C127.991 311.975 127.491 310.308 127.5 308.5C128.338 308.158 128.672 307.492 128.5 306.5C129.487 301.695 129.821 296.695 129.5 291.5Z" fill="#B6B6B7" />
    <path opacity="0.995" fill-rule="evenodd" clip-rule="evenodd" d="M155.5 291.5C176.833 291.5 198.167 291.5 219.5 291.5C220.364 292.688 221.364 293.855 222.5 295C228.734 297.724 234.068 296.558 238.5 291.5C245.833 291.5 253.167 291.5 260.5 291.5C258.397 306.76 256.73 322.093 255.5 337.5C255.55 340.976 256.217 344.31 257.5 347.5C254.326 348.01 251.992 349.677 250.5 352.5C246.805 354.869 244.305 358.203 243 362.5C241.256 371.236 240.089 379.903 239.5 388.5C211.5 388.5 183.5 388.5 155.5 388.5C155.5 356.167 155.5 323.833 155.5 291.5Z" fill="#E1DEDB" />
    <path opacity="0.995" fill-rule="evenodd" clip-rule="evenodd" d="M410.5 291.5C412.253 293.223 414.253 294.723 416.5 296C421.823 297.689 425.823 296.189 428.5 291.5C447.5 291.5 466.5 291.5 485.5 291.5C485.5 323.833 485.5 356.167 485.5 388.5C457.5 388.5 429.5 388.5 401.5 388.5C400.267 380.323 399.101 371.99 398 363.5C396.568 359.623 394.402 356.289 391.5 353.5C389.2 351.016 386.533 349.016 383.5 347.5C384.993 343.685 385.66 339.685 385.5 335.5C384.386 322.138 383.052 308.805 381.5 295.5C381.5 294.167 381.5 292.833 381.5 291.5C391.167 291.5 400.833 291.5 410.5 291.5Z" fill="#E1DEDB" />
    <path opacity="0.998" fill-rule="evenodd" clip-rule="evenodd" d="M485.5 291.5C530.5 291.5 575.5 291.5 620.5 291.5C620.5 340.5 620.5 389.5 620.5 438.5C615.5 438.5 610.5 438.5 605.5 438.5C605.5 436.5 605.5 434.5 605.5 432.5C570.5 432.5 535.5 432.5 500.5 432.5C500.5 434.5 500.5 436.5 500.5 438.5C495.5 438.5 490.5 438.5 485.5 438.5C485.5 421.833 485.5 405.167 485.5 388.5C485.5 356.167 485.5 323.833 485.5 291.5Z" fill="#A6A8AB" />
    <path fill-rule="evenodd" clip-rule="evenodd" d="M498.5 294.5C534.833 294.5 571.167 294.5 607.5 294.5C607.5 308.5 607.5 322.5 607.5 336.5C571.167 336.5 534.833 336.5 498.5 336.5C498.5 322.5 498.5 308.5 498.5 294.5Z" fill="#6D6E71" />
    <path fill-rule="evenodd" clip-rule="evenodd" d="M327.5 302.5C327.5 322.5 327.5 342.5 327.5 362.5C329.833 362.5 332.167 362.5 334.5 362.5C332.393 363.468 330.059 363.802 327.5 363.5C327.5 373.167 327.5 382.833 327.5 392.5C327.5 393.5 327.5 394.5 327.5 395.5C327.5 401.5 327.5 407.5 327.5 413.5C344.167 413.5 360.833 413.5 377.5 413.5C377.5 415.167 377.5 416.833 377.5 418.5C374.833 418.5 372.167 418.5 369.5 418.5C355.833 418.5 342.167 418.5 328.5 418.5C328.5 428.5 328.5 438.5 328.5 448.5C323.167 448.5 317.833 448.5 312.5 448.5C312.5 438.5 312.5 428.5 312.5 418.5C298.833 418.5 285.167 418.5 271.5 418.5C268.833 418.5 266.167 418.5 263.5 418.5C263.5 416.833 263.5 415.167 263.5 413.5C280.167 413.5 296.833 413.5 313.5 413.5C313.5 407.5 313.5 401.5 313.5 395.5C313.5 394.5 313.5 393.5 313.5 392.5C313.5 382.833 313.5 373.167 313.5 363.5C310.941 363.802 308.607 363.468 306.5 362.5C308.833 362.5 311.167 362.5 313.5 362.5C313.5 342.5 313.5 322.5 313.5 302.5C318.081 295.941 322.747 295.941 327.5 302.5Z" fill="#757777" />
    <path fill-rule="evenodd" clip-rule="evenodd" d="M117.5 304.5C114.506 311.811 111.506 319.145 108.5 326.5C101.844 315.332 92.1769 311.499 79.5 315C69.0795 320.01 65.2462 328.177 68 339.5C73.137 351.983 82.3037 356.316 95.5 352.5C94.1734 355.471 92.8401 358.471 91.5 361.5C78.5171 362.499 65.5171 362.832 52.5 362.5C52.1765 369.022 52.5098 375.355 53.5 381.5C76.6607 382.498 99.994 382.831 123.5 382.5C109.328 383.167 94.9943 383.833 80.5 384.5C75.0269 396.918 69.3603 409.251 63.5 421.5C84.4894 422.5 105.489 422.833 126.5 422.5C100.598 423.827 74.5977 423.827 48.5 422.5C47.9101 421.234 47.4101 419.901 47 418.5C46.5002 408.172 46.3335 397.839 46.5 387.5C46.3334 362.831 46.5 338.164 47 313.5C48.9113 310.722 48.7446 308.056 46.5 305.5C70.134 304.53 93.8007 304.197 117.5 304.5Z" fill="#515050" />
    <path fill-rule="evenodd" clip-rule="evenodd" d="M117.5 304.5C121.289 304.87 124.622 306.203 127.5 308.5C127.491 310.308 127.991 311.975 129 313.5C129.5 338.164 129.667 362.831 129.5 387.5C129.666 397.839 129.5 408.172 129 418.5C128.59 419.901 128.09 421.234 127.5 422.5C127.167 422.5 126.833 422.5 126.5 422.5C105.489 422.833 84.4894 422.5 63.5 421.5C69.3603 409.251 75.0269 396.918 80.5 384.5C94.9943 383.833 109.328 383.167 123.5 382.5C123.833 375.406 123.5 369.073 122.5 363.5C99.5 363.5 76.5 363.5 53.5 363.5C53.5 369.5 53.5 375.5 53.5 381.5C52.5098 375.355 52.1765 369.022 52.5 362.5C65.5171 362.832 78.5171 362.499 91.5 361.5C92.8401 358.471 94.1734 355.471 95.5 352.5C106.676 347.483 111.009 338.816 108.5 326.5C111.506 319.145 114.506 311.811 117.5 304.5Z" fill="#434343" />
    <path fill-rule="evenodd" clip-rule="evenodd" d="M550.5 311.5C557.004 311.138 558.671 313.638 555.5 319C548.745 319.756 547.078 317.256 550.5 311.5Z" fill="#F5F5F5" />
    <path fill-rule="evenodd" clip-rule="evenodd" d="M108.5 326.5C111.009 338.816 106.676 347.483 95.5 352.5C82.3037 356.316 73.137 351.983 68 339.5C65.2462 328.177 69.0795 320.01 79.5 315C92.1769 311.499 101.844 315.332 108.5 326.5Z" fill="#B0AFB0" />
    <path fill-rule="evenodd" clip-rule="evenodd" d="M99.5001 341.5C101.445 337.394 101.945 333.061 101 328.5C100.623 327.058 99.79 326.058 98.5001 325.5C97.2288 323.066 95.2288 321.566 92.5001 321C83.5355 318.732 77.3688 321.899 74.0001 330.5C73.2764 334.828 74.1097 338.828 76.5001 342.5C74.726 343.881 73.226 343.548 72.0001 341.5C68.0165 327.464 73.1831 319.131 87.5001 316.5C104.293 319.754 109.126 329.088 102 344.5C100.955 343.627 100.122 342.627 99.5001 341.5Z" fill="#E6E5E4" />
    <path fill-rule="evenodd" clip-rule="evenodd" d="M98.5 325.5C89.6374 321.674 82.804 324.007 78 332.5C77.4213 336.203 77.588 339.869 78.5 343.5C77.8333 343.167 77.1667 342.833 76.5 342.5C74.1096 338.828 73.2763 334.828 74 330.5C77.3687 321.899 83.5354 318.732 92.5 321C95.2287 321.566 97.2287 323.066 98.5 325.5Z" fill="#303032" />
    <path fill-rule="evenodd" clip-rule="evenodd" d="M98.5001 325.5C99.79 326.058 100.623 327.058 101 328.5C101.945 333.061 101.445 337.394 99.5001 341.5C93.0216 347.331 86.0216 347.998 78.5001 343.5C77.5881 339.869 77.4214 336.203 78.0001 332.5C82.8041 324.007 89.6375 321.674 98.5001 325.5Z" fill="#1B1C1F" />
    <path fill-rule="evenodd" clip-rule="evenodd" d="M498.5 340.5C534.833 340.5 571.167 340.5 607.5 340.5C607.5 354.167 607.5 367.833 607.5 381.5C571.167 381.5 534.833 381.5 498.5 381.5C498.5 367.833 498.5 354.167 498.5 340.5Z" fill="#6D6E71" />
    <path fill-rule="evenodd" clip-rule="evenodd" d="M257.5 347.5C258.272 348.694 259.272 349.694 260.5 350.5C264.602 355.728 269.935 359.228 276.5 361C286.443 362.365 296.443 362.865 306.5 362.5C308.607 363.468 310.941 363.802 313.5 363.5C313.5 373.167 313.5 382.833 313.5 392.5C300.022 392.28 286.689 390.78 273.5 388C269.476 386.326 265.809 384.159 262.5 381.5C254.604 373.488 250.604 363.821 250.5 352.5C251.992 349.677 254.326 348.01 257.5 347.5Z" fill="#384850" />
    <path fill-rule="evenodd" clip-rule="evenodd" d="M383.5 347.5C386.533 349.016 389.2 351.016 391.5 353.5C389.871 364.04 385.537 373.373 378.5 381.5C374.682 383.911 370.682 386.077 366.5 388C353.616 390.569 340.616 392.069 327.5 392.5C327.5 382.833 327.5 373.167 327.5 363.5C330.059 363.802 332.393 363.468 334.5 362.5C342.84 362.666 351.173 362.5 359.5 362C369.611 360.453 377.611 355.62 383.5 347.5Z" fill="#384850" />
    <path fill-rule="evenodd" clip-rule="evenodd" d="M313.5 302.5C313.5 322.5 313.5 342.5 313.5 362.5C311.167 362.5 308.833 362.5 306.5 362.5C296.443 362.865 286.443 362.365 276.5 361C269.935 359.228 264.602 355.728 260.5 350.5C263.127 351.105 265.793 351.605 268.5 352C283.163 352.5 297.83 352.667 312.5 352.5C312.17 335.658 312.503 318.992 313.5 302.5Z" fill="#91A4AD" />
    <path opacity="0.991" fill-rule="evenodd" clip-rule="evenodd" d="M250.5 352.5C250.604 363.821 254.604 373.488 262.5 381.5C255.912 386.921 253.245 393.921 254.5 402.5C254.5 406.167 254.5 409.833 254.5 413.5C257.5 413.5 260.5 413.5 263.5 413.5C263.5 415.167 263.5 416.833 263.5 418.5C266.167 418.5 268.833 418.5 271.5 418.5C269.837 434.462 268.503 450.462 267.5 466.5C267.786 474.053 264.119 476.886 256.5 475C255.069 474.535 253.903 473.701 253 472.5C250.034 462.144 247.534 451.811 245.5 441.5C245.672 440.508 245.338 439.842 244.5 439.5C241.452 422.641 239.785 405.641 239.5 388.5C240.089 379.903 241.256 371.236 243 362.5C244.305 358.203 246.805 354.869 250.5 352.5Z" fill="#273339" />
    <path opacity="0.993" fill-rule="evenodd" clip-rule="evenodd" d="M391.5 353.5C394.402 356.289 396.568 359.623 398 363.5C399.101 371.99 400.267 380.323 401.5 388.5C400.738 404.929 399.071 421.262 396.5 437.5C395.662 437.842 395.328 438.508 395.5 439.5C393.191 450.415 390.691 461.415 388 472.5C379.581 478.174 374.748 476.174 373.5 466.5C371.947 450.529 370.614 434.529 369.5 418.5C372.167 418.5 374.833 418.5 377.5 418.5C377.5 416.833 377.5 415.167 377.5 413.5C380.5 413.5 383.5 413.5 386.5 413.5C386.5 409.833 386.5 406.167 386.5 402.5C387.755 393.921 385.088 386.921 378.5 381.5C385.537 373.373 389.871 364.04 391.5 353.5Z" fill="#273339" />
    <path fill-rule="evenodd" clip-rule="evenodd" d="M550.5 356.5C557.896 356.615 559.23 359.448 554.5 365C551.702 365.561 549.869 364.394 549 361.5C548.387 359.505 548.887 357.838 550.5 356.5Z" fill="#F1F2F2" />
    <path fill-rule="evenodd" clip-rule="evenodd" d="M122.5 363.5C122.5 369.5 122.5 375.5 122.5 381.5C121.5 381.5 120.5 381.5 119.5 381.5C119.5 378.833 119.5 376.167 119.5 373.5C98.5 373.5 77.5 373.5 56.5 373.5C56.5 376.167 56.5 378.833 56.5 381.5C55.5 381.5 54.5 381.5 53.5 381.5C53.5 375.5 53.5 369.5 53.5 363.5C76.5 363.5 99.5 363.5 122.5 363.5Z" fill="#565756" />
    <path fill-rule="evenodd" clip-rule="evenodd" d="M56.5 364.5C77.5 364.5 98.5 364.5 119.5 364.5C119.5 366.833 119.5 369.167 119.5 371.5C98.5879 371.34 77.5879 371.34 56.5 371.5C56.5 369.167 56.5 366.833 56.5 364.5Z" fill="#3F3F3F" />
    <path fill-rule="evenodd" clip-rule="evenodd" d="M119.5 381.5C98.5 381.5 77.5 381.5 56.5 381.5C56.5 378.833 56.5 376.167 56.5 373.5C77.5 373.5 98.5 373.5 119.5 373.5C119.5 376.167 119.5 378.833 119.5 381.5Z" fill="#464646" />
    <path fill-rule="evenodd" clip-rule="evenodd" d="M123.5 382.5C99.994 382.831 76.6607 382.498 53.5 381.5C54.5 381.5 55.5 381.5 56.5 381.5C77.5 381.5 98.5 381.5 119.5 381.5C120.5 381.5 121.5 381.5 122.5 381.5C122.5 375.5 122.5 369.5 122.5 363.5C123.5 369.073 123.833 375.406 123.5 382.5Z" fill="#858686" />
    <path fill-rule="evenodd" clip-rule="evenodd" d="M262.5 381.5C265.809 384.159 269.476 386.326 273.5 388C286.689 390.78 300.022 392.28 313.5 392.5C313.5 393.5 313.5 394.5 313.5 395.5C296.497 395.333 279.497 395.5 262.5 396C259.172 397.479 256.506 399.645 254.5 402.5C253.245 393.921 255.912 386.921 262.5 381.5Z" fill="#AFBCC3" />
    <path fill-rule="evenodd" clip-rule="evenodd" d="M378.5 381.5C385.088 386.921 387.755 393.921 386.5 402.5C384.279 399.377 381.279 397.211 377.5 396C360.837 395.5 344.17 395.333 327.5 395.5C327.5 394.5 327.5 393.5 327.5 392.5C340.616 392.069 353.616 390.569 366.5 388C370.682 386.077 374.682 383.911 378.5 381.5Z" fill="#AEBBC2" />
    <path fill-rule="evenodd" clip-rule="evenodd" d="M498.5 385.5C534.833 385.5 571.167 385.5 607.5 385.5C607.5 399.167 607.5 412.833 607.5 426.5C571.167 426.5 534.833 426.5 498.5 426.5C498.5 412.833 498.5 399.167 498.5 385.5Z" fill="#6D6E71" />
    <path fill-rule="evenodd" clip-rule="evenodd" d="M35.5 387.5C39.1667 387.5 42.8333 387.5 46.5 387.5C46.3335 397.839 46.5002 408.172 47 418.5C47.4101 419.901 47.9101 421.234 48.5 422.5C44.3656 423.485 40.0323 423.818 35.5 423.5C35.5 411.5 35.5 399.5 35.5 387.5Z" fill="#DFDCDA" />
    <path fill-rule="evenodd" clip-rule="evenodd" d="M129.5 387.5C133.167 387.5 136.833 387.5 140.5 387.5C140.5 399.5 140.5 411.5 140.5 423.5C135.968 423.818 131.634 423.485 127.5 422.5C128.09 421.234 128.59 419.901 129 418.5C129.5 408.172 129.666 397.839 129.5 387.5Z" fill="#DFDDDA" />
    <path fill-rule="evenodd" clip-rule="evenodd" d="M313.5 395.5C313.5 401.5 313.5 407.5 313.5 413.5C296.833 413.5 280.167 413.5 263.5 413.5C260.5 413.5 257.5 413.5 254.5 413.5C254.5 409.833 254.5 406.167 254.5 402.5C256.506 399.645 259.172 397.479 262.5 396C279.497 395.5 296.497 395.333 313.5 395.5Z" fill="#8FA3AD" />
    <path fill-rule="evenodd" clip-rule="evenodd" d="M327.5 395.5C344.17 395.333 360.837 395.5 377.5 396C381.279 397.211 384.279 399.377 386.5 402.5C386.5 406.167 386.5 409.833 386.5 413.5C383.5 413.5 380.5 413.5 377.5 413.5C360.833 413.5 344.167 413.5 327.5 413.5C327.5 407.5 327.5 401.5 327.5 395.5Z" fill="#8FA3AD" />
    <path fill-rule="evenodd" clip-rule="evenodd" d="M551.5 401.5C554.864 400.873 556.864 402.206 557.5 405.5C554.814 411.898 551.814 412.065 548.5 406C548.957 404.06 549.957 402.56 551.5 401.5Z" fill="#F2F2F3" />
    <path opacity="0.9" fill-rule="evenodd" clip-rule="evenodd" d="M140.5 438.5C105.5 438.5 70.5 438.5 35.5 438.5C35.5 436.5 35.5 434.5 35.5 432.5C70.5 432.5 105.5 432.5 140.5 432.5C140.5 434.5 140.5 436.5 140.5 438.5Z" fill="#DDDAD8" />
    <path opacity="0.9" fill-rule="evenodd" clip-rule="evenodd" d="M605.5 438.5C570.5 438.5 535.5 438.5 500.5 438.5C500.5 436.5 500.5 434.5 500.5 432.5C535.5 432.5 570.5 432.5 605.5 432.5C605.5 434.5 605.5 436.5 605.5 438.5Z" fill="#DDDAD8" />
    <path fill-rule="evenodd" clip-rule="evenodd" d="M396.5 437.5C402.665 437.761 405.665 441.094 405.5 447.5C402.507 460.494 396.173 471.494 386.5 480.5C390.144 475.337 393.644 470.004 397 464.5C400.098 458.847 401.098 452.847 400 446.5C399 444.833 397.667 443.5 396 442.5C395.517 441.552 395.351 440.552 395.5 439.5C395.328 438.508 395.662 437.842 396.5 437.5Z" fill="#475A61" />
    <path fill-rule="evenodd" clip-rule="evenodd" d="M244.5 439.5C245.338 439.842 245.672 440.508 245.5 441.5C244.805 443.978 243.305 445.978 241 447.5C239.827 454.653 241.16 461.319 245 467.5C248.762 472.308 251.929 476.975 254.5 481.5C245.82 473.482 239.653 463.816 236 452.5C234.787 447.618 235.954 443.452 239.5 440C241.134 439.506 242.801 439.34 244.5 439.5Z" fill="#475A61" />
    <path opacity="0.984" fill-rule="evenodd" clip-rule="evenodd" d="M395.5 439.5C395.351 440.552 395.517 441.552 396 442.5C397.667 443.5 399 444.833 400 446.5C401.098 452.847 400.098 458.847 397 464.5C393.644 470.004 390.144 475.337 386.5 480.5C383.065 483.692 379.065 484.692 374.5 483.5C374.662 481.473 374.495 479.473 374 477.5C372.628 476.09 371.795 474.423 371.5 472.5C371.595 470.214 372.262 468.214 373.5 466.5C374.748 476.174 379.581 478.174 388 472.5C390.691 461.415 393.191 450.415 395.5 439.5Z" fill="#37474F" />
    <path opacity="0.981" fill-rule="evenodd" clip-rule="evenodd" d="M245.5 441.5C247.534 451.811 250.034 462.144 253 472.5C253.903 473.701 255.069 474.535 256.5 475C264.119 476.886 267.786 474.053 267.5 466.5C268.73 468.297 269.396 470.297 269.5 472.5C269.205 474.423 268.372 476.09 267 477.5C266.503 479.81 266.337 482.143 266.5 484.5C261.873 485.957 257.873 484.957 254.5 481.5C251.929 476.975 248.762 472.308 245 467.5C241.16 461.319 239.827 454.653 241 447.5C243.305 445.978 244.805 443.978 245.5 441.5Z" fill="#37474F" />
    <path opacity="0.967" fill-rule="evenodd" clip-rule="evenodd" d="M312.5 448.5C317.833 448.5 323.167 448.5 328.5 448.5C329.5 448.5 330.5 448.5 331.5 448.5C331.5 453.5 331.5 458.5 331.5 463.5C343.171 463.333 354.838 463.5 366.5 464C369.125 466.196 370.125 469.03 369.5 472.5C367.157 469.67 364.157 467.837 360.5 467C347.838 466.5 335.171 466.333 322.5 466.5C322.5 473.167 322.5 479.833 322.5 486.5C321.167 486.5 319.833 486.5 318.5 486.5C318.5 479.833 318.5 473.167 318.5 466.5C305.163 466.333 291.829 466.5 278.5 467C276.004 468.666 273.671 470.5 271.5 472.5C270.875 469.03 271.875 466.196 274.5 464C286.162 463.5 297.829 463.333 309.5 463.5C309.5 458.5 309.5 453.5 309.5 448.5C310.5 448.5 311.5 448.5 312.5 448.5Z" fill="#9C9C9C" />
    <path opacity="0.989" fill-rule="evenodd" clip-rule="evenodd" d="M369.5 472.5C370.167 472.5 370.833 472.5 371.5 472.5C371.795 474.423 372.628 476.09 374 477.5C374.495 479.473 374.662 481.473 374.5 483.5C374.158 484.338 373.492 484.672 372.5 484.5C364.781 480.676 357.115 480.676 349.5 484.5C346.823 480.987 347.157 477.487 350.5 474C342.507 473.5 334.507 473.334 326.5 473.5C325.445 480.647 326.945 486.98 331 492.5C332.149 495.393 332.649 498.393 332.5 501.5C331.5 501.5 330.5 501.5 329.5 501.5C323.47 497.587 317.47 497.587 311.5 501.5C310.5 501.5 309.5 501.5 308.5 501.5C308.022 496.257 309.689 491.924 313.5 488.5C314.494 483.544 314.827 478.544 314.5 473.5C306.493 473.334 298.493 473.5 290.5 474C293.1 476.984 294.1 480.484 293.5 484.5C292.5 484.5 291.5 484.5 290.5 484.5C283.149 480.591 275.816 480.591 268.5 484.5C267.833 484.5 267.167 484.5 266.5 484.5C266.337 482.143 266.503 479.81 267 477.5C268.372 476.09 269.205 474.423 269.5 472.5C270.167 472.5 270.833 472.5 271.5 472.5C273.671 470.5 276.004 468.666 278.5 467C291.829 466.5 305.163 466.333 318.5 466.5C318.5 473.167 318.5 479.833 318.5 486.5C319.833 486.5 321.167 486.5 322.5 486.5C322.5 479.833 322.5 473.167 322.5 466.5C335.171 466.333 347.838 466.5 360.5 467C364.157 467.837 367.157 469.67 369.5 472.5Z" fill="#767777" />
    <path opacity="0.935" fill-rule="evenodd" clip-rule="evenodd" d="M290.5 484.5C286.489 491.003 280.822 492.836 273.5 490C271.285 488.621 269.619 486.787 268.5 484.5C275.816 480.591 283.149 480.591 290.5 484.5Z" fill="#363939" />
    <path opacity="0.952" fill-rule="evenodd" clip-rule="evenodd" d="M372.5 484.5C370.723 489.982 366.89 492.649 361 492.5C355.11 492.649 351.277 489.982 349.5 484.5C357.115 480.676 364.781 480.676 372.5 484.5Z" fill="#363939" />
    <path opacity="0.955" fill-rule="evenodd" clip-rule="evenodd" d="M329.5 501.5C328.901 505.095 326.901 507.428 323.5 508.5C321.5 508.5 319.5 508.5 317.5 508.5C314.099 507.428 312.099 505.095 311.5 501.5C317.47 497.587 323.47 497.587 329.5 501.5Z" fill="#363939" />
</svg>
    