<svg
  width="60"
  height="60"
  viewBox="0 0 60 60"
  fill="none"
  xmlns="http://www.w3.org/2000/svg"
>
<path
    d="M30 0C46.5685 0 60 13.4315 60 30C60 46.5685 46.5685 60 30 60C13.4315 60 0 46.5685 0 30C0 13.4315 13.4315 0 30 0ZM43.3246 18C42.1817 18.0203 40.4282 18.6222 31.9894 22.0875C29.0339 23.3012 23.1269 25.8131 14.2686 29.6234C12.8301 30.1882 12.0766 30.7407 12.008 31.2809C11.8763 32.318 13.3887 32.6409 15.2917 33.2516C16.8432 33.7495 18.9302 34.332 20.0152 34.3552C20.9994 34.3762 22.0978 33.9756 23.3105 33.1535C31.5872 27.6376 35.8596 24.8497 36.1278 24.7896C36.3171 24.7472 36.5793 24.6939 36.757 24.8498C36.9347 25.0057 36.9172 25.3009 36.8984 25.3802C36.7479 26.0135 28.9729 32.9954 28.5255 33.4542L28.3109 33.6699C26.6622 35.2983 24.9959 36.3615 27.871 38.232C30.467 39.921 31.9779 40.9984 34.6523 42.7292C36.3614 43.8353 37.7014 45.1469 39.466 44.9866C40.278 44.9128 41.1167 44.1591 41.5427 41.9109C42.5493 36.5979 44.528 25.0863 44.9853 20.3426C45.0254 19.927 44.975 19.3951 44.9345 19.1616C44.894 18.9281 44.8095 18.5955 44.5021 18.3492C44.138 18.0575 43.5759 17.996 43.3246 18Z"
    fill="#060137"
  />
</svg>
