<svg
  width="150"
  height="150"
  viewBox="0 0 150 150"
  fill="none"
  xmlns="http://www.w3.org/2000/svg"
>
    <rect
    x="0.75"
    y="0.75"
    width="148.5"
    height="148.5"
    rx="18.25"
    fill="white"
    stroke="#F0F0F0"
    stroke-width="1.5"
  />
    <path
    d="M59.5031 107.803C59.5031 107.803 54.9174 110.469 62.7666 111.372C72.2757 112.457 77.1356 112.301 87.6147 110.318C87.6147 110.318 90.3698 112.045 94.2174 113.542C70.7261 123.609 41.0519 112.958 59.5031 107.803Z"
    fill="#5382A1"
  />
    <path
    d="M56.6328 94.6643C56.6328 94.6643 51.4895 98.4715 59.3446 99.284C69.5025 100.332 77.5244 100.418 91.4054 97.7447C91.4054 97.7447 93.3253 99.6912 96.3443 100.756C67.9419 109.061 36.3067 101.411 56.6328 94.6643Z"
    fill="#5382A1"
  />
    <path
    d="M80.832 72.378C86.6203 79.0421 79.3112 85.039 79.3112 85.039C79.3112 85.039 94.0086 77.4518 87.2587 67.9508C80.9546 59.0905 76.1202 54.6882 102.292 39.5095C102.292 39.5095 61.2109 49.7696 80.832 72.378Z"
    fill="#E76F00"
  />
    <path
    d="M111.901 117.52C111.901 117.52 115.295 120.316 108.164 122.479C94.6044 126.587 51.7278 127.827 39.8169 122.643C35.5352 120.78 43.5645 118.195 46.0903 117.653C48.7244 117.082 50.2296 117.188 50.2296 117.188C45.468 113.834 19.4522 123.775 37.0149 126.622C84.911 134.389 124.325 123.124 111.901 117.52Z"
    fill="#5382A1"
  />
    <path
    d="M61.7086 81.052C61.7086 81.052 39.8989 86.2322 53.9852 88.1133C59.933 88.9096 71.7896 88.7295 82.8337 87.8041C91.8596 87.0427 100.923 85.4239 100.923 85.4239C100.923 85.4239 97.74 86.7869 95.4375 88.3591C73.29 94.1839 30.5052 91.4742 42.8224 85.5161C53.2391 80.4808 61.7086 81.052 61.7086 81.052Z"
    fill="#5382A1"
  />
    <path
    d="M100.832 102.921C123.346 91.2218 112.937 79.9791 105.671 81.4937C103.89 81.8644 103.096 82.1856 103.096 82.1856C103.096 82.1856 103.757 81.1499 105.02 80.7016C119.394 75.6482 130.448 95.606 100.38 103.511C100.38 103.511 100.728 103.199 100.832 102.921Z"
    fill="#5382A1"
  />
    <path
    d="M87.2586 15C87.2586 15 99.7272 27.4728 75.4328 46.6523C55.9511 62.0377 70.9903 70.81 75.4247 80.8327C64.0529 70.5726 55.7075 61.5405 61.3063 53.1344C69.5239 40.7949 92.2894 34.8122 87.2586 15Z"
    fill="#E76F00"
  />
    <path
    d="M63.9206 134.623C85.5312 136.006 118.717 133.855 119.503 123.63C119.503 123.63 117.992 127.506 101.643 130.585C83.1976 134.056 60.4482 133.65 46.9553 131.426C46.9556 131.425 49.7175 133.712 63.9206 134.623Z"
    fill="#5382A1"
  />
    </svg>
