<svg width="100" height="100" viewBox="0 0 100 100" fill="none" xmlns="http://www.w3.org/2000/svg">
    <path d="M49.5766 0.223511C24.2514 0.223513 25.8329 11.206 25.8329 11.206L25.8611 22.5838H50.0283V25.9999H16.2621C16.2621 25.9999 0.0565186 24.1621 0.0565186 49.7153C0.0565167 75.2686 14.2011 74.3624 14.2011 74.3624H22.6426V62.5047C22.6426 62.5047 22.1876 48.3602 36.5613 48.3602H60.5308C60.5308 48.3602 73.9978 48.5778 73.9978 35.3449V13.4646C73.9978 13.4646 76.0424 0.223511 49.5766 0.223511ZM36.2508 7.87455C38.6552 7.87455 40.5986 9.81793 40.5986 12.2224C40.5986 14.6268 38.6552 16.5702 36.2508 16.5702C33.8463 16.5702 31.9029 14.6268 31.9029 12.2224C31.9029 9.81793 33.8463 7.87455 36.2508 7.87455Z" fill="url(#paint0_linear_99_581)" />
    <path d="M50.2957 99.4633C75.6209 99.4633 74.0394 88.4808 74.0394 88.4808L74.0112 77.1031H49.844V73.6869H83.6103C83.6103 73.6869 99.8158 75.5248 99.8158 49.9715C99.8158 24.4182 85.6712 25.3244 85.6712 25.3244H77.2297V37.1821C77.2297 37.1821 77.6847 51.3267 63.311 51.3267H39.3415C39.3415 51.3267 25.8745 51.109 25.8745 64.3419V86.2222C25.8745 86.2222 23.8299 99.4633 50.2957 99.4633ZM63.6215 91.8123C61.2171 91.8123 59.2737 89.8689 59.2737 87.4645C59.2737 85.06 61.2171 83.1166 63.6215 83.1166C66.026 83.1166 67.9694 85.06 67.9694 87.4645C67.9694 89.8689 66.026 91.8123 63.6215 91.8123Z" fill="url(#paint1_linear_99_581)" />
    <defs>
        <linearGradient id="paint0_linear_99_581" x1="9.64358" y1="9.14986" x2="59.0807" y2="58.0938" gradientUnits="userSpaceOnUse">
            <stop stop-color="#387EB8" />
            <stop offset="1" stop-color="#366994" />
        </linearGradient>
        <linearGradient id="paint1_linear_99_581" x1="39.988" y1="40.5784" x2="93.0782" y2="90.7662" gradientUnits="userSpaceOnUse">
            <stop stop-color="#FFE052" />
            <stop offset="1" stop-color="#FFC331" />
        </linearGradient>
    </defs>
</svg>
    