<svg width="43" height="43" viewBox="0 0 43 43" fill="none" xmlns="http://www.w3.org/2000/svg">
    <path d="M42.4833 6.72427C42.4833 5.10066 41.167 3.78436 39.5434 3.78436H34.5719V1.19936C34.5719 0.537126 34.0348 0 33.3725 0H30.7821C30.1226 0 29.5814 0.537126 29.5814 1.19936V3.78572H13.0732V1.19936C13.0732 0.537126 12.5361 0 11.8739 0H9.45614C8.79391 0 8.25678 0.537126 8.25678 1.19936V3.78572H2.93992C1.3163 3.78572 0 5.10202 0 6.72563V17.2016H1.54883V39.9771C1.54883 41.6483 2.90184 43 4.57169 43H37.743C39.4142 43 40.7658 41.6483 40.7658 39.9771V17.2003H42.4887L42.4833 6.72427ZM35.948 34.988C35.948 36.6592 34.5964 38.0108 32.9251 38.0108H9.55948C7.88963 38.0108 6.53662 36.6592 6.53662 34.988V17.2003H35.9467V34.988H35.948Z" fill="#060137"/>
    <path d="M15.4801 20.4666H10.665V25.4557H15.4801V20.4666Z" fill="#060137"/>
    <path d="M23.7355 20.4666H18.9204V25.4557H23.7355V20.4666Z" fill="#060137"/>
    <path d="M31.991 20.4666H27.1745V25.4557H31.991V20.4666Z" fill="#060137"/>
    <path d="M15.4801 29.2385H10.665V34.2263H15.4801V29.2385Z" fill="#060137"/>
    <path d="M23.7355 29.2385H18.9204V34.2263H23.7355V29.2385Z" fill="#060137"/>
    <path d="M31.991 29.2385H27.1745V34.2263H31.991V29.2385Z" fill="#060137"/>
    </svg>
    