<svg
  width="37"
  height="43"
  viewBox="0 0 37 43"
  fill="none"
  xmlns="http://www.w3.org/2000/svg"
>
  <path
    d="M22.8113 27.6429C30.9234 27.6429 36.5957 21.936 36.5957 13.7323C36.5957 5.52857 30.9234 0 22.8113 0H7.24291C6.61135 0 6.09929 0.515712 6.09929 1.15179V20.9848H1.14362C0.512055 20.9848 0 21.5005 0 22.1366V26.4911C0 27.1271 0.512055 27.6429 1.14362 27.6429H6.09929V30.7143H1.14362C0.512055 30.7143 0 31.23 0 31.8661V35.7054C0 36.3414 0.512055 36.8571 1.14362 36.8571H6.09929V41.8482C6.09929 42.4843 6.61135 43 7.24291 43H12.8238C13.4553 43 13.9674 42.4843 13.9674 41.8482V36.8571H29.3528C29.9844 36.8571 30.4965 36.3414 30.4965 35.7054V31.8661C30.4965 31.23 29.9844 30.7143 29.3528 30.7143H13.9674V27.6429H22.8113ZM13.9674 6.59858H21.4695C25.922 6.59858 28.6057 9.39262 28.6057 13.7323C28.6057 18.1313 25.922 20.9848 21.3475 20.9848H13.9674V6.59858Z"
    fill="#060137"
  />
</svg>
