<svg
  width="45"
  height="43"
  viewBox="0 0 45 43"
  fill="none"
  xmlns="http://www.w3.org/2000/svg"
>
  <path
    d="M44.8523 19.2352C43.2044 4.44151 29.0546 -0.835662 20.051 0.105434C13.3397 0.809057 7.41098 4.31838 3.67329 9.70989C3.10251 10.5366 3.28663 11.6273 4.15201 12.1814C5.01738 12.7355 6.15895 12.454 6.73893 11.6361C9.89664 7.15046 14.8772 4.22163 20.4377 3.67632C29.9752 2.73523 39.1814 8.28505 41.1238 19.5958C42.5508 27.8986 35.729 38.2946 24.4607 39.3588C17.593 40.0097 10.9001 37.0808 7.02432 31.7509L10.5687 32.4985C11.5261 32.6832 12.5756 32.1291 12.7689 31.1264C12.9623 30.2117 12.3823 29.209 11.3328 29.0243L3.86662 27.4676C3.3879 27.3796 1.84127 27.4324 1.56508 28.8396L0.0368655 36.0694C-0.156463 36.9841 0.423523 37.9867 1.47302 38.1715C2.66982 38.2682 3.47996 37.6261 3.67329 36.7114L4.24407 34.2312C11.5629 44.0203 24.0649 43.0089 24.8382 42.9385C36.8246 41.8127 46.3069 32.1994 44.8523 19.2352Z"
    fill="#2BA84A"
  />
  <path
    d="M23.973 11.3635C22.9235 11.3635 22.0581 12.1903 22.0581 13.1929V21.5221C22.0581 21.9794 22.2514 22.4368 22.6289 22.8062L31.3471 31.1353C32.4702 32.1556 33.6486 31.5047 34.1273 31.2233C34.8915 30.4933 34.8915 29.3939 34.1273 28.6639L25.8879 20.7921V13.2017C25.8971 12.1903 25.0317 11.3635 23.973 11.3635Z"
    fill="#2BA84A"
  />
  </svg>
