<svg width="1443" height="803" viewBox="0 0 1443 803" fill="none" xmlns="http://www.w3.org/2000/svg">
    <path d="M2 511.5C48.8333 511.333 147.7 497.2 168.5 442C189.3 386.8 265.5 317 301 289C350.333 204 500.286 90 520 162C539.714 234 376.333 235.333 284 208.5C241.167 195.5 158.1 159 168.5 117C178.9 75 226.167 23.1667 248.5 2.5" stroke="black" stroke-opacity="0.3" stroke-width="3" stroke-linecap="square" stroke-dasharray="10 10" />
    <g clip-path="url(#clip0_0_1)">
        <path opacity="0.998" fill-rule="evenodd" clip-rule="evenodd" d="M307.806 290.344C307.806 291.698 307.806 293.052 307.806 294.406C295.854 341.565 283.87 388.752 271.854 435.969C269.593 438.152 266.808 438.725 263.497 437.687C246.712 427.972 229.869 418.337 212.97 408.781C202.757 402.59 192.393 396.549 181.876 390.656C181.825 390.425 181.89 390.217 182.07 390.031C222.837 357.15 263.454 324.181 303.919 291.125C303.66 290.917 303.401 290.917 303.142 291.125C254.227 320.943 205.254 350.683 156.224 380.344C141.237 374.632 126.338 368.746 111.526 362.687C110.395 362.058 109.488 361.277 108.806 360.344C108.806 359.094 108.806 357.844 108.806 356.594C109.72 355.177 111.145 354.187 113.081 353.625C174.667 331.94 236.206 310.169 297.7 288.312C301.836 286.591 305.204 287.269 307.806 290.344Z" fill="#24D8F8" />
        <path fill-rule="evenodd" clip-rule="evenodd" d="M181.876 390.656C181.595 390.787 181.401 390.995 181.293 391.281C178.062 406.926 174.758 422.551 171.382 438.156C169.07 437.285 167.71 435.827 167.301 433.781C163.608 415.965 159.915 398.152 156.224 380.344C205.254 350.683 254.227 320.943 303.142 291.125C303.401 290.917 303.66 290.917 303.919 291.125C263.454 324.181 222.837 357.15 182.07 390.031C181.89 390.217 181.825 390.425 181.876 390.656Z" fill="#00BFF0" />
        <path opacity="0.994" fill-rule="evenodd" clip-rule="evenodd" d="M181.876 390.656C192.393 396.549 202.757 402.59 212.97 408.781C200.988 418.362 188.939 427.894 176.823 437.375C175.119 438.065 173.305 438.325 171.382 438.156C174.758 422.551 178.062 406.926 181.293 391.281C181.401 390.995 181.595 390.787 181.876 390.656Z" fill="#009AE4" />
    </g>
    <path d="M1337.5 800C1330.33 791.5 1266 704 1315.5 647.5C1339.55 620.043 1374 569.5 1376 567.5C1378 565.5 1403 520 1440.5 532" stroke="black" stroke-opacity="0.3" stroke-width="3" stroke-linecap="square" stroke-dasharray="10 10" />
    <g clip-path="url(#clip1_0_1)">
        <path opacity="0.998" fill-rule="evenodd" clip-rule="evenodd" d="M1383.9 564.269C1383.9 565.056 1383.9 565.843 1383.9 566.63C1377.96 594.041 1372 621.468 1366.02 648.913C1364.89 650.182 1363.51 650.515 1361.86 649.912C1353.51 644.265 1345.13 638.665 1336.72 633.11C1331.64 629.512 1326.49 626 1321.25 622.575C1321.23 622.441 1321.26 622.32 1321.35 622.212C1341.63 603.1 1361.84 583.936 1381.97 564.723C1381.84 564.602 1381.71 564.602 1381.58 564.723C1357.25 582.055 1332.89 599.341 1308.49 616.581C1301.04 613.261 1293.63 609.84 1286.26 606.318C1285.69 605.952 1285.24 605.498 1284.9 604.956C1284.9 604.229 1284.9 603.503 1284.9 602.776C1285.36 601.953 1286.07 601.377 1287.03 601.051C1317.67 588.446 1348.28 575.792 1378.88 563.088C1380.93 562.088 1382.61 562.481 1383.9 564.269Z" fill="#24D8F8" />
        <path fill-rule="evenodd" clip-rule="evenodd" d="M1321.25 622.575C1321.12 622.651 1321.02 622.772 1320.96 622.938C1319.36 632.032 1317.71 641.114 1316.03 650.185C1314.88 649.678 1314.21 648.831 1314 647.642C1312.17 637.286 1310.33 626.932 1308.49 616.581C1332.89 599.341 1357.25 582.055 1381.58 564.723C1381.71 564.602 1381.84 564.602 1381.97 564.723C1361.84 583.936 1341.63 603.1 1321.35 622.212C1321.26 622.32 1321.23 622.441 1321.25 622.575Z" fill="#00BFF0" />
        <path opacity="0.994" fill-rule="evenodd" clip-rule="evenodd" d="M1321.25 622.575C1326.49 626 1331.64 629.512 1336.72 633.11C1330.76 638.679 1324.77 644.219 1318.74 649.73C1317.89 650.132 1316.99 650.283 1316.03 650.185C1317.71 641.114 1319.36 632.032 1320.96 622.938C1321.02 622.772 1321.12 622.651 1321.25 622.575Z" fill="#009AE4" />
    </g>
    <path d="M794 801C840.333 798.333 977.5 656 1042.5 591C1107.5 526 1157.3 359.4 1232.5 405C1307.7 450.6 1254 551.5 1160 526C1105.5 502.5 1067.29 476.606 1054.5 426.5C1042.5 379.5 1051.83 348.667 1082 301C1102.67 269 1150.7 199.5 1177.5 177.5C1211 150 1282 126.5 1291.5 87.5C1299.1 56.3 1256 21.1667 1232.5 3.5" stroke="black" stroke-opacity="0.3" stroke-width="3" stroke-linecap="square" stroke-dasharray="10 10" />
    <g clip-path="url(#clip2_0_1)">
        <path opacity="0.998" fill-rule="evenodd" clip-rule="evenodd" d="M1214.86 140.196C1214.86 141.339 1214.86 142.481 1214.86 143.624C1206.21 183.414 1197.54 223.228 1188.84 263.067C1187.21 264.91 1185.19 265.393 1182.8 264.518C1170.65 256.321 1158.46 248.19 1146.23 240.128C1138.84 234.904 1131.34 229.807 1123.73 224.835C1123.7 224.64 1123.74 224.464 1123.88 224.308C1153.37 196.564 1182.77 168.746 1212.05 140.855C1211.86 140.68 1211.67 140.68 1211.48 140.855C1176.09 166.015 1140.65 191.107 1105.17 216.134C1094.33 211.314 1083.55 206.348 1072.83 201.236C1072.01 200.705 1071.35 200.046 1070.86 199.259C1070.86 198.204 1070.86 197.149 1070.86 196.095C1071.52 194.899 1072.55 194.064 1073.95 193.59C1118.52 175.293 1163.05 156.924 1207.55 138.482C1210.54 137.03 1212.98 137.602 1214.86 140.196Z" fill="#24D8F8" />
        <path fill-rule="evenodd" clip-rule="evenodd" d="M1123.73 224.835C1123.53 224.945 1123.39 225.121 1123.31 225.362C1120.97 238.563 1118.58 251.746 1116.14 264.913C1114.47 264.178 1113.48 262.948 1113.19 261.222C1110.52 246.189 1107.84 231.16 1105.17 216.134C1140.65 191.107 1176.09 166.015 1211.48 140.855C1211.67 140.68 1211.86 140.68 1212.05 140.855C1182.77 168.746 1153.37 196.564 1123.88 224.308C1123.74 224.464 1123.7 224.64 1123.73 224.835Z" fill="#00BFF0" />
        <path opacity="0.994" fill-rule="evenodd" clip-rule="evenodd" d="M1123.73 224.835C1131.34 229.807 1138.84 234.904 1146.23 240.128C1137.56 248.212 1128.85 256.254 1120.08 264.254C1118.85 264.836 1117.53 265.056 1116.14 264.913C1118.58 251.746 1120.97 238.563 1123.31 225.362C1123.39 225.121 1123.53 224.945 1123.73 224.835Z" fill="#009AE4" />
    </g>
    <defs>
        <clipPath id="clip0_0_1">
            <rect width="199" height="160" fill="white" transform="translate(109 283)" />
        </clipPath>
        <clipPath id="clip1_0_1">
            <rect width="99" height="93" fill="white" transform="translate(1285 560)" />
        </clipPath>
        <clipPath id="clip2_0_1">
            <rect width="144" height="135" fill="white" transform="translate(1071 134)" />
        </clipPath>
    </defs>
</svg>
    