<svg width="840" height="620" xmlns="http://www.w3.org/2000/svg" fill="none">

 <g>
  <title>Layer 1</title>
  <path id="svg_1" fill="#05012F" d="m-405.00012,651.01c174.693,47.609 340.854,204.908 511.906,145.532c167.273,-58.065 257.102,-254.395 297.999,-426.671c37.848,-159.43 -66.317,-311.3309 -84.132,-474.221c-18.687,-170.858 77.003,-364.828 -22.93,-504.667c-99.856,-139.731 -298.146,-178.22 -469.765,-184.775c-152.3139,-5.817 -275.619,107.884 -421.901,150.72c-146.432,42.88 -312.588,12.459 -436.998,100.795c-138.74,98.511 -290.199,241.354 -284.378,411.41c5.942,173.605 203.902,268.178 312.284,403.926c79.073,99.038 131.472,218.336 238.597,286.051c106.661,67.422 237.574,58.721 359.318,91.9z"/>
  <path id="svg_2" fill="#07013F" d="m1019.41547,1038.2c90.26,11.02 189.86,45.38 267.25,-2.35c77.48,-47.778 85.61,-154.644 122.35,-237.925c36.19,-82.039 85.66,-157.647 91.62,-247.115c6.91,-103.554 16.42,-224.845 -55.13,-300.022c-71.6,-75.23 -195.07,-50.699 -297.11,-70.066c-90.76,-17.227 -177.37,-49.586 -268.94,-37.378c-102.25,13.632 -214.94,32.644 -282.2,110.857c-67.2,78.16 -49.08,193.961 -67.17,295.444c-18.83,105.625 -97.29,221.175 -41.21,312.646c57.36,93.583 197.98,78.514 302.17,113.059c76.49,25.36 148.38,53.08 228.37,62.85z"/>
 </g>
</svg>