<svg
  viewBox="0 0 1920 620"
  fill="none"
  xmlns="http://www.w3.org/2000/svg"
>
<path
    d="M0 651.01C174.693 698.619 340.854 855.918 511.906 796.542C679.179 738.477 769.008 542.147 809.905 369.871C847.753 210.441 743.588 58.5401 725.773 -104.35C707.086 -275.208 802.776 -469.178 702.843 -609.017C602.987 -748.748 404.697 -787.237 233.078 -793.792C80.7641 -799.609 -42.541 -685.908 -188.823 -643.072C-335.255 -600.192 -501.411 -630.613 -625.821 -542.277C-764.561 -443.766 -916.02 -300.923 -910.199 -130.867C-904.257 42.738 -706.297 137.311 -597.915 273.059C-518.842 372.097 -466.443 491.395 -359.318 559.11C-252.657 626.532 -121.744 617.831 0 651.01Z"
    fill="#05012F"
  />
<path
    d="M1920 1038.2C2010.26 1049.22 2109.86 1083.58 2187.25 1035.85C2264.73 988.072 2272.86 881.206 2309.6 797.925C2345.79 715.886 2395.26 640.278 2401.22 550.81C2408.13 447.256 2417.64 325.965 2346.09 250.788C2274.49 175.558 2151.02 200.089 2048.98 180.722C1958.22 163.495 1871.61 131.136 1780.04 143.344C1677.79 156.976 1565.1 175.988 1497.84 254.201C1430.64 332.361 1448.76 448.162 1430.67 549.645C1411.84 655.27 1333.38 770.82 1389.46 862.291C1446.82 955.874 1587.44 940.805 1691.63 975.35C1768.12 1000.71 1840.01 1028.43 1920 1038.2Z"
    fill="#07013F"
  />
</svg>
